<svg width="30" height="30" viewBox="0 0 30 30" fill="none" xmlns="http://www.w3.org/2000/svg">
<rect width="30" height="30" rx="15" fill="#543A35"/>
<path d="M20 15.8317H15.8333V19.9983C15.8333 20.2194 15.7455 20.4313 15.5892 20.5876C15.4329 20.7439 15.221 20.8317 15 20.8317C14.7789 20.8317 14.567 20.7439 14.4107 20.5876C14.2544 20.4313 14.1666 20.2194 14.1666 19.9983V15.8317H9.99996C9.77895 15.8317 9.56698 15.7439 9.4107 15.5876C9.25442 15.4313 9.16663 15.2194 9.16663 14.9983C9.16663 14.7773 9.25442 14.5654 9.4107 14.4091C9.56698 14.2528 9.77895 14.165 9.99996 14.165H14.1666V9.99834C14.1666 9.77733 14.2544 9.56537 14.4107 9.40909C14.567 9.25281 14.7789 9.16501 15 9.16501C15.221 9.16501 15.4329 9.25281 15.5892 9.40909C15.7455 9.56537 15.8333 9.77733 15.8333 9.99834V14.165H20C20.221 14.165 20.4329 14.2528 20.5892 14.4091C20.7455 14.5654 20.8333 14.7773 20.8333 14.9983C20.8333 15.2194 20.7455 15.4313 20.5892 15.5876C20.4329 15.7439 20.221 15.8317 20 15.8317Z" fill="#F7F4EF"/>
</svg>
