<?xml version="1.0" ?><!-- Uploaded to: SVG Repo, www.svgrepo.com, Generator: SVG Repo Mixer Tools -->
<svg width="800px" height="800px" viewBox="0 0 512 512" data-name="Layer 1" id="Layer_1" xmlns="http://www.w3.org/2000/svg"><defs><style>.cls-1{fill:#c6946a;}.cls-1,.cls-2{stroke:#493527;stroke-linejoin:round;stroke-width:10px;}.cls-2{fill:#fbd6aa;}</style></defs><title/><path class="cls-1" d="M414.88,272c0,39.82-71.14,40.1-158.87,40.1S97.13,311.82,97.13,272c0-19.63,17.28-37.42,45.32-50.42,14.34-6.66,31.52-12.06,50.63-15.8,7.35-1.45,15-2.65,22.91-3.57a341.92,341.92,0,0,1,40-2.31q5.81,0,11.48.19c7.81.25,15.48.76,22.92,1.51a285.54,285.54,0,0,1,51.5,9.74C385.8,224.17,414.88,246.54,414.88,272Z"/><path class="cls-2" d="M193.08,205.78v9.14a25.75,25.75,0,0,1-50.63,6.66C156.79,214.92,174,209.52,193.08,205.78Z"/><path class="cls-2" d="M267.49,200.09v30.83a25.75,25.75,0,0,1-51.5,0V202.21a341.92,341.92,0,0,1,40-2.31Q261.82,199.9,267.49,200.09Z"/><path class="cls-2" d="M341.91,211.34v3.58a25.75,25.75,0,1,1-51.5,0V201.6A285.54,285.54,0,0,1,341.91,211.34Z"/></svg>