<svg width="26" height="26" viewBox="0 0 26 26" fill="none" xmlns="http://www.w3.org/2000/svg">
<path d="M0.394592 1.29282C0.394592 1.05413 0.489414 0.825209 0.658196 0.656426C0.826979 0.487643 1.0559 0.392822 1.29459 0.392822H2.08299C3.39159 0.392822 4.14399 1.24422 4.57959 2.09382C4.87659 2.67522 5.09079 3.38442 5.26899 4.00002H23.8C24.0781 4.0001 24.3524 4.06464 24.6014 4.18856C24.8504 4.31248 25.0673 4.49242 25.2351 4.71425C25.4029 4.93608 25.517 5.19378 25.5684 5.46711C25.6198 5.74044 25.6072 6.02198 25.5316 6.28962L22.8388 15.7846C22.6246 16.5379 22.1706 17.2009 21.5456 17.6728C20.9206 18.1448 20.1588 18.4001 19.3756 18.4H10.2334C9.44369 18.4003 8.6758 18.1409 8.04804 17.6618C7.42028 17.1827 6.96748 16.5104 6.75939 15.7486L5.60379 11.5096L5.58579 11.452L3.73179 5.15562L3.55179 4.54902C3.37179 3.92622 3.21339 3.37542 2.97579 2.91282C2.68959 2.35482 2.42679 2.19282 2.08299 2.19282H1.29459C1.0559 2.19282 0.826979 2.098 0.658196 1.92922C0.489414 1.76044 0.394592 1.53152 0.394592 1.29282ZM10.3 25.6C11.0161 25.6 11.7028 25.3156 12.2092 24.8092C12.7155 24.3029 13 23.6161 13 22.9C13 22.1839 12.7155 21.4972 12.2092 20.9908C11.7028 20.4845 11.0161 20.2 10.3 20.2C9.58391 20.2 8.89715 20.4845 8.3908 20.9908C7.88446 21.4972 7.59999 22.1839 7.59999 22.9C7.59999 23.6161 7.88446 24.3029 8.3908 24.8092C8.89715 25.3156 9.58391 25.6 10.3 25.6ZM19.3 25.6C20.0161 25.6 20.7028 25.3156 21.2092 24.8092C21.7155 24.3029 22 23.6161 22 22.9C22 22.1839 21.7155 21.4972 21.2092 20.9908C20.7028 20.4845 20.0161 20.2 19.3 20.2C18.5839 20.2 17.8972 20.4845 17.3908 20.9908C16.8845 21.4972 16.6 22.1839 16.6 22.9C16.6 23.6161 16.8845 24.3029 17.3908 24.8092C17.8972 25.3156 18.5839 25.6 19.3 25.6Z" fill="#F7F4EF"/>
</svg>
