<svg width="30" height="30" viewBox="0 0 30 30" fill="none" xmlns="http://www.w3.org/2000/svg">
<path d="M11.1222 7.14565L10.9867 7.14493C7.71462 7.13469 4.59771 6.7384 3.04589 6.1356C1.86029 5.73685 1.49969 5.4692 1.48498 5.45795L1.37137 5.37185L1.45312 5.25519C1.67617 4.93634 2.30465 4.57452 2.49195 4.47126C3.75411 3.71891 7.19196 3.20682 11.0426 3.19961L11.1221 3.19917L11.209 3.20004C15.0772 3.20782 18.6163 3.74574 19.8152 4.50803C20.0756 4.66248 20.5486 4.96763 20.7456 5.24942L20.8242 5.36161L20.7185 5.44857C20.7012 5.4627 20.2807 5.8006 18.9099 6.23986C18.7867 6.28125 18.6538 6.32206 18.5134 6.36172L17.9502 6.52468L17.9695 6.50146C16.2558 6.90078 13.7815 7.13887 11.2226 7.14493L11.1222 7.14565ZM1.80118 5.30494C1.99049 5.40892 2.39635 5.60489 3.14653 5.85726C4.6737 6.4504 7.74894 6.83877 10.9878 6.84901L11.1222 6.84973L11.2224 6.84915C13.9842 6.84266 16.6417 6.56462 18.3313 6.1056L18.4312 6.07763C18.569 6.03883 18.6973 5.99931 18.8179 5.95878C19.7272 5.66748 20.1996 5.42434 20.4036 5.30306C20.2482 5.14616 19.9834 4.95206 19.6603 4.76026C18.5002 4.02263 15.0262 3.5036 11.2078 3.49596L11.1221 3.49509L11.0429 3.49553C7.30068 3.5026 3.8448 4.00936 2.63901 4.72796C2.35555 4.88443 2.00072 5.11127 1.80118 5.30494Z" fill="#543A35"/>
<path d="M18.7719 24.6397L18.7216 24.3478C18.8218 24.3305 28.1137 22.5981 27.9091 12.8198C27.4797 15.794 25.6845 21.0962 18.4991 23.482L18.4061 23.2011C28.4118 19.8789 27.7389 10.809 27.7309 10.7178L28.0247 10.6839C29.746 22.6036 18.8819 24.6205 18.7719 24.6397Z" fill="#543A35"/>
<path d="M18.9939 10.9662C18.9939 10.9662 26.9725 1.55373 29.8095 10.4365C29.8095 10.4365 32.5137 22.837 17.5436 24.5053C17.5436 24.5053 29.1447 21.4699 27.5035 11.3275C27.5035 11.3275 26.6843 5.21207 19.978 12.212L18.9939 10.9662Z" fill="#543A35"/>
<path d="M21.8154 25.255V21.9161L21.8241 3.95976L21.7466 3.91765C21.6793 4.27342 21.4764 4.61274 21.0939 4.86324C18.1753 6.7746 14.7008 6.98889 11.1871 7.17392C9.13251 7.28207 7.52547 6.95198 5.01052 6.58208C3.19427 6.31485 1.75577 5.43531 0.368026 4.17275C0.363844 4.169 0.359372 4.16641 0.354614 4.16338L0.369178 25.0464C0.369178 27.7014 5.04901 29.8536 10.8219 29.8536C11.0576 29.8536 11.2924 29.8487 11.5266 29.8417C16.5714 29.6894 21.1802 27.9251 21.8156 25.6694V25.5655C21.8394 25.463 21.8053 25.3594 21.8154 25.255ZM11.3898 21.3733C11.3254 21.3772 11.2622 21.3859 11.1972 21.3873C11.1584 21.3882 11.1201 21.3902 11.081 21.3902C8.28199 21.3902 6.01301 19.1208 6.01301 16.3212C6.01301 13.5216 8.28199 11.2522 11.081 11.2522C11.1365 11.2522 11.1916 11.2544 11.2465 11.2564C11.255 11.2567 11.2637 11.2567 11.2723 11.2571C13.9825 11.3579 16.149 13.586 16.149 16.3213C16.149 19.0163 14.0441 21.2127 11.3898 21.3733Z" fill="#543A35"/>
<path d="M11.0947 7.33553L10.9318 7.33425C5.80381 7.31103 0.340488 6.10255 0.316843 3.90853C0.312806 3.5281 0.482796 3.16079 0.822199 2.8167C2.19091 1.42911 6.28104 0.488274 10.9991 0.475728L11.0947 0.475006L11.227 0.476027C16.388 0.494919 21.8725 1.70325 21.8725 3.9052C21.8725 6.10701 16.3879 7.31535 11.2272 7.33439L11.0947 7.33553ZM11.0947 1.05993L11.0014 1.06065C6.49977 1.07262 2.48547 1.96369 1.2383 3.2277C1.01266 3.45642 0.899335 3.6834 0.901642 3.90217C0.91606 5.2553 4.95097 6.72236 10.9346 6.74933L11.0947 6.75063L11.2253 6.74961C17.1552 6.72769 21.2877 5.2331 21.2877 3.90536C21.2877 2.57761 17.1552 1.08287 11.225 1.06109L11.0947 1.05993Z" fill="#543A35"/>
<path d="M11.3315 18.1319C11.293 18.0759 11.2553 18.0196 11.2225 17.9626C10.8634 17.3369 10.8328 16.6817 10.8328 16.6817C10.8478 14.4482 8.50457 13.9034 8.50457 13.9034C7.46488 14.8898 7.67884 16.8311 8.99132 18.2581C9.64158 18.9651 10.4402 19.4126 11.2107 19.5695C11.2586 19.5794 11.3057 19.5842 11.3533 19.5917C12.0968 19.7088 12.8042 19.554 13.3124 19.0863L13.3185 19.0804C12.2864 19.0983 11.6851 18.6472 11.3315 18.1319Z" fill="#543A35"/>
<path d="M13.1707 14.4141C12.6064 13.8005 11.9305 13.3833 11.2582 13.1805C10.3557 12.9084 9.4598 13.0245 8.84977 13.5859L8.84372 13.5918C10.5079 13.563 11.0598 14.7513 11.2413 15.4659C11.2658 15.5625 11.2831 15.649 11.2961 15.7241C11.3239 15.8867 11.3294 15.9905 11.3294 15.9905C11.2911 18.287 13.6576 18.7689 13.6576 18.7689C14.697 17.7826 14.4831 15.8412 13.1707 14.4141Z" fill="#543A35"/>
<path d="M10.8054 6.67046L10.6699 6.66974C7.39786 6.6595 4.28095 6.26321 2.72927 5.66041C1.54366 5.26166 1.18307 4.99387 1.16836 4.98276L1.05475 4.89666L1.1365 4.78C1.35955 4.46115 1.98803 4.09932 2.17533 3.99607C3.43749 3.24372 6.87534 2.73163 10.726 2.72442L10.8054 2.724L10.8924 2.72486C14.7606 2.73265 18.2997 3.27055 19.4986 4.03284C19.7589 4.18729 20.232 4.49259 20.429 4.77423L20.5075 4.88644L20.4019 4.97338C20.3846 4.98751 19.9641 5.32541 18.5934 5.76467C18.4703 5.80606 18.3373 5.84687 18.1969 5.88653L17.6337 6.04949L17.653 6.02627C15.9393 6.42558 13.465 6.66368 10.9061 6.66974L10.8054 6.67046ZM1.48441 4.82975C1.67372 4.93373 2.07959 5.12972 2.82976 5.38209C4.35679 5.97523 7.43217 6.36358 10.6711 6.37382L10.8054 6.37454L10.9056 6.37396C13.6674 6.36747 16.325 6.08943 18.0145 5.63041L18.1144 5.60244C18.2523 5.56364 18.3806 5.52413 18.5011 5.48361C19.4105 5.1923 19.8828 4.94931 20.0868 4.82789C19.9314 4.67098 19.6667 4.47687 19.3437 4.28507C18.1836 3.54743 14.7094 3.02843 10.8912 3.02078L10.8054 3.01992L10.7263 3.02034C6.98406 3.02741 3.52818 3.53417 2.32239 4.25277C2.03893 4.40924 1.6841 4.63608 1.48441 4.82975Z" fill="#543A35"/>
<path d="M18.4551 24.1644L18.4048 23.8725C18.505 23.8552 27.7969 22.1228 27.5923 12.3444C27.163 15.3186 25.3678 20.6208 18.1824 23.0066L18.0894 22.7257C28.0951 19.4035 27.4222 10.3337 27.4141 10.2424L27.708 10.2085C29.4292 22.1282 18.5652 24.1453 18.4551 24.1644Z" fill="#543A35"/>
<path d="M18.6772 10.4909C18.6772 10.4909 26.6557 1.07838 29.4928 9.96117C29.4928 9.96117 32.1969 22.3617 17.2268 24.0299C17.2268 24.0299 28.828 20.9946 27.1867 10.8521C27.1867 10.8521 26.3675 4.73671 19.6612 11.7367L18.6772 10.4909Z" fill="#543A35"/>
<path d="M21.4988 24.7797V21.4408L21.5075 3.48443L21.43 3.44232C21.3627 3.79809 21.1598 4.13742 20.7773 4.38791C17.8587 6.29928 14.3842 6.51357 10.8705 6.69859C8.81589 6.80675 7.20885 6.47665 4.69389 6.10675C2.87764 5.83967 1.43915 4.96 0.0514014 3.69744C0.0472201 3.69369 0.0427524 3.69108 0.0379944 3.68805L0.0525542 24.571C0.0525542 27.2261 4.73239 29.3783 10.5053 29.3783C10.741 29.3783 10.9757 29.3734 11.21 29.3663C16.2548 29.214 20.8635 27.4498 21.4989 25.194V25.0902C21.5226 24.9877 21.4887 24.8841 21.4988 24.7797ZM11.073 20.898C11.0086 20.9019 10.9454 20.9105 10.8804 20.912C10.8416 20.9129 10.8033 20.9149 10.7642 20.9149C7.96522 20.9149 5.69624 18.6454 5.69624 15.8459C5.69624 13.0463 7.96522 10.7769 10.7642 10.7769C10.8197 10.7769 10.8748 10.779 10.9297 10.7811C10.9382 10.7813 10.9469 10.7813 10.9555 10.7818C13.6657 10.8826 15.8322 13.1106 15.8322 15.8459C15.8323 18.5412 13.7273 20.7375 11.073 20.898Z" fill="#543A35"/>
<path d="M10.7779 6.86039L10.615 6.85908C5.48703 6.83587 0.023716 5.62724 7.03036e-05 3.43336C-0.00396677 3.05293 0.165879 2.68564 0.505426 2.3417C1.87414 0.953958 5.96427 0.0132681 10.6823 0.000721757L10.7779 0L10.9103 0.00100342C16.0712 0.019895 21.5559 1.22824 21.5559 3.43033C21.5559 5.63214 16.0712 6.84048 10.9106 6.85966L10.7779 6.86039ZM10.7779 0.584781L10.6846 0.585486C6.18299 0.597455 2.16856 1.48855 0.921531 2.75255C0.695888 2.98127 0.582563 3.2084 0.584869 3.42702C0.599288 4.78015 4.6342 6.24719 10.6179 6.27416L10.7779 6.27546L10.9085 6.27446C16.8384 6.25254 20.9709 4.75794 20.9709 3.43019C20.9709 2.10245 16.8384 0.607701 10.9082 0.585926L10.7779 0.584781Z" fill="#543A35"/>
<path d="M11.0149 17.6567C10.9764 17.6008 10.9387 17.5444 10.9059 17.4874C10.5468 16.8617 10.5162 16.2065 10.5162 16.2065C10.5312 13.973 8.18798 13.4282 8.18798 13.4282C7.14829 14.4146 7.36225 16.3559 8.67473 17.7829C9.32499 18.49 10.1236 18.9373 10.8941 19.0943C10.942 19.1041 10.9891 19.109 11.0367 19.1165C11.7803 19.2338 12.4875 19.0788 12.9958 18.6111L13.0019 18.6052C11.9697 18.6231 11.3683 18.172 11.0149 17.6567Z" fill="#543A35"/>
<path d="M12.854 13.939C12.2896 13.3254 11.6137 12.9082 10.9414 12.7056C10.039 12.4334 9.14302 12.5495 8.53285 13.1109L8.52679 13.1169C10.1909 13.088 10.7429 14.2763 10.9244 14.9909C10.9489 15.0875 10.9662 15.174 10.9792 15.2491C11.007 15.4115 11.0125 15.5155 11.0125 15.5155C10.9741 17.8121 13.3407 18.2939 13.3407 18.2939C14.3803 17.3073 14.1664 15.366 12.854 13.939Z" fill="#543A35"/>
</svg>
