<svg width="40" height="40" viewBox="0 0 40 40" fill="none" xmlns="http://www.w3.org/2000/svg">
<rect width="40" height="40" rx="20" fill="#F7F4EF"/>
<path d="M10 13.995C10 13.445 10.446 13 10.995 13H19.005C19.2689 13 19.522 13.1048 19.7086 13.2914C19.8952 13.478 20 13.7311 20 13.995C20 14.2589 19.8952 14.512 19.7086 14.6986C19.522 14.8852 19.2689 14.99 19.005 14.99H10.995C10.7311 14.99 10.478 14.8852 10.2914 14.6986C10.1048 14.512 10 14.2589 10 13.995ZM10 20C10 19.45 10.446 19.005 10.995 19.005H29.005C29.2689 19.005 29.522 19.1098 29.7086 19.2964C29.8952 19.483 30 19.7361 30 20C30 20.2639 29.8952 20.517 29.7086 20.7036C29.522 20.8902 29.2689 20.995 29.005 20.995H10.995C10.7311 20.995 10.478 20.8902 10.2914 20.7036C10.1048 20.517 10 20.2639 10 20ZM10.995 25.01C10.7311 25.01 10.478 25.1148 10.2914 25.3014C10.1048 25.488 10 25.7411 10 26.005C10 26.2689 10.1048 26.522 10.2914 26.7086C10.478 26.8952 10.7311 27 10.995 27H23.005C23.2689 27 23.522 26.8952 23.7086 26.7086C23.8952 26.522 24 26.2689 24 26.005C24 25.7411 23.8952 25.488 23.7086 25.3014C23.522 25.1148 23.2689 25.01 23.005 25.01H10.995Z" fill="#543A35"/>
</svg>
