<svg width="26" height="46" viewBox="0 0 26 46" fill="none" xmlns="http://www.w3.org/2000/svg">
<path d="M22.1029 38.1093C21.5722 37.9346 20.9973 37.7802 20.3958 37.6413C20.4253 37.7238 20.451 37.8076 20.4717 37.8929C21.019 38.0228 21.5455 38.1642 22.032 38.3244C23.7387 38.8863 25.7735 39.8746 25.7735 41.3929C25.7735 42.9116 23.7387 43.8999 22.032 44.4618C19.5977 45.2629 16.3301 45.7033 12.8901 45.6662L12.7902 45.6652C9.60187 45.6326 6.6025 45.2052 4.34474 44.462C2.63798 43.9001 0.603746 42.9118 0.603746 41.3931C0.603746 39.8745 2.63798 38.8863 4.34474 38.3246C4.48127 38.2797 4.62854 38.2398 4.77028 38.1971C4.77515 38.1153 4.78323 38.0338 4.79583 37.953C4.62067 38.0046 4.4413 38.0543 4.27403 38.1094C2.49641 38.6943 0.377197 39.7391 0.377197 41.3931C0.377197 43.0473 2.49641 44.0921 4.27403 44.677C6.55295 45.4275 9.5767 45.859 12.7875 45.8918L12.8879 45.8928C12.9878 45.8939 13.0879 45.8949 13.1884 45.8949C16.551 45.8949 19.7168 45.4622 22.1029 44.6768C23.8808 44.0918 26 43.047 26 41.3929C26 39.7389 23.881 38.6943 22.1029 38.1093Z" fill="#543A35"/>
<path d="M20.5299 38.2393C20.538 38.3184 20.543 38.3977 20.5439 38.4773C23.5345 39.2096 25.3372 40.3372 25.3372 41.3929C25.3372 43.1501 20.3477 45.108 13.1884 45.108C13.0893 45.108 12.9914 45.1068 12.8936 45.1058L12.794 45.1048C5.76296 45.0358 1.03987 43.1298 1.03987 41.3931C1.03987 40.4535 2.41898 39.4668 4.79396 38.7467C4.78254 38.6705 4.77482 38.5937 4.77012 38.5166C2.23442 39.2869 0.813324 40.3685 0.813324 41.3933C0.813324 43.2307 5.39302 45.2588 12.7914 45.3316L12.891 45.3326C12.9895 45.3336 13.0883 45.3347 13.1884 45.3347C20.5913 45.3347 25.5637 43.2966 25.5637 41.3931C25.5639 40.2247 23.6883 39.0066 20.5299 38.2393Z" fill="#543A35"/>
<path d="M25.6687 41.0992C25.6687 43.4024 20.0812 45.2696 13.1885 45.2696C13.0557 45.2696 12.9243 45.2676 12.7925 45.2662C6.0837 45.1962 0.708527 43.3581 0.708527 41.0992C0.708527 38.8341 6.11379 36.9919 12.8488 36.9316C12.9621 36.9306 13.0747 36.9288 13.1887 36.9288C20.0812 36.9288 25.6687 38.796 25.6687 41.0992ZM13.1885 37.2153C13.0738 37.2153 12.9603 37.2168 12.8467 37.2182C7.81749 37.2785 3.79488 38.659 3.79488 40.3544C3.79488 42.045 7.79483 43.4228 12.8044 43.4901C12.9321 43.4918 13.0597 43.4933 13.1885 43.4933C18.3765 43.4933 22.5822 42.0879 22.5822 40.3542C22.5822 38.6206 18.3765 37.2153 13.1885 37.2153Z" fill="#543A35"/>
<path d="M8.50187 15.4009H4.83509L4.83292 9.84491H4.37982L4.38199 15.6275C4.38199 15.7528 4.48343 15.8541 4.60854 15.8541H8.48978C8.48071 15.7031 8.48491 15.5514 8.50187 15.4009Z" fill="#543A35"/>
<path d="M20.3027 9.85362L20.3014 15.4011H18.3131C18.3321 15.5512 18.338 15.7029 18.3309 15.8543H20.5279C20.6532 15.8543 20.7545 15.7528 20.7545 15.6277L20.7558 9.85362H20.3027Z" fill="#543A35"/>
<path d="M20.7496 39.2461L20.7545 15.6277C20.7545 15.5677 20.7306 15.5099 20.6881 15.4674C20.6456 15.4249 20.5882 15.4011 20.5279 15.4011H19.0339C19.0596 15.5504 19.0724 15.7023 19.0719 15.8543H20.3014L20.2965 36.6161L20.2973 39.2256C20.293 39.2743 20.2957 39.3227 20.2995 39.3712C20.3017 39.3986 20.3044 39.4297 20.3017 39.4425C20.2982 39.4584 20.2963 39.4745 20.2963 39.491V39.5421C19.8353 41.159 16.5921 42.5135 12.885 42.6326C12.7134 42.638 12.5421 42.6417 12.3695 42.6417C8.21956 42.6417 4.84365 41.0448 4.84365 39.0818L4.83475 15.8544H8.24843C8.2261 15.7046 8.21753 15.5529 8.22139 15.4013H4.6082C4.54808 15.4013 4.49048 15.4251 4.44799 15.4676C4.4055 15.5101 4.38165 15.5679 4.38165 15.6279L4.39055 39.0818C4.39055 41.3322 7.89527 43.0949 12.3695 43.0949C12.5465 43.0949 12.723 43.0912 12.8991 43.0853C16.8818 42.9578 20.2533 41.4724 20.7419 39.6308C20.7467 39.6118 20.7494 39.5923 20.7494 39.5726V39.5115C20.76 39.444 20.7551 39.3838 20.7511 39.3345C20.7496 39.3118 20.7466 39.2894 20.7496 39.2461Z" fill="#543A35"/>
<path d="M12.568 12.5088L12.4444 12.5079C8.54836 12.4895 4.39778 11.5389 4.37982 9.81332C4.37662 9.50627 4.51399 9.20996 4.78789 8.93247C5.85195 7.85426 8.94926 7.12323 12.4953 7.11348L12.5678 7.11299L12.6684 7.11367H12.6688C16.5893 7.12862 20.756 8.079 20.756 9.81096C20.756 11.5426 16.5891 12.4931 12.6688 12.5083L12.568 12.5088ZM12.568 7.56602L12.4968 7.56651C9.117 7.57575 6.07968 8.26846 5.11034 9.25076C4.92443 9.43906 4.83106 9.6267 4.83308 9.80844C4.84416 10.8761 7.90602 12.0332 12.4466 12.0546L12.568 12.0554L12.6667 12.0547C17.2347 12.0373 20.3031 10.8803 20.3031 9.8108C20.3031 8.74115 17.2347 7.58416 12.6671 7.56669H12.6674L12.568 7.56602Z" fill="#543A35"/>
<path d="M14.645 14.4972L14.6525 14.0083L14.637 14.0024V14.4986L14.645 14.4972Z" fill="#543A35"/>
<path d="M5.47648 15.4857C5.44575 15.4857 5.41533 15.4732 5.39317 15.4493C5.35622 15.4092 5.35304 15.3482 5.38578 15.3045L6.9167 13.2631C6.93988 13.2326 6.97617 13.2156 7.01496 13.2181L8.92846 13.3456C8.96675 13.348 9.00116 13.37 9.01981 13.4034L9.65745 14.5517C9.68146 14.5947 9.67491 14.6479 9.64166 14.6838C9.60841 14.7201 9.55587 14.7304 9.51103 14.7097L7.90871 13.97L5.53693 15.4683C5.51829 15.48 5.4973 15.4857 5.47648 15.4857ZM7.06131 13.4482L5.93663 14.9477L7.83987 13.7454C7.87212 13.7249 7.91325 13.7222 7.94785 13.7383L9.29102 14.3585L8.85187 13.5673L7.06131 13.4482Z" fill="#543A35"/>
<path d="M10.3876 13.891C10.344 13.891 10.3037 13.8658 10.2848 13.8253C10.264 13.7805 10.2748 13.7274 10.3112 13.6942L11.0765 12.9924C11.0938 12.9766 11.1156 12.9663 11.139 12.9635L12.1596 12.836C12.2131 12.8301 12.264 12.8614 12.281 12.9124L12.4724 13.4865C12.483 13.5188 12.4791 13.5541 12.461 13.5828C12.443 13.6114 12.4131 13.6305 12.3795 13.6349L10.4022 13.8902C10.3972 13.8905 10.3925 13.891 10.3876 13.891ZM11.203 13.1839L10.7277 13.6196L12.214 13.4278L12.0954 13.0725L11.203 13.1839Z" fill="#543A35"/>
<path d="M19.0621 14.784C19.0465 14.784 19.0307 14.7806 19.016 14.7741C18.9977 14.766 17.1733 13.9535 16.0515 13.7471C15.9996 13.7375 15.9612 13.6933 15.9588 13.6406L15.9533 13.5166C15.9507 13.4595 15.9912 13.4093 16.0478 13.4L17.1299 13.2196C17.1456 13.2169 17.1623 13.2176 17.1779 13.2218L18.8363 13.6683C18.8746 13.6785 18.9048 13.7084 18.9157 13.7466L19.171 14.6397C19.1831 14.682 19.1695 14.7275 19.1364 14.7566C19.1154 14.7744 19.0888 14.784 19.0621 14.784ZM16.3516 13.5788C17.253 13.7911 18.4082 14.2658 18.8873 14.4709L18.7157 13.8702L17.1429 13.4467L16.3516 13.5788Z" fill="#543A35"/>
<path d="M18.858 14.1037L18.9228 14.5792L16.1472 13.616L16.5058 13.4726C16.3688 13.4484 16.2306 13.4249 16.0888 13.403L16.0529 16.222L14.6556 16.1465L14.6368 15.8443V15.8212V14.4984L13.9593 14.6067L13.8955 15.3724L14.2783 16.2335L14.5334 17.0311L13.1939 16.0103V14.3516L14.2144 13.8413L14.6368 14.0022V13.2314C14.0123 13.1795 13.361 13.1479 12.6859 13.1452C12.6525 13.145 12.6194 13.1444 12.5859 13.1444C12.5618 13.1444 12.5379 13.1449 12.5139 13.1449C12.4311 13.145 12.3514 13.1487 12.2696 13.1499L12.3146 13.4647L10.4266 13.7291L11.0473 13.1969C10.2955 13.2443 9.5772 13.3211 8.91602 13.4291L9.42587 14.5221L7.95321 13.8423L5.76312 15.1076L6.43186 14.0566C5.29946 14.4863 4.62015 15.0342 4.6262 15.6263C4.64014 16.9842 8.12416 18.0869 12.4635 18.1074C12.5045 18.1076 12.545 18.1084 12.5861 18.1084C12.6196 18.1084 12.6526 18.1078 12.6861 18.1076C17.036 18.0908 20.5461 16.9867 20.5461 15.6263C20.5461 15.0512 19.9146 14.5231 18.858 14.1037ZM11.9186 16.2018L10.0689 16.7121L8.79323 16.2018H10.1327L11.2171 15.7552L11.9824 14.7344L11.9186 16.2018ZM16.3196 16.9674L17.2763 15.4363L16.1919 15.1812L18.1054 14.7347L18.1691 16.202L16.3196 16.9674ZM14.4699 16.2018C14.4699 16.2018 15.4266 16.8078 16.3834 16.0741C16.3832 16.0743 15.586 17.1268 14.4699 16.2018ZM16.2557 16.3933C15.5223 17.3821 14.6612 16.5529 14.6612 16.5529C15.7135 16.9355 16.2557 16.3933 16.2557 16.3933Z" fill="#543A35"/>
<path d="M15.4265 26.2176L18.8071 24.3038L19.6362 26.5366L18.9984 30.428L15.2352 29.4713L18.2967 29.216L18.9345 26.9194L18.3605 25.5797L15.4265 26.2176Z" fill="#543A35"/>
<path d="M14.6862 36.7003L15.324 34.4674L17.6841 33.6382L19.4699 35.2331L17.6841 34.4038L15.9618 34.7228L14.6862 36.7003Z" fill="#543A35"/>
<path d="M19.9551 20.9227L17.8504 20.6037L16.5109 23.1555L18.9345 23.6658L17.6589 22.645L17.9778 21.5606L19.9551 20.9227Z" fill="#543A35"/>
<path d="M6.56082 20.0934L9.62233 18.4985L11.5997 19.3916L12.4288 22.3261L10.5791 20.3485L6.56082 20.0934Z" fill="#543A35"/>
<path d="M6.56084 29.0246L6.36957 26.9831L7.77269 26.3453L9.55871 27.0469L9.68618 27.94L6.56084 29.0246Z" fill="#543A35"/>
<path d="M7.64507 33.4265L6.75214 31.5765L7.96399 31.0022L10.898 30.9385L8.41053 31.6403L7.64507 33.4265Z" fill="#543A35"/>
<path d="M6.05063 35.8507L5.47662 34.3835L6.30574 33.7455L8.21921 34.8938L7.32612 36.6161L6.05063 35.8507Z" fill="#543A35"/>
<path d="M12.7509 29.6599L12.4288 29.4074L12.7527 29.8848L13.6406 31.1937L13.1941 32.8524L12.7786 33.0063L11.472 33.4903L12.7831 33.5675L13.6406 33.6178L14.7888 31.2575L12.7509 29.6599Z" fill="#543A35"/>
<path d="M13.1941 23.0917L12.6983 23.2937L11.472 23.7935L12.6202 24.2399L12.7072 24.3778L13.3855 25.452L12.7233 26.3215L12.365 26.7918L12.7275 26.8321L14.0872 26.9831L14.4699 24.7504L13.1941 23.0917Z" fill="#543A35"/>
<path d="M15.3603 16.3657C14.9179 16.3657 14.6146 16.1786 14.601 16.1702C14.5679 16.1494 14.548 16.1133 14.548 16.0742V12.1809C14.548 12.1231 14.5916 12.0744 14.6491 12.0683L15.4345 11.9834L16.0524 11.9167C16.0846 11.9128 16.1162 11.9237 16.1402 11.9451C16.1642 11.9664 16.1778 11.997 16.1778 12.0292V16.0742C16.1778 16.1161 16.1546 16.1546 16.1174 16.1744C15.9103 16.2838 15.6913 16.3468 15.4668 16.3621C15.4305 16.3647 15.3949 16.3657 15.3603 16.3657ZM14.7745 16.0065C14.8796 16.0577 15.1317 16.1575 15.4513 16.1361C15.6226 16.1244 15.7905 16.0802 15.9513 16.0041V12.1554L14.7747 12.2825V16.0065H14.7745Z" fill="#543A35"/>
<path d="M18.9251 1.12324L18.4259 0.679138L14.908 4.63606L15.0822 4.79093L14.7994 4.7187L14.9695 4.92077L14.6931 4.87828L14.9269 5.08017L14.6506 5.05901L14.8949 5.21841L14.6612 5.1865L14.7794 5.33449L14.6612 5.31417L14.7446 5.42048H14.6612V12.181L15.4466 12.096L16.0643 12.0292V5.44736L19.4744 1.61172L18.9251 1.12324Z" fill="#543A35"/>
<path d="M14.6612 12.2943C14.6333 12.2943 14.6064 12.284 14.5854 12.2654C14.5614 12.2439 14.5478 12.2131 14.5478 12.1809V5.42034C14.5478 5.40102 14.5525 5.38305 14.5611 5.36709C14.5426 5.33249 14.5435 5.29033 14.5638 5.25589C14.565 5.25388 14.5661 5.25204 14.5675 5.25019C14.5433 5.21475 14.5411 5.16822 14.5624 5.13059C14.5382 5.10103 14.5302 5.06003 14.5431 5.02241C14.554 4.99016 14.5782 4.96548 14.6083 4.95355C14.5785 4.92013 14.5708 4.87191 14.59 4.83059C14.6086 4.79011 14.6491 4.76475 14.6928 4.76475C14.6936 4.76475 14.6946 4.76475 14.6958 4.76475C14.6805 4.73082 14.6827 4.69084 14.7032 4.65825C14.7242 4.62482 14.7604 4.60533 14.7985 4.60516C14.8031 4.5887 14.8115 4.57342 14.8231 4.56048L18.341 0.60356C18.361 0.581052 18.3889 0.567618 18.419 0.56577C18.4492 0.565266 18.4784 0.57418 18.5009 0.594169L19.5495 1.52692C19.5962 1.5684 19.6004 1.64013 19.5587 1.68683L16.1775 5.49022V12.029C16.1775 12.087 16.1338 12.1355 16.0764 12.1416L14.6731 12.2933C14.6692 12.2941 14.6652 12.2943 14.6612 12.2943ZM14.7745 5.52969V12.0548L15.9511 11.9276V5.44738C15.9511 5.41967 15.9612 5.39279 15.9798 5.37213L19.3144 1.62113L18.4351 0.839074L15.0678 4.62667L15.1574 4.70646C15.1962 4.74123 15.2066 4.79818 15.1821 4.84437C15.162 4.88199 15.1232 4.90449 15.082 4.90449C15.0819 4.90449 15.0817 4.90449 15.0814 4.90449C15.0851 4.92868 15.0807 4.95406 15.0681 4.9764C15.0575 4.99555 15.0415 5.01082 15.0229 5.02073C15.0419 5.0513 15.0456 5.08959 15.0315 5.12403C15.0237 5.14234 15.0118 5.15779 14.9971 5.16938C15.0102 5.19643 15.0122 5.22836 15.0011 5.25809C14.9843 5.30361 14.9391 5.34022 14.8928 5.33182C14.8931 5.35265 14.8879 5.37348 14.877 5.39212C14.8716 5.40119 14.8652 5.40926 14.8578 5.41632C14.8585 5.43463 14.8548 5.45293 14.8466 5.47006C14.832 5.49979 14.8054 5.52129 14.7745 5.52969Z" fill="#543A35"/>
<path d="M19.1873 39.9032C19.1873 41.0504 16.2118 41.9805 12.5413 41.9805C8.87085 41.9805 5.89532 41.0504 5.89532 39.9032C5.89532 38.7559 8.87085 37.8259 12.5413 37.8259C16.2118 37.8259 19.1873 38.7559 19.1873 39.9032Z" fill="#543A35"/>
<path d="M21.7257 37.543C21.195 37.3682 20.6201 37.214 20.0186 37.075C20.0481 37.1573 20.0738 37.2413 20.0945 37.3267C20.6418 37.4565 21.1683 37.5979 21.6548 37.7582C23.3616 38.3201 25.3963 39.3084 25.3963 40.8267C25.3963 42.3453 23.3617 43.3337 21.6548 43.8956C19.2205 44.6966 15.953 45.137 12.5129 45.0999L12.413 45.0989C9.22469 45.0663 6.2253 44.639 3.96754 43.8957C2.26078 43.3339 0.226548 42.3455 0.226548 40.8269C0.226548 39.3082 2.26078 38.3199 3.96754 37.7584C4.10407 37.7135 4.25135 37.6735 4.39309 37.6309C4.39796 37.5491 4.40601 37.4676 4.41861 37.3868C4.24345 37.4384 4.0641 37.4881 3.89683 37.5432C2.11921 38.1281 0 39.1728 0 40.8269C0 42.4811 2.11921 43.5258 3.89683 44.1107C6.17576 44.8612 9.19948 45.2928 12.4103 45.3255L12.5107 45.3265C12.6106 45.3277 12.7107 45.3287 12.8112 45.3287C16.1738 45.3287 19.3396 44.896 21.7257 44.1107C23.5036 43.5257 25.6228 42.4809 25.6228 40.8269C25.6228 39.1727 23.5036 38.1282 21.7257 37.543Z" fill="#543A35"/>
<path d="M20.1526 37.6732C20.1606 37.7523 20.1657 37.8316 20.1665 37.9112C23.1572 38.6436 24.9598 39.7712 24.9598 40.8269C24.9598 42.584 19.9705 44.5419 12.811 44.5419C12.7119 44.5419 12.614 44.5407 12.5163 44.5397L12.4167 44.5387C5.3856 44.4697 0.662656 42.5637 0.662656 40.8271C0.662656 39.8874 2.04177 38.9007 4.41675 38.1806C4.40533 38.1044 4.39761 38.0276 4.39291 37.9505C1.85721 38.7208 0.435944 39.8024 0.435944 40.8272C0.435944 42.6647 5.01561 44.6927 12.414 44.7655L12.5136 44.7665C12.6123 44.7677 12.7109 44.7687 12.811 44.7687C20.2139 44.7687 25.1863 42.7305 25.1863 40.8271C25.1865 39.6585 23.3112 38.4405 20.1526 37.6732Z" fill="#543A35"/>
<path d="M25.2913 40.5331C25.2913 42.8364 19.7038 44.7035 12.8111 44.7035C12.6783 44.7035 12.547 44.7015 12.415 44.7002C5.7062 44.6301 0.330994 42.792 0.330994 40.5331C0.330994 38.268 5.73626 36.4259 12.4713 36.3656C12.5846 36.3645 12.6971 36.3627 12.8111 36.3627C19.7038 36.3625 25.2913 38.2297 25.2913 40.5331ZM12.8111 36.6493C12.6964 36.6493 12.5829 36.6508 12.4692 36.6521C7.44 36.7124 3.41753 38.093 3.41753 39.7883C3.41753 41.479 7.4175 42.8567 12.4271 42.924C12.5547 42.9257 12.6823 42.9272 12.8111 42.9272C17.9991 42.9272 22.2048 41.5218 22.2048 39.7882C22.2049 38.0547 17.9991 36.6493 12.8111 36.6493Z" fill="#543A35"/>
<path d="M8.1245 14.8348H4.45774L4.45557 9.27884H4.00247L4.00464 15.0614C4.00464 15.1866 4.10608 15.288 4.23119 15.288H8.11241C8.10334 15.1369 8.10771 14.9852 8.1245 14.8348Z" fill="#543A35"/>
<path d="M19.9253 9.28737L19.924 14.8348H17.9358C17.9548 14.985 17.9606 15.1367 17.9536 15.288H20.1506C20.2758 15.288 20.3771 15.1866 20.3771 15.0614L20.3784 9.28737H19.9253Z" fill="#543A35"/>
<path d="M20.3724 38.6798L20.3773 15.0614C20.3773 15.0014 20.3532 14.9437 20.3109 14.9012C20.2684 14.8587 20.211 14.8348 20.1507 14.8348H18.6567C18.6823 14.9841 18.6952 15.136 18.6947 15.288H19.9242L19.9193 36.0499L19.9201 38.6592C19.9156 38.7079 19.9184 38.7563 19.9223 38.8048C19.9245 38.8322 19.9272 38.8633 19.9245 38.876C19.921 38.892 19.9191 38.9081 19.9191 38.9244V38.9755C19.458 40.5924 16.2149 41.9469 12.5079 42.066C12.3362 42.0714 12.1649 42.0751 11.9923 42.0751C7.84235 42.0751 4.46646 40.4781 4.46646 38.5152L4.45756 15.2878H7.87125C7.84891 15.138 7.84035 14.9863 7.84421 14.8347H4.23085C4.17073 14.8347 4.11311 14.8585 4.07062 14.901C4.02813 14.9435 4.0043 15.0013 4.0043 15.0613L4.0132 38.5152C4.0132 40.7655 7.5179 42.5282 11.9921 42.5282C12.1691 42.5282 12.3456 42.5246 12.5218 42.5187C16.5045 42.3912 19.876 40.9058 20.3645 39.0642C20.3694 39.0452 20.372 39.0257 20.372 39.006V38.9449C20.3826 38.8774 20.3778 38.8172 20.3737 38.7679C20.3724 38.7457 20.3692 38.7233 20.3724 38.6798Z" fill="#543A35"/>
<path d="M12.1906 11.9427L12.067 11.9419C8.17103 11.9234 4.02043 10.9728 4.00247 9.24725C3.99927 8.94019 4.13664 8.64391 4.41054 8.36642C5.4746 7.2882 8.57189 6.55717 12.1179 6.54743L12.1904 6.54694L12.2911 6.54761H12.2914C16.2119 6.56256 20.3786 7.51295 20.3786 9.24491C20.3786 10.9765 16.2117 11.9271 12.2914 11.9422L12.1906 11.9427ZM12.1906 6.99996L12.1196 7.00045C8.73983 7.00969 5.7025 7.70241 4.73316 8.68471C4.54725 8.873 4.45387 9.06064 4.45589 9.24239C4.46697 10.31 7.52882 11.4672 12.0692 11.4885L12.1906 11.4893L12.2894 11.4887C16.8573 11.4712 19.9257 10.3142 19.9257 9.24475C19.9257 8.1751 16.8573 7.01809 12.2897 7.00062H12.29L12.1906 6.99996Z" fill="#543A35"/>
<path d="M14.2677 13.9311L14.2751 13.442L14.2596 13.4361V13.9325L14.2677 13.9311Z" fill="#543A35"/>
<path d="M5.0991 14.9197C5.06837 14.9197 5.03798 14.9071 5.01581 14.8832C4.9787 14.8431 4.97568 14.7821 5.00843 14.7384L6.53935 12.6971C6.56253 12.6665 6.59879 12.6495 6.63759 12.652L8.55108 12.7795C8.58937 12.7819 8.62379 12.8039 8.64243 12.8373L9.28011 13.9856C9.30413 14.0286 9.29758 14.0818 9.26433 14.1178C9.23091 14.154 9.1785 14.1641 9.13366 14.1436L7.53136 13.4039L5.15956 14.9022C5.14092 14.9139 5.11993 14.9197 5.0991 14.9197ZM6.68394 12.8821L5.55925 14.3816L7.4625 13.1793C7.49474 13.1588 7.5359 13.1561 7.57049 13.1722L8.91365 13.7924L8.47433 13.0012L6.68394 12.8821Z" fill="#543A35"/>
<path d="M10.0103 13.3248C9.9666 13.3248 9.92628 13.2996 9.90747 13.2591C9.88665 13.2142 9.89723 13.1612 9.93384 13.1279L10.6993 12.4261C10.7166 12.4103 10.7383 12.4001 10.7618 12.3972L11.7823 12.2697C11.8359 12.2639 11.8868 12.2951 11.9037 12.3462L12.0952 12.9203C12.106 12.9525 12.1019 12.9878 12.0838 13.0165C12.0656 13.0451 12.0359 13.0643 12.0024 13.0688L10.0251 13.3241C10.0199 13.3244 10.0151 13.3248 10.0103 13.3248ZM10.8256 12.6178L10.3503 13.0535L11.8366 12.8617L11.718 12.5064L10.8256 12.6178Z" fill="#543A35"/>
<path d="M18.6848 14.2179C18.6692 14.2179 18.6534 14.2145 18.6386 14.208C18.6203 14.1999 16.796 13.3873 15.6742 13.181C15.6221 13.1714 15.5838 13.1272 15.5815 13.0745L15.5759 12.9505C15.5734 12.8934 15.6139 12.8433 15.6705 12.8339L16.7525 12.6535C16.7681 12.6509 16.7849 12.6515 16.8005 12.6557L18.4589 13.1022C18.4972 13.1124 18.5274 13.1423 18.5383 13.1805L18.7936 14.0736C18.8059 14.1159 18.7921 14.1614 18.759 14.1905C18.738 14.2083 18.7115 14.2179 18.6848 14.2179ZM15.9742 13.0127C16.8756 13.225 18.0308 13.6997 18.51 13.9048L18.3382 13.3041L16.7654 12.8807L15.9742 13.0127Z" fill="#543A35"/>
<path d="M18.4806 13.5374L18.5454 14.013L15.7699 13.0498L16.1284 12.9064C15.9914 12.8822 15.8532 12.8587 15.7114 12.8368L15.6755 15.6557L14.2784 15.5801L14.2594 15.278V15.2548V13.932L13.5821 14.0403L13.5183 14.8059L13.9011 15.6672L14.1562 16.4645L12.8167 15.4437V13.785L13.8373 13.2747L14.2594 13.4356V12.6648C13.6349 12.6129 12.9836 12.5813 12.3085 12.5786C12.2751 12.5785 12.2422 12.5778 12.2086 12.5778C12.1844 12.5778 12.1607 12.5783 12.1366 12.5783C12.0538 12.5785 11.974 12.5822 11.8922 12.5833L11.9372 12.8981L10.0492 13.1625L10.6699 12.6304C9.91806 12.6778 9.19964 12.7545 8.53863 12.8625L9.04864 13.9555L7.576 13.2757L5.38592 14.5411L6.05466 13.4901C4.92225 13.9197 4.24293 14.4676 4.24897 15.0597C4.26291 16.4176 7.74697 17.5204 12.0863 17.5409C12.1273 17.541 12.1678 17.5419 12.2089 17.5419C12.2423 17.5419 12.2754 17.5412 12.3088 17.5411C16.6588 17.5243 20.1688 16.42 20.1688 15.0597C20.1687 14.4851 19.5372 13.957 18.4806 13.5374ZM11.5412 15.6357L9.69153 16.1462L8.41586 15.6357H9.75532L10.8397 15.1891L11.605 14.1683L11.5412 15.6357ZM15.9422 16.4012L16.8989 14.8701L15.8145 14.615L17.728 14.1685L17.7918 15.6357L15.9422 16.4012ZM14.0925 15.6357C14.0925 15.6357 15.0492 16.2418 16.006 15.5082C16.0058 15.5081 15.2086 16.5608 14.0925 15.6357ZM15.8783 15.827C15.1448 16.8159 14.2838 15.9865 14.2838 15.9865C15.3363 16.3693 15.8783 15.827 15.8783 15.827Z" fill="#543A35"/>
<path d="M15.0491 25.6514L18.4297 23.7377L19.2588 25.9706L18.621 29.862L14.8578 28.9051L17.9193 28.6499L18.5572 26.3532L17.9832 25.0136L15.0491 25.6514Z" fill="#543A35"/>
<path d="M14.3088 36.1343L14.9467 33.9014L17.3067 33.0721L19.0926 34.667L17.3067 33.8375L15.5845 34.1565L14.3088 36.1343Z" fill="#543A35"/>
<path d="M19.5777 20.3566L17.473 20.0376L16.1335 22.5893L18.5572 23.0998L17.2817 22.079L17.6004 20.9945L19.5777 20.3566Z" fill="#543A35"/>
<path d="M6.18347 19.5271L9.245 17.9323L11.2223 18.8255L12.0514 21.76L10.2017 19.7825L6.18347 19.5271Z" fill="#543A35"/>
<path d="M6.18348 28.4586L5.99219 26.417L7.39531 25.7791L9.18117 26.4809L9.3088 27.374L6.18348 28.4586Z" fill="#543A35"/>
<path d="M7.26769 32.8603L6.37476 31.0102L7.58659 30.4361L10.5206 30.3723L8.03315 31.0741L7.26769 32.8603Z" fill="#543A35"/>
<path d="M5.6733 35.2846L5.09927 33.8172L5.92839 33.1793L7.84188 34.3277L6.94879 36.0501L5.6733 35.2846Z" fill="#543A35"/>
<path d="M12.3735 29.0939L12.0514 28.8412L12.3754 29.3188L13.2633 30.6274L12.8169 32.2862L12.4012 32.4402L11.0947 32.9241L12.4057 33.0012L13.2633 33.0518L14.4114 30.6913L12.3735 29.0939Z" fill="#543A35"/>
<path d="M12.8169 22.5256L12.321 22.7277L11.0947 23.2272L12.2427 23.6739L12.3298 23.8118L13.0082 24.886L12.346 25.7554L11.9876 26.2257L12.3502 26.2659L13.7098 26.417L14.0925 24.1842L12.8169 22.5256Z" fill="#543A35"/>
<path d="M14.983 15.7997C14.5406 15.7997 14.2373 15.6126 14.2237 15.6042C14.1908 15.5833 14.1706 15.5472 14.1706 15.5081V11.6148C14.1706 11.557 14.2143 11.5083 14.2717 11.5023L15.0572 11.4173L15.675 11.3506C15.7073 11.3467 15.7387 11.3577 15.7628 11.379C15.7869 11.4003 15.8005 11.4309 15.8005 11.4631V15.5081C15.8005 15.5501 15.7773 15.5886 15.74 15.6084C15.5329 15.7177 15.3139 15.7807 15.0894 15.796C15.0531 15.7985 15.0176 15.7997 14.983 15.7997ZM14.3972 15.4402C14.5025 15.4914 14.7544 15.5912 15.074 15.5699C15.2455 15.5581 15.4132 15.514 15.5739 15.4379V11.5891L14.3974 11.7163L14.3972 15.4402Z" fill="#543A35"/>
<path d="M18.5478 0.557021L18.0485 0.112915L14.5305 4.06982L14.7049 4.22487L14.422 4.15264L14.5922 4.35454L14.3157 4.31204L14.5497 4.51411L14.2733 4.49278L14.5176 4.65235L14.2838 4.62045L14.4021 4.76826L14.2838 4.74794L14.3673 4.85426H14.2838V11.6148L15.0693 11.53L15.687 11.4631V4.8813L19.0971 1.04566L18.5478 0.557021Z" fill="#543A35"/>
<path d="M14.2838 11.7282C14.256 11.7282 14.2291 11.7178 14.2081 11.6993C14.1841 11.6778 14.1705 11.6472 14.1705 11.615V4.85442C14.1705 4.83511 14.1754 4.81713 14.1838 4.80117C14.1653 4.76657 14.1661 4.72441 14.1864 4.68998C14.1876 4.68796 14.1888 4.68613 14.1901 4.68428C14.1659 4.64884 14.1638 4.6023 14.1851 4.56468C14.1609 4.53511 14.1528 4.49429 14.1658 4.45649C14.1767 4.42424 14.2009 4.39957 14.2309 4.38764C14.2012 4.35421 14.1935 4.30616 14.2126 4.26468C14.2313 4.22419 14.2717 4.19884 14.3154 4.19884C14.3164 4.19884 14.3173 4.19883 14.3184 4.199C14.3032 4.16507 14.3053 4.12509 14.3258 4.0925C14.3468 4.05907 14.3831 4.0396 14.4212 4.03943C14.4257 4.02297 14.4342 4.00769 14.4457 3.99476L17.9637 0.03783C17.9835 0.0153217 18.0116 0.00186755 18.0416 1.9852e-05C18.0718 -0.000484065 18.1011 0.00859382 18.1237 0.0285825L19.1723 0.961329C19.219 1.00282 19.2232 1.07455 19.1816 1.12124L15.8003 4.92465V11.4635C15.8003 11.5213 15.7566 11.57 15.6992 11.576L14.2959 11.7277C14.2921 11.728 14.2879 11.7282 14.2838 11.7282ZM14.3972 4.96361V11.4887L15.5738 11.3615V4.88131C15.5738 4.85359 15.584 4.82671 15.6025 4.80605L18.9371 1.05524L18.0579 0.273159L14.6906 4.06076L14.7803 4.14038C14.8192 4.17515 14.8295 4.2321 14.805 4.27829C14.785 4.31592 14.746 4.33841 14.7049 4.33841C14.7047 4.33841 14.7045 4.33841 14.7042 4.33841C14.7079 4.3626 14.7035 4.38798 14.6909 4.41032C14.6802 4.42947 14.6644 4.44474 14.6457 4.45465C14.6647 4.48522 14.6684 4.52352 14.6542 4.55795C14.6464 4.57626 14.6345 4.59172 14.6197 4.60331C14.6328 4.63035 14.6348 4.66228 14.6237 4.69201C14.6069 4.73753 14.5618 4.77414 14.5154 4.76574C14.5157 4.78657 14.5105 4.8074 14.4996 4.82605C14.4942 4.83512 14.4879 4.84317 14.4805 4.85022C14.4811 4.86853 14.4775 4.88685 14.4692 4.90398C14.4546 4.93371 14.4281 4.95504 14.3972 4.96361Z" fill="#543A35"/>
<path d="M18.8097 39.3371C18.8097 40.4844 15.8342 41.4144 12.1637 41.4144C8.49329 41.4144 5.51776 40.4844 5.51776 39.3371C5.51776 38.1899 8.49329 37.2598 12.1637 37.2598C15.8342 37.2598 18.8097 38.1899 18.8097 39.3371Z" fill="#543A35"/>
</svg>
