<svg width="24" height="41" viewBox="0 0 24 41" fill="none" xmlns="http://www.w3.org/2000/svg">
<path fill-rule="evenodd" clip-rule="evenodd" d="M23.2456 16.6396H0.749507C0.335777 16.6396 0 16.3039 0 15.8901V11.6518C0 11.2381 0.335777 10.9023 0.749507 10.9023H23.2505C23.6642 10.9023 24 11.2381 24 11.6518V15.8901C24 16.3039 23.6642 16.6396 23.2505 16.6396C23.2495 16.6396 23.2468 16.6396 23.2456 16.6396ZM1.49415 15.1394H22.4961V12.4003H1.49901L1.49415 15.1394Z" fill="#E8DACD"/>
<path fill-rule="evenodd" clip-rule="evenodd" d="M17.4376 40.4354H6.55366C4.83902 40.4453 3.40563 39.1333 3.26552 37.4249L1.37118 15.9547C1.37118 15.9337 1.37118 15.91 1.37118 15.889C1.35504 15.4753 1.67849 15.127 2.09222 15.1111C2.50595 15.0949 2.85423 15.4184 2.8702 15.8321L4.76332 37.2938C4.84145 38.2242 5.61943 38.9378 6.55228 38.9366H17.436C18.3715 38.9416 19.1531 38.2254 19.2312 37.2926L21.1243 15.8309C21.1405 15.4171 21.4898 15.0949 21.9035 15.1111C22.3173 15.1272 22.6395 15.4765 22.6233 15.8902V15.9559L20.7306 37.4249C20.5894 39.1357 19.1534 40.4489 17.4376 40.4354Z" fill="#E8DACD"/>
<path fill-rule="evenodd" clip-rule="evenodd" d="M21.1419 11.8204L19.9613 6.72472C19.8957 6.43739 19.6405 6.23408 19.3455 6.23547H4.64343C4.34863 6.23425 4.09341 6.43739 4.02761 6.72472L2.84822 11.8204C2.75534 12.2242 2.35133 12.4758 1.94871 12.3817C1.54488 12.2888 1.29331 11.8848 1.38741 11.4822L2.56696 6.38652C2.78746 5.41895 3.65103 4.73246 4.64343 4.73628H19.3455C20.3391 4.73264 21.2015 5.41895 21.422 6.38652L22.6014 11.4822C22.6943 11.886 22.4441 12.2888 22.0401 12.3817C21.6364 12.4746 21.2348 12.2242 21.1419 11.8204Z" fill="#E8DACD"/>
<path fill-rule="evenodd" clip-rule="evenodd" d="M17.9729 6.23525C17.5591 6.23525 17.2234 5.89948 17.2234 5.48575V3.4862C17.2024 2.67228 16.5259 2.02798 15.7119 2.04899C14.9264 2.06878 14.2946 2.70058 14.2746 3.4862V5.48575C14.2746 5.89948 13.9389 6.23525 13.5251 6.23525C13.1114 6.23525 12.7756 5.89948 12.7756 5.48575V3.4862C12.8053 1.84343 14.1595 0.536436 15.8023 0.56491C17.4043 0.593383 18.6951 1.8844 18.7236 3.4862V5.48575C18.7224 5.89948 18.3866 6.23525 17.9729 6.23525Z" fill="#E8DACD"/>
<path fill-rule="evenodd" clip-rule="evenodd" d="M13.9017 24.99C11.8278 24.99 11.7125 24.0397 10.0908 24.0397C8.46902 24.0397 8.36503 24.99 6.27988 24.99C4.31991 24.99 4.06973 24.1264 2.72923 24.047C2.3155 24.021 2.00073 23.6642 2.02677 23.2505C2.05282 22.8368 2.4096 22.522 2.82333 22.548C4.6036 22.6534 4.73382 23.4847 6.28492 23.4847C7.92265 23.4847 8.00581 22.5345 10.097 22.5345C12.1586 22.5345 12.2985 23.4847 13.9079 23.4847C15.5458 23.4847 15.6276 22.5345 17.7188 22.5345C19.6564 22.5345 19.9203 23.3732 21.2014 23.4711C21.6152 23.5047 21.9249 23.8677 21.8903 24.2826C21.8568 24.6964 21.4938 25.0061 21.0789 24.9716C19.3717 24.8391 19.2441 24.0349 17.7128 24.0349C16.9372 24.0349 16.5879 24.2095 16.1419 24.4313C15.6214 24.6964 15.0304 24.99 13.9017 24.99Z" fill="#E8DACD"/>
</svg>
