<svg width="30" height="26" viewBox="0 0 30 26" fill="none" xmlns="http://www.w3.org/2000/svg">
<path d="M29.0448 9.78417L28.3648 7.43251L26.7923 2.94167C26.5295 2.16901 26.0348 1.4962 25.3756 1.01501C24.7082 0.53214 23.9044 0.274142 23.0806 0.27834H6.83147C6.00645 0.276732 5.20146 0.532412 4.52857 1.00978C3.85568 1.48715 3.34838 2.16246 3.07731 2.94167L1.47647 7.48917L0.824807 9.78417C0.811734 9.88291 0.811734 9.98294 0.824807 10.0817C0.82959 11.0717 1.10373 12.0417 1.61785 12.8877C2.13196 13.7337 2.86665 14.4239 3.74314 14.8842V21.7267C3.73936 22.2524 3.84011 22.7736 4.03954 23.26C4.23896 23.7464 4.53309 24.1883 4.90481 24.56C5.65921 25.3056 6.67749 25.7231 7.73814 25.7217H22.3015C22.8248 25.7235 23.3433 25.6219 23.8271 25.4225C24.3109 25.2231 24.7505 24.9299 25.1205 24.5599C25.4906 24.1899 25.7837 23.7503 25.9831 23.2665C26.1825 22.7826 26.2842 22.2641 26.2823 21.7408V14.8983C27.0459 14.5044 27.7023 13.9307 28.1948 13.2267C28.8434 12.3118 29.1901 11.2173 29.1865 10.0958C29.1477 9.98831 29.1003 9.88408 29.0448 9.78417ZM19.284 21.6842H10.5431C10.1674 21.6842 9.80708 21.5349 9.54141 21.2692C9.27573 21.0036 9.12647 20.6432 9.12647 20.2675C9.12647 19.8918 9.27573 19.5315 9.54141 19.2658C9.80708 19.0001 10.1674 18.8508 10.5431 18.8508H19.284C19.6597 18.8508 20.02 19.0001 20.2857 19.2658C20.5514 19.5315 20.7006 19.8918 20.7006 20.2675C20.7006 20.6432 20.5514 21.0036 20.2857 21.2692C20.02 21.5349 19.6597 21.6842 19.284 21.6842ZM26.3673 11.98C25.9678 12.5453 25.404 12.9717 24.7523 13.1983C24.2616 13.3647 23.7383 13.4116 23.2258 13.3353C22.7134 13.2589 22.2265 13.0614 21.8056 12.7592C21.3821 12.4602 21.0346 12.0661 20.791 11.6085C20.5474 11.1508 20.4146 10.6425 20.4031 10.1242C20.4031 9.84238 20.2912 9.57213 20.0919 9.37287C19.8927 9.17362 19.6224 9.06168 19.3406 9.06168C19.0588 9.06168 18.7886 9.17362 18.5893 9.37287C18.3901 9.57213 18.2781 9.84238 18.2781 10.1242V10.195C18.2676 10.5527 18.2007 10.9065 18.0798 11.2433C17.842 11.8824 17.4175 12.4353 16.8615 12.83C16.3131 13.2262 15.6538 13.4394 14.9773 13.4392C14.2906 13.4405 13.6206 13.2267 13.0616 12.8278C12.5026 12.4289 12.0826 11.8649 11.8606 11.215C11.7305 10.8857 11.6632 10.5349 11.6623 10.1808C11.6623 9.89905 11.5504 9.6288 11.3511 9.42954C11.1518 9.23028 10.8816 9.11834 10.5998 9.11834C10.318 9.11834 10.0478 9.23028 9.84851 9.42954C9.64925 9.6288 9.53731 9.89905 9.53731 10.1808C9.52583 10.7011 9.39307 11.2115 9.14958 11.6714C8.9061 12.1313 8.55862 12.528 8.13481 12.83C7.576 13.2267 6.90759 13.4396 6.22231 13.4392C5.85077 13.4285 5.483 13.3616 5.13147 13.2408C4.48374 13.0192 3.92316 12.5976 3.53064 12.0367C3.16849 11.52 2.96201 10.9104 2.93564 10.28L3.51647 8.18334L5.08897 3.70667C5.21571 3.34196 5.45305 3.02585 5.76792 2.80239C6.0828 2.57893 6.45953 2.45925 6.84564 2.46001H23.0948C23.4773 2.46567 23.8527 2.58467 24.1715 2.80001C24.4817 3.02667 24.7141 3.34259 24.8373 3.70667L26.3956 8.12667L27.0048 10.28C26.9456 10.8976 26.715 11.4865 26.339 11.98H26.3673Z" fill="#F7F4EF"/>
</svg>
