<svg width="30" height="36" viewBox="0 0 30 36" fill="none" xmlns="http://www.w3.org/2000/svg">
<path d="M12.556 17.8061C25.3149 17.1388 14.9743 16.2213 14.9743 16.2213C20.4781 17.0554 12.556 17.8061 12.556 17.8061Z" fill="#543A35"/>
<path d="M10.4629 16.2544C10.4629 16.2544 4.08611 16.8618 8.84345 17.773C8.84345 17.773 6.81906 16.8618 10.4629 16.2544Z" fill="#543A35"/>
<path d="M24.3913 29.1943C27.4409 28.1637 29.7179 25.4697 29.987 22.1837C30.1902 19.7018 27.9688 18.5552 25.8086 18.5561C25.8559 17.6598 25.8378 17.0183 25.8281 16.7869C25.8282 16.7812 25.8293 16.7755 25.8293 16.7697C25.8293 16.7411 25.8271 16.7128 25.823 16.6847L25.8145 16.5526L25.7924 16.5663C25.3753 15.3942 21.3631 14.7666 17.3052 14.5154C14.2725 14.3078 11.1714 14.3342 8.00962 14.5674C4.23999 14.8467 0.704549 15.4631 0.291128 16.5536L0.289504 16.5526L0.289005 16.5596C0.2639 16.6278 0.249786 16.6976 0.249786 16.7696C0.249786 16.8228 0.257156 16.8747 0.270895 16.926C0.253784 17.4994 0.245042 19.0719 0.552673 20.9977C0.910139 23.2352 1.77982 26.4212 3.89352 28.8925C4.62044 29.7425 5.44915 30.4535 6.37167 31.0307C5.72431 31.1188 5.11404 31.22 4.54962 31.3341C2.87283 31.673 0.874042 32.2735 0.874042 33.2106C0.874042 34.1476 2.87295 34.7483 4.54962 35.0871C6.83468 35.5489 9.86927 35.8032 13.0945 35.8032C16.3196 35.8032 19.3542 35.5488 21.6394 35.0871C23.3162 34.7483 25.315 34.1476 25.315 33.2106C25.315 32.2735 23.3161 31.673 21.6394 31.3341C21.0547 31.2159 20.4205 31.1116 19.747 31.0214C20.3638 30.634 20.9383 30.1862 21.468 29.6764C22.2382 29.6822 23.8476 29.3781 24.3913 29.1943ZM3.53031 32.1403C1.49342 32.9933 4.83277 34.4029 4.83277 34.4029C-1.19944 33.0317 3.53031 32.1403 3.53031 32.1403ZM25.6079 20.6206C26.7978 20.7523 28.0338 21.5165 28.0338 22.8345C28.0338 23.8756 27.6291 24.8857 27.1881 25.5998C26.505 26.6296 24.5548 28.0587 22.7969 28.1458C24.4893 25.8049 25.2288 23.0157 25.5512 20.9978C25.5715 20.8704 25.5901 20.7448 25.6079 20.6206ZM0.713419 16.9095C0.675574 16.8568 0.658336 16.8097 0.658336 16.7697C0.658336 16.5038 1.39863 15.9263 4.17317 15.4477C5.36834 15.2415 6.76586 15.0833 8.28565 14.976C8.28502 14.9751 8.2844 14.9742 8.28377 14.9734C11.275 14.7769 14.2467 14.7344 17.085 14.9296C18.8807 15.0347 20.5269 15.2097 21.9059 15.4476C24.6804 15.9262 25.4207 16.5037 25.4207 16.7696C25.4207 16.8181 25.3955 16.8774 25.338 16.9444C25.1562 17.0851 24.9546 17.2152 24.7361 17.3358C24.5185 17.4352 24.2401 17.5393 23.8891 17.6447C23.2852 17.4125 22.2603 17.2063 20.9341 17.042C20.9338 17.0449 20.9337 17.0479 20.9335 17.0509C21.9052 17.2456 22.4736 17.4788 22.4736 17.7297C22.4736 17.839 22.3652 17.9449 22.1637 18.0457C22.0798 18.061 21.994 18.0763 21.9061 18.0915C19.5396 18.4998 16.3907 18.7246 13.0397 18.7246C9.72538 18.7246 6.61023 18.5044 4.2526 18.1045C3.96808 17.9863 3.81333 17.8604 3.81333 17.7297C3.81333 17.4997 4.29033 17.2845 5.11842 17.1001C3.87915 17.2715 2.94864 17.482 2.43842 17.7161C1.89261 17.5662 1.49942 17.4168 1.22339 17.2786C1.04166 17.1638 0.871043 17.041 0.713419 16.9095ZM5.80787 18.9391C6.84329 19.1701 14.0177 20.5948 23.3065 18.5554C23.3065 18.5552 14.8185 21.0384 5.80787 18.9391ZM12.8029 32.9933C9.58324 32.9449 7.35614 32.4364 7.35614 32.4364L7.31018 31.3959C8.01437 32.4414 12.8029 32.9933 12.8029 32.9933ZM1.30332 19.646C1.45221 19.0051 2.0922 18.6062 2.73294 18.7551C3.37368 18.9039 3.77249 19.5442 3.62373 20.185C3.47485 20.8259 2.83486 21.2248 2.19412 21.0759C1.55325 20.9271 1.15444 20.2868 1.30332 19.646ZM1.49355 21.5445C1.49355 21.5445 2.3676 22.5365 3.71104 21.5072C3.71104 21.5072 3.33096 25.522 7.20526 30.9197C7.20526 30.9197 2.96962 28.4365 1.49355 21.5445ZM6.91998 32.3959L6.67393 31.3392L6.67768 31.3505H6.91998V32.3959ZM6.96919 32.43C12.1652 34.0661 17.3612 32.8713 17.3612 32.8713C11.0031 34.7379 6.96919 32.43 6.96919 32.43ZM22.1336 31.9798C22.1336 31.9798 31.7534 33.9915 15.6177 35.1572C15.6177 35.157 28.5438 33.9914 22.1336 31.9798ZM19.3743 31.0189C19.2954 30.9599 19.5047 31.0174 19.3982 30.9641C22.7969 28.7361 24.8617 22.5656 24.8617 22.5656C23.6648 27.6405 21.339 29.9607 19.3743 31.0189ZM28.6194 25.6649C31.1891 19.6136 26.5376 19.1688 26.5376 19.1688C32.0672 19.6673 28.6194 25.6649 28.6194 25.6649Z" fill="#543A35"/>
<path d="M24.1416 28.8195C27.1911 27.7889 29.4681 25.0949 29.7372 21.8089C29.9404 19.327 27.719 18.1805 25.5588 18.1813C25.6061 17.285 25.588 16.6435 25.5783 16.4121C25.5784 16.4064 25.5795 16.4008 25.5795 16.3949C25.5795 16.3663 25.5773 16.338 25.5732 16.3099L25.5647 16.1778L25.5426 16.1915C25.1255 15.0195 21.1133 14.3918 17.0554 14.1406C14.0227 13.933 10.9216 13.9595 7.75983 14.1926C3.99021 14.4719 0.454763 15.0883 0.0413413 16.1788L0.0397176 16.1778L0.0392182 16.1848C0.0141132 16.253 0 16.3228 0 16.3948C0 16.448 0.00736993 16.5 0.021109 16.5512C0.00399762 17.1246 -0.00474395 18.6972 0.302886 20.6229C0.660352 22.8604 1.53003 26.0464 3.64373 28.5177C4.37065 29.3677 5.19937 30.0787 6.12188 30.6559C5.47452 30.744 4.86426 30.8452 4.29983 30.9593C2.62304 31.2982 0.624256 31.8987 0.624256 32.8358C0.624256 33.7729 2.62316 34.3735 4.29983 34.7123C6.58489 35.1742 9.61948 35.4284 12.8447 35.4284C16.0699 35.4284 19.1044 35.174 21.3896 34.7123C23.0664 34.3735 25.0652 33.7729 25.0652 32.8358C25.0652 31.8987 23.0663 31.2982 21.3896 30.9593C20.805 30.8411 20.1707 30.7368 19.4973 30.6466C20.114 30.2592 20.6886 29.8114 21.2183 29.3016C21.9884 29.3074 23.5979 29.0033 24.1416 28.8195ZM3.28052 31.7655C1.24364 32.6185 4.58298 34.0281 4.58298 34.0281C-1.44922 32.6569 3.28052 31.7655 3.28052 31.7655ZM25.3581 20.2459C26.548 20.3775 27.784 21.1417 27.784 22.4597C27.784 23.5008 27.3794 24.511 26.9383 25.225C26.2553 26.2548 24.3051 27.684 22.5471 27.771C24.2395 25.4302 24.979 22.6409 25.3014 20.623C25.3217 20.4956 25.3404 20.37 25.3581 20.2459ZM0.463632 16.5347C0.425787 16.482 0.40855 16.4349 0.40855 16.3949C0.40855 16.129 1.14884 15.5515 3.92338 15.0729C5.11856 14.8667 6.51607 14.7085 8.03586 14.6012C8.03524 14.6003 8.03461 14.5995 8.03399 14.5986C11.0252 14.4021 13.9969 14.3596 16.8352 14.5549C18.6309 14.6599 20.2771 14.8349 21.6562 15.0728C24.4306 15.5514 25.1709 16.1289 25.1709 16.3948C25.1709 16.4434 25.1458 16.5026 25.0882 16.5697C24.9065 16.7103 24.7049 16.8404 24.4863 16.9611C24.2687 17.0604 23.9903 17.1646 23.6393 17.2699C23.0354 17.0378 22.0105 16.8315 20.6843 16.6672C20.6841 16.6701 20.6839 16.6731 20.6837 16.6761C21.6554 16.8709 22.2238 17.104 22.2238 17.3549C22.2238 17.4643 22.1154 17.5701 21.914 17.6709C21.83 17.6863 21.7442 17.7015 21.6563 17.7167C19.2898 18.125 16.1409 18.3499 12.79 18.3499C9.47559 18.3499 6.36044 18.1296 4.00282 17.7297C3.71829 17.6115 3.56354 17.4856 3.56354 17.3549C3.56354 17.125 4.04054 16.9097 4.86863 16.7253C3.62937 16.8967 2.69886 17.1072 2.18864 17.3413C1.64282 17.1914 1.24963 17.042 0.973603 16.9038C0.791872 16.789 0.621257 16.6662 0.463632 16.5347ZM5.55808 18.5644C6.59351 18.7953 13.7679 20.22 23.0567 18.1806C23.0567 18.1805 14.5687 20.6636 5.55808 18.5644ZM12.5531 32.6185C9.33346 32.5701 7.10635 32.0616 7.10635 32.0616L7.06039 31.0211C7.76458 32.0666 12.5531 32.6185 12.5531 32.6185ZM1.05354 19.2712C1.20242 18.6303 1.84241 18.2314 2.48315 18.3803C3.12389 18.5291 3.5227 19.1694 3.37394 19.8102C3.22506 20.4511 2.58507 20.85 1.94433 20.7011C1.30347 20.5523 0.904656 19.9121 1.05354 19.2712ZM1.24376 21.1697C1.24376 21.1697 2.11782 22.1617 3.46125 21.1325C3.46125 21.1325 3.08118 25.1472 6.95547 30.5449C6.95547 30.5449 2.71984 28.0617 1.24376 21.1697ZM6.6702 32.0211L6.42415 30.9644L6.42789 30.9758H6.6702V32.0211ZM6.71941 32.0552C11.9154 33.6913 17.1114 32.4965 17.1114 32.4965C10.7533 34.3631 6.71941 32.0552 6.71941 32.0552ZM21.8839 31.605C21.8839 31.605 31.5036 33.6167 15.3679 34.7824C15.3679 34.7823 28.294 33.6166 21.8839 31.605ZM19.1245 30.6441C19.0456 30.5851 19.2549 30.6426 19.1484 30.5894C22.5471 28.3613 24.6119 22.1908 24.6119 22.1908C23.415 27.2657 21.0892 29.586 19.1245 30.6441ZM28.3696 25.2901C30.9393 19.2388 26.2879 18.794 26.2879 18.794C31.8175 19.2925 28.3696 25.2901 28.3696 25.2901Z" fill="#543A35"/>
<path d="M12.4311 17.5562C25.19 16.889 14.8494 15.9714 14.8494 15.9714C20.3532 16.8055 12.4311 17.5562 12.4311 17.5562Z" fill="#543A35"/>
<path d="M10.338 16.0045C10.338 16.0045 3.96123 16.6119 8.71858 17.5231C8.71858 17.5231 6.69419 16.6119 10.338 16.0045Z" fill="#543A35"/>
<path d="M14.4813 11.8287C14.4813 11.8287 12.2593 9.48746 14.2591 6.95108C14.2591 6.95108 16.2887 4.54915 15.3701 1.97591C15.3701 1.97591 18.0008 5.31982 15.9255 7.82905C15.9255 7.82905 14.148 9.58503 14.4813 11.8287Z" fill="#543A35"/>
<path d="M17.4552 12C17.4552 12 15.5504 9.99293 17.2647 7.81862C17.2647 7.81862 19.0045 5.75951 18.2171 3.5536C18.2171 3.5536 20.4723 6.42013 18.6932 8.57123C18.6932 8.57123 17.1695 10.0765 17.4552 12Z" fill="#543A35"/>
<path d="M11.2274 11.4433C11.2274 11.4433 8.6468 8.72418 10.9693 5.77833C10.9693 5.77833 13.3266 2.98862 12.2596 0C12.2596 0 15.3151 3.8837 12.9047 6.79801C12.9047 6.79801 10.8403 8.83749 11.2274 11.4433Z" fill="#543A35"/>
<path d="M15.37 1.97591C15.4532 2.20905 15.512 2.44069 15.5505 2.66938C16.3629 4.28999 16.5688 6.20286 15.9174 7.83726C15.9222 7.83237 15.9256 7.82905 15.9256 7.82905C18.0008 5.31976 15.37 1.97591 15.37 1.97591Z" fill="#543A35"/>
<path d="M18.2171 3.5536C18.325 3.85579 18.3852 4.15515 18.4091 4.44687C19.0727 5.4604 19.2862 6.59214 19.1896 7.72124C19.9338 5.736 18.2171 3.5536 18.2171 3.5536Z" fill="#543A35"/>
<path d="M12.2597 6.10352e-05C12.3412 0.228315 12.4024 0.455377 12.4466 0.680182C13.5182 2.52747 13.6768 4.67023 13.0399 6.62506C15.1955 3.73245 12.2597 6.10352e-05 12.2597 6.10352e-05Z" fill="#543A35"/>
</svg>
