<svg width="30" height="30" viewBox="0 0 30 30" fill="none" xmlns="http://www.w3.org/2000/svg">
<rect width="30" height="30" rx="15" fill="#543A35"/>
<path d="M20.0001 15.8317H15.8334V19.9983C15.8334 20.2193 15.7456 20.4313 15.5893 20.5876C15.4331 20.7439 15.2211 20.8317 15.0001 20.8317C14.7791 20.8317 14.5671 20.7439 14.4108 20.5876C14.2545 20.4313 14.1667 20.2193 14.1667 19.9983V15.8317H10.0001C9.77907 15.8317 9.56711 15.7439 9.41083 15.5876C9.25455 15.4313 9.16675 15.2193 9.16675 14.9983C9.16675 14.7773 9.25455 14.5654 9.41083 14.4091C9.56711 14.2528 9.77907 14.165 10.0001 14.165H14.1667V9.99833C14.1667 9.77731 14.2545 9.56535 14.4108 9.40907C14.5671 9.25279 14.7791 9.16499 15.0001 9.16499C15.2211 9.16499 15.4331 9.25279 15.5893 9.40907C15.7456 9.56535 15.8334 9.77731 15.8334 9.99833V14.165H20.0001C20.2211 14.165 20.4331 14.2528 20.5893 14.4091C20.7456 14.5654 20.8334 14.7773 20.8334 14.9983C20.8334 15.2193 20.7456 15.4313 20.5893 15.5876C20.4331 15.7439 20.2211 15.8317 20.0001 15.8317Z" fill="#F7F4EF"/>
</svg>
