<!DOCTYPE svg PUBLIC "-//W3C//DTD SVG 1.1//EN" "http://www.w3.org/Graphics/SVG/1.1/DTD/svg11.dtd"><svg width="64px" height="64px" viewBox="0 0 1024 1024" class="icon" version="1.1" xmlns="http://www.w3.org/2000/svg" fill="#543A35" stroke="#543A35"><g id="SVGRepo_bgCarrier" stroke-width="0"/><g id="SVGRepo_tracerCarrier" stroke-linecap="round" stroke-linejoin="round"/><g id="SVGRepo_iconCarrier"><path d="M308.265417 192.198L380.304555 68.229c-39.935506-19.121064-87.773444-20.743885-130.884035-0.28223l58.844897 124.252zM319.695721 200.101l147.041687-0.423345c-0.776132-19.967753-5.432922-40.147178-14.534831-59.409357-13.476469-28.364087-34.573141-50.660236-59.621029-65.618411L319.695721 200.101zM296.693998 200.171l-59.550472-125.733343C191.210639 101.462 164.117 149.723 162.423 200.524l134.270791-0.352787zM318.566802 214.001l61.173293 129.12c52.353614-24.765658 83.963-75.496451 86.927-129.543444l-148.100048 .423zM295.56508 214.001l-133.000758 .353c1.128919 18.98 5.715 38.03 14.323 56.305 11.854 25.048 29.705 45.227 50.942 59.903l67.735134-116.560876zM306.995383 221.903L239.613037 337.97c37.818783 21.379 84.246 26.318 127.286 10.443l-59.90326-126.509475z" fill="#543A35"/><path d="M345.025839 128.697c-20.885-10.230828-45.580101-12.206436-68.722938-3.880659l31.891959 67.312 36.831-63.43113zM393.851581 199.819c-0.917247-10.089713-3.457314-20.179425-8.043547-29.845793-6.702956-14.252601-16.792669-25.753462-28.857989-34.220354L319.625164 200.03l74.226417-0.211673zM263.743678 130.602c-26.529594 14.605-42.828361 41.135-45.227313 69.711l78.177633-0.211672-32.95032-69.49907zM351.376008 283.218c25.400675-15.09929 40.712-41.48777 42.687-69.569627l-75.496452 .212 32.809 69.358zM218.445807 214.142c0.776132 10.513 3.387 21.097 8.185 31.186 6.985 14.817 17.639 26.671 30.269 35.208l38.665473-66.606215-77.119273 .212zM268.894371 287.451c21.449459 10.019 46.709 11.289 70.064 1.905l-31.962517-67.452905-38.101012 65.548z" fill="#543A35"/><path d="M487.26962 1015.251c-26.459037 0-50.730793-0.423345-68.299593-1.199477-9.807483-0.423345-17.498243-0.987804-22.860608-1.622821-3.245642-0.352787-5.785709-0.846689-7.69076-1.340591-9.948598-2.610625-10.72473-10.089713-10.724729-12.276993 0-5.22125 1.623-8.678564 19.403-27.376283 8.679-9.172466 20.814-21.308344 35.984-36.195963 20.109-19.756081 40.429-39.229932 48.473-46.850134V757.786812H504.485634v130.178461c7.337973 7.126 28.082 27.306 48.614 47.838 14.958 14.958 26.882 27.094 35.49 36.196 17.287 18.274 19.121 21.591 19.121 26.953 0 2.328-0.846689 10.019-11.500862 12.348-2.046166 .423-4.727348 .847-8.325777 1.199-6.067939 .635-14.675946 1.129-25.612347 1.623-20.108868 .635-47.485151 1.129-75.00255 1.129z m-76.9076-24.624544c16.863226 1.058 45.368 1.764 82.552 1.693 35.49-0.070557 64.207-0.917247 81.494-1.90505-16.863226-17.992145-49.531317-50.589678-81.282161-81.493833-32.597533 30.975-65.900641 63.784-82.763867 81.706z" fill="#543A35"/><path d="M318.496245 206.804h344.531937v441.40729s6.914628 158.543-172.23069 158.401c-169.267278-0.070557-172.23069-160.729828-172.23069-160.729828V206.803831z" fill="#543A35"/><path d="M503.145042 410.009l-21.167229-8.890236L586.332254 152.192c1.340591-3.598429 12.63-31.327499 39.653-42.898918 17.78-7.620203 37.96-6.561841 59.903 3.175 61.173 27.165 150.57 59.339 151.487 59.692l-7.761317 21.591c-0.917247-0.352787-91.089644-32.738648-153.039069-60.326603-15.804865-6.985186-29.704679-8.043547-41.417212-3.104527-19.121064 8.044-27.305726 29.775-27.376283 30.057l-0.211672 .494-104.424999 249.138z" fill="#543A35"/><path d="M358.361193 371.273s22.366706-9.454696 52.283 10.795c16.792669 5.786 40.006-29.210777 66.112 0 13.829 13.053 58.422 10.795 70.769 6.138 16.934-4.586233 31.116-8.466892 52.283 2.187 15.734 5.151 24.625-20.60277 24.625-29.845793-1.552263 202.994 0 270.658 0 270.658s0 129.191-118.39537 138.434C376.84724 775.003 359.208 669.661 357.726 634.311c-1.622821-35.41983 .635-263.038104 .635-263.038104z" fill="#543A35"/><path d="M358.149521 660.418h-2.116723c-7.055743 0-12.770895-5.715152-12.770895-12.770895v-220.139186c0-7.055743 5.715-12.770895 12.771-12.770895h2.116723c7.055743 0 12.771 5.715 12.771 12.771v220.139186c0 6.985-5.715152 12.771-12.770895 12.771zM360.054572 390.465h-1.834493c-5.997382 0-10.936402-4.93902-10.936402-10.936402v-34.714256c0-5.997382 4.939-10.936402 10.936-10.936402h1.834493c5.997382 0 10.936 4.939 10.936 10.936V379.59898c-0.070557 5.997-4.93902 10.866-10.936402 10.866z" fill="#543A35"/><path d="M899.325019 130.602c-2.963412 0-6.138497-0.141115-9.525253-0.493902l-0.56446-0.070557-0.564459-0.141115c-31.680287-6.420726-43.604493-27.164611-47.837939-38.947702-6.350169-17.639358-3.880659-37.818783 6.138-50.166334l0.28223-0.352787c15.804865-17.992145 32.95-26.247364 50.942-24.483429 32.315 3.175 53.13 38.454 54.047 39.936l-19.826638 11.571c-4.374561-7.40853-19.473851-27.023496-36.478192-28.646317-10.16027-0.987804-20.673327 4.586-31.256942 16.581-4.233446 5.362-6.279611 16.581-2.257838 27.87 3.175 8.749 11.007 20.038 30.199 24.131 14.676 1.341 26.247-1.763936 31.892-8.537449l17.639358 14.676c-5.574037 6.703-18.203817 17.075-42.828361 17.075z" fill="#543A35"/><path d="M133.141873 475.487m-45.297871 0a45.297871 45.298 0 1 0 90.596 0 45.298 45.298 0 1 0-90.595742 0Z" fill="#543A35"/></g></svg>