<svg width="24" height="24" viewBox="0 0 24 24" fill="none" xmlns="http://www.w3.org/2000/svg">
<path d="M5.84298 4.56801C7.47592 2.93508 9.69066 2.0177 12 2.0177C14.3093 2.0177 16.524 2.93508 18.157 4.56801C19.7899 6.20095 20.7073 8.41569 20.7073 10.725C20.7073 13.0343 19.7899 15.2491 18.157 16.882L16.97 18.056C16.0953 18.914 14.96 20.018 13.564 21.368C13.1444 21.7737 12.5836 22.0005 12 22.0005C11.4164 22.0005 10.8556 21.7737 10.436 21.368L6.94498 17.972C6.50565 17.5413 6.13832 17.178 5.84298 16.882C5.0344 16.0735 4.39299 15.1136 3.95538 14.0572C3.51778 13.0008 3.29254 11.8685 3.29254 10.725C3.29254 9.58154 3.51778 8.44927 3.95538 7.39284C4.39299 6.33642 5.0344 5.37654 5.84298 4.56801ZM17.096 5.62801C16.4266 4.95873 15.632 4.42784 14.7575 4.06565C13.883 3.70347 12.9457 3.51707 11.9991 3.51712C11.0526 3.51717 10.1153 3.70365 9.24082 4.06592C8.36633 4.4282 7.57177 4.95917 6.90248 5.62851C6.2332 6.29786 5.70231 7.09248 5.34012 7.967C4.97794 8.84152 4.79154 9.77881 4.79159 10.7254C4.79164 11.6719 4.97812 12.6092 5.34039 13.4837C5.70267 14.3582 6.23364 15.1527 6.90298 15.822L8.39098 17.29C9.20965 18.0907 10.239 19.0907 11.479 20.29C11.6188 20.425 11.8056 20.5005 12 20.5005C12.1944 20.5005 12.3812 20.425 12.521 20.29L15.916 16.99C16.386 16.5293 16.7793 16.14 17.096 15.822C18.4475 14.4704 19.2067 12.6374 19.2067 10.726C19.2067 8.81466 18.4475 6.98158 17.096 5.63001M12 7.99901C12.3942 7.99901 12.7846 8.07666 13.1488 8.22753C13.513 8.37839 13.844 8.59952 14.1227 8.87828C14.4015 9.15704 14.6226 9.48798 14.7735 9.8522C14.9243 10.2164 15.002 10.6068 15.002 11.001C15.002 11.3952 14.9243 11.7856 14.7735 12.1498C14.6226 12.514 14.4015 12.845 14.1227 13.1237C13.844 13.4025 13.513 13.6236 13.1488 13.7745C12.7846 13.9254 12.3942 14.003 12 14.003C11.2134 13.9887 10.4639 13.6661 9.91275 13.1048C9.36158 12.5435 9.05277 11.7882 9.05277 11.0015C9.05277 10.2148 9.36158 9.45957 9.91275 8.89824C10.4639 8.33691 11.2134 8.01437 12 8.00001M12 9.50001C11.6016 9.50001 11.2196 9.65826 10.9379 9.93994C10.6562 10.2216 10.498 10.6037 10.498 11.002C10.498 11.4004 10.6562 11.7824 10.9379 12.0641C11.2196 12.3458 11.6016 12.504 12 12.504C12.3915 12.4939 12.7636 12.3313 13.0369 12.0508C13.3103 11.7703 13.4632 11.3942 13.4632 11.0025C13.4632 10.6109 13.3103 10.2347 13.0369 9.95423C12.7636 9.67375 12.3915 9.51112 12 9.50101" fill="#543A35"/>
</svg>
