<svg width="28" height="34" viewBox="0 0 28 34" fill="none" xmlns="http://www.w3.org/2000/svg">
<g clip-path="url(#clip0_66_5471)">
<path d="M19.64 34H4.64763C4.08409 34.0005 3.52601 33.8906 3.00535 33.6766C2.48469 33.4627 2.01169 33.149 1.61346 32.7534L0 31.1667H24.2733L22.6741 32.7534C22.2759 33.149 21.8029 33.4627 21.2823 33.6766C20.7616 33.8906 20.2035 34.0005 19.64 34Z" fill="#F7F4EF"/>
<path d="M27.5431 17.9138C27.3304 17.6282 27.0527 17.3965 26.7326 17.2377C26.4125 17.0789 26.059 16.9975 25.7012 17H24.152C24.229 16.2942 24.2695 15.5849 24.2733 14.875H0C0 23.7221 5.43294 29.75 12.1367 29.75C13.8155 29.7391 15.4699 29.351 16.976 28.615C18.482 27.8789 19.8004 26.8139 20.8322 25.5C22.4417 25.401 23.9821 24.816 25.2468 23.8233C26.5114 22.8306 27.4398 21.4779 27.9072 19.9467C28.0125 19.6033 28.0344 19.2402 27.9711 18.8868C27.9078 18.5335 27.7612 18.2001 27.5431 17.9138ZM26.5365 19.5217C26.214 20.5792 25.6222 21.5364 24.818 22.3007C24.0139 23.0651 23.0247 23.6107 21.9459 23.885C22.9409 22.1968 23.6205 20.3444 23.9521 18.4167H25.7012C25.8362 18.4168 25.9693 18.4482 26.09 18.5082C26.2108 18.5682 26.3158 18.6552 26.3968 18.7623C26.4778 18.8695 26.5326 18.9939 26.5568 19.1257C26.5811 19.2574 26.5741 19.393 26.5365 19.5217Z" fill="#F7F4EF"/>
<path d="M18.3906 13.4584C16.4987 12.4738 15.5778 10.03 17.6339 7.23919C19.3758 4.87336 18.1336 3.44961 18.0836 3.39294C17.9562 3.25469 17.8892 3.07198 17.8972 2.88479C17.9052 2.69761 17.9876 2.52121 18.1265 2.39419C18.2599 2.26441 18.4393 2.19171 18.6262 2.19171C18.8131 2.19171 18.9925 2.26441 19.126 2.39419C19.8399 3.17336 20.7537 5.36211 18.7833 8.06086C17.3554 10.0442 17.8338 11.5388 19.0546 12.1904C19.2221 12.2778 19.3478 12.4277 19.404 12.607C19.4602 12.7863 19.4424 12.9804 19.3544 13.1467C19.312 13.2302 19.2534 13.3046 19.1819 13.3655C19.1105 13.4264 19.0275 13.4727 18.9379 13.5017C18.8483 13.5307 18.7538 13.5418 18.6599 13.5343C18.566 13.5269 18.4744 13.5011 18.3906 13.4584Z" fill="#F7F4EF"/>
<path d="M6.21111 13.3592C4.32636 12.3817 3.39826 9.91668 5.45435 7.14001C7.19632 4.77418 5.9541 3.35043 5.90412 3.29376C5.77669 3.15551 5.70964 2.97279 5.71767 2.78561C5.7257 2.59843 5.80814 2.42202 5.94696 2.29501C6.08041 2.16523 6.25983 2.09253 6.4467 2.09253C6.63357 2.09253 6.81299 2.16523 6.94645 2.29501C7.66037 3.07418 8.57419 5.26293 6.60377 7.96168C5.17592 9.94501 5.65425 11.4396 6.87506 12.0913C7.04259 12.1787 7.16828 12.3285 7.22451 12.5078C7.28074 12.6871 7.26289 12.8812 7.1749 13.0475C7.13254 13.131 7.07392 13.2054 7.00244 13.2663C6.93096 13.3273 6.84803 13.3735 6.75843 13.4025C6.66884 13.4315 6.57434 13.4426 6.4804 13.4351C6.38647 13.4277 6.29494 13.4019 6.21111 13.3592Z" fill="#F7F4EF"/>
<path d="M12.0938 13.2531C11.1594 12.2811 10.591 11.0192 10.4844 9.68008C10.3777 8.34093 10.7394 7.00622 11.5084 5.90063C13.5002 2.79104 12.101 1.26813 12.0438 1.20438C11.9109 1.07166 11.8362 0.892133 11.8362 0.705002C11.8362 0.51787 11.9109 0.338342 12.0438 0.205627C12.177 0.0779566 12.3549 0.0065918 12.54 0.0065918C12.7252 0.0065918 12.9031 0.0779566 13.0362 0.205627C13.1361 0.29771 15.335 2.54313 12.7007 6.65854C12.1021 7.4896 11.8126 8.50095 11.8816 9.52012C11.9506 10.5393 12.3738 11.5031 13.079 12.2473C13.197 12.382 13.2594 12.5559 13.2538 12.7342C13.2482 12.9126 13.1749 13.0822 13.0486 13.2093C12.9224 13.3364 12.7524 13.4115 12.5727 13.4196C12.3931 13.4277 12.2169 13.3683 12.0795 13.2531H12.0938Z" fill="#F7F4EF"/>
</g>
<defs>
<clipPath id="clip0_66_5471">
<rect width="28" height="34" fill="white"/>
</clipPath>
</defs>
</svg>
