<svg width="60" height="60" viewBox="0 0 60 60" fill="none" xmlns="http://www.w3.org/2000/svg">
<rect width="60" height="60" rx="15" fill="#E8DACD"/>
<path fill-rule="evenodd" clip-rule="evenodd" d="M40.135 29.0056C40.6842 29.5548 40.6842 30.4452 40.135 30.9944L31.6975 39.4319C31.1483 39.981 30.2579 39.981 29.7088 39.4319C29.1596 38.8827 29.1596 37.9923 29.7088 37.4431L35.7456 31.4062L20.8594 31.4063C20.0827 31.4063 19.4531 30.7767 19.4531 30C19.4531 29.2233 20.0827 28.5938 20.8594 28.5938L35.7456 28.5938L29.7088 22.5569C29.1596 22.0077 29.1596 21.1173 29.7088 20.5681C30.2579 20.019 31.1483 20.019 31.6975 20.5681L40.135 29.0056Z" fill="#543A35"/>
</svg>
