<svg width="40" height="40" viewBox="0 0 40 40" fill="none" xmlns="http://www.w3.org/2000/svg">
<rect width="40" height="40" rx="20" fill="#F7F4EF"/>
<path d="M20 10C18.1435 10 16.363 10.7375 15.0502 12.0503C13.7375 13.363 13 15.1435 13 17V20.528C13.0001 20.6831 12.9642 20.8362 12.895 20.975L11.178 24.408C11.0941 24.5757 11.0545 24.7621 11.0629 24.9494C11.0714 25.1368 11.1275 25.3188 11.2261 25.4783C11.3247 25.6379 11.4625 25.7695 11.6263 25.8608C11.7901 25.9521 11.9745 26 12.162 26H27.838C28.0255 26 28.2099 25.9521 28.3737 25.8608C28.5375 25.7695 28.6753 25.6379 28.7738 25.4783C28.8724 25.3188 28.9286 25.1368 28.937 24.9494C28.9455 24.7621 28.9059 24.5757 28.822 24.408L27.106 20.975C27.0365 20.8362 27.0002 20.6832 27 20.528V17C27 15.1435 26.2625 13.363 24.9497 12.0503C23.637 10.7375 21.8565 10 20 10ZM20 29C19.3793 29.0003 18.7739 28.8081 18.267 28.4499C17.7602 28.0917 17.3769 27.5852 17.17 27H22.83C22.6231 27.5852 22.2398 28.0917 21.733 28.4499C21.2261 28.8081 20.6206 29.0003 20 29Z" fill="#543A35"/>
</svg>
