<svg width="430" height="177" viewBox="0 0 430 177" fill="none" xmlns="http://www.w3.org/2000/svg">
<path d="M64.418 97.998C60.718 93.398 57.118 88.9981 53.518 84.5981C51.418 81.9981 49.218 79.498 46.918 76.998C45.018 74.898 43.118 72.6981 41.118 70.5981C38.418 67.8981 36.318 64.798 34.418 61.498C33.818 60.498 33.218 59.5981 32.618 58.6981C29.918 54.5981 27.218 50.5981 24.418 46.498C23.518 45.198 22.618 44.0981 21.318 42.498C21.318 43.398 21.218 43.8981 21.318 44.2981C22.118 48.2981 23.018 52.1981 23.918 56.1981C25.318 62.3981 26.118 68.4981 25.218 74.8981C24.318 81.0981 21.618 86.3981 17.918 91.3981C14.718 95.7981 11.318 99.998 8.21797 104.498C5.51797 108.398 3.11797 112.498 0.717968 116.598C-0.38203 118.398 -0.982021 120.398 -1.88202 122.298C-3.28202 125.098 -4.68203 127.898 -5.98203 130.798C-6.38203 131.698 -6.68203 132.698 -7.08203 133.898C-7.88203 132.998 -7.88202 131.798 -7.88202 130.798C-7.78202 128.198 -8.38203 125.698 -8.98203 123.198C-11.182 114.298 -13.982 105.598 -16.782 96.8981C-18.082 92.5981 -19.182 88.0981 -19.182 83.498C-19.182 82.0981 -19.182 80.6981 -18.882 79.2981C-17.882 74.4981 -16.882 69.6981 -14.782 65.2981C-14.382 64.4981 -14.582 63.7981 -14.882 63.0981C-17.182 57.4981 -17.282 51.7981 -15.682 46.0981C-13.682 38.9981 -7.38202 33.8981 -0.0820198 33.1981C0.0179787 33.1981 0.217972 33.0981 0.517971 33.0981C0.61797 30.8981 1.71798 28.998 2.81797 26.998C3.81797 25.298 4.31798 23.3981 4.41798 21.2981C3.21798 20.7981 1.91798 20.1981 0.617977 19.5981C-0.382023 27.0981 -5.38202 31.0981 -11.782 33.5981C-16.282 35.3981 -20.982 35.898 -25.682 33.998C-36.282 29.798 -39.482 15.8981 -31.382 7.89807C-30.782 7.29807 -30.182 6.69808 -29.582 6.09808C-29.782 5.89809 -29.882 5.69806 -29.982 5.69806C-37.182 2.59806 -41.882 -3.00193 -44.682 -10.1019C-46.482 -14.6019 -46.582 -19.3019 -44.082 -23.7019C-41.582 -28.0019 -37.782 -29.9019 -32.882 -29.2019C-29.182 -28.7019 -25.982 -27.0019 -23.082 -24.7019C-21.482 -23.4019 -19.982 -22.1019 -18.182 -20.5019C-18.482 -21.202 -18.582 -21.702 -18.782 -22.0019C-19.982 -24.0019 -21.082 -26.0019 -22.282 -27.9019C-24.382 -31.5019 -25.782 -35.4019 -26.682 -39.4019C-27.682 -43.7019 -29.282 -47.8019 -32.082 -51.3019C-33.782 -53.5019 -34.882 -56.1019 -35.882 -58.7019C-36.582 -60.6019 -37.682 -62.3019 -38.582 -64.1019C-39.582 -66.2019 -40.682 -68.2019 -41.482 -70.3019C-42.682 -73.6019 -41.382 -76.5019 -39.382 -79.0019C-38.182 -80.5019 -36.782 -81.9019 -35.482 -83.3019C-34.482 -84.4019 -33.282 -84.2019 -32.782 -82.7019C-32.182 -81.1019 -31.582 -79.4019 -31.482 -77.7019C-31.182 -73.3019 -30.082 -69.2019 -27.982 -65.3019C-26.582 -62.7019 -25.882 -59.8019 -25.582 -56.9019C-25.382 -54.8019 -24.882 -52.8019 -23.482 -50.9019C-21.582 -48.2019 -20.082 -45.2019 -20.182 -41.6019C-20.182 -40.3019 -19.282 -38.8019 -18.582 -37.6019C-16.482 -34.2019 -14.482 -30.8019 -13.182 -27.0019C-12.782 -25.8019 -12.482 -24.6019 -11.782 -23.5019C-11.682 -24.702 -11.582 -25.9019 -11.382 -27.1019C-10.782 -30.9019 -9.68203 -34.4019 -6.98203 -37.3019C-2.28203 -42.5019 4.71797 -42.9019 10.018 -38.2019C12.618 -36.0019 14.518 -33.3019 15.518 -29.7019C16.118 -30.2019 16.618 -30.5019 17.018 -30.9019C22.718 -36.0019 29.218 -37.7019 36.618 -36.2019C42.018 -35.2019 46.818 -30.3019 47.718 -24.9019C49.018 -18.0019 46.918 -12.1019 42.318 -6.90192C41.718 -6.20192 41.018 -5.60194 40.218 -4.80194C41.718 -4.40194 43.018 -4.00193 44.418 -3.60193C52.318 -1.20193 58.818 3.09806 63.218 10.1981C65.218 13.2981 66.318 16.7981 67.018 20.2981C67.918 24.6981 66.318 28.4981 62.618 30.8981C57.718 34.0981 52.318 36.4981 46.218 36.3981C43.718 36.2981 41.218 35.5981 38.918 34.8981C36.618 34.1981 34.318 33.1981 32.018 32.2981C26.518 30.2981 22.518 26.4981 19.218 21.8981C18.918 21.4981 18.718 20.9981 18.418 20.6981C18.218 20.4981 17.818 20.6981 17.218 20.6981C19.718 25.3981 21.418 30.3981 26.018 33.1981C28.618 34.7981 31.418 35.9981 34.218 37.2981C36.718 38.3981 39.418 38.8981 42.118 39.0981C44.918 39.2981 47.618 39.7981 50.418 40.0981C52.618 40.2981 54.718 39.8981 56.618 38.6981C62.218 35.3981 67.918 32.0981 73.518 28.7981C76.818 26.7981 79.318 23.998 81.618 20.998C84.118 17.598 86.618 14.298 89.218 10.998C93.518 5.79805 99.218 2.89809 105.718 1.2981C107.718 0.798096 109.818 0.398071 111.818 -0.101929C114.418 -0.801926 116.718 -1.90192 118.618 -3.90192C121.118 -6.60191 123.718 -9.20194 126.418 -11.8019C128.318 -13.7019 129.918 -15.8019 130.418 -18.6019C130.618 -19.7019 130.618 -20.8019 130.718 -21.9019C130.718 -22.3019 130.718 -22.7019 130.818 -23.3019C132.218 -22.3019 132.418 -21.0019 132.618 -19.9019C132.918 -17.6019 133.018 -15.2019 133.318 -12.8019C133.518 -10.9019 133.618 -9.00194 134.318 -7.30194C135.918 -3.40194 137.018 0.598068 136.818 4.89807C136.718 6.69807 136.918 8.5981 137.318 10.2981C138.618 15.5981 138.318 20.798 136.918 25.998C136.418 27.798 135.918 29.4981 135.418 31.1981C134.918 32.8981 134.418 34.6981 133.818 36.3981C133.318 37.7981 132.718 39.198 132.118 40.998C133.218 42.498 132.618 44.198 131.718 45.998C131.218 46.998 130.518 47.8981 129.918 48.8981C128.818 50.6981 127.518 52.3981 126.618 54.1981C123.818 59.6981 119.318 63.3981 114.018 66.3981C110.018 68.5981 105.918 70.0981 101.218 69.998C101.518 72.898 102.118 75.5981 102.018 78.2981C101.918 80.9981 101.118 83.5981 100.618 86.2981C100.618 86.2981 100.818 86.3981 100.918 86.2981C104.618 83.5981 108.918 82.3981 113.418 81.8981C116.718 81.4981 119.918 80.9981 123.218 80.5981C125.718 80.2981 128.218 80.4981 130.718 81.1981C133.618 81.9981 136.018 83.6981 137.618 86.2981C141.818 92.7981 141.718 99.2981 137.618 105.798C133.618 112.198 127.818 115.698 120.518 117.098C116.518 117.798 112.518 118.498 108.518 118.998C103.918 119.598 99.318 119.398 95.318 116.998C93.018 115.598 90.618 114.698 88.018 114.098C85.018 113.398 82.318 111.898 79.918 109.898C78.818 108.998 77.518 108.198 76.118 107.198C76.318 108.498 76.418 109.398 76.618 110.298C78.518 118.498 77.618 126.498 74.318 134.198C73.218 136.898 71.418 139.098 68.818 140.598C66.118 142.098 63.318 141.798 60.518 140.698C54.718 138.398 51.118 134.098 49.018 128.398C46.918 122.698 46.618 116.798 49.018 110.998C51.718 104.598 56.218 100.298 63.018 98.5981C63.818 98.2981 64.018 98.198 64.418 97.998ZM20.218 86.8981C19.718 86.2981 19.118 85.7981 18.818 85.1981C18.018 82.9981 16.618 81.3981 14.718 80.0981C12.218 78.1981 9.31797 76.8981 7.71797 74.0981C6.31797 74.3981 5.01797 74.7981 3.71797 75.0981C3.41797 75.6981 3.11797 76.2981 2.81797 76.8981C1.51797 78.7981 1.51797 80.8981 1.81797 83.0981C2.31797 85.7981 3.91797 87.7981 5.51797 89.7981C7.01797 91.5981 8.41797 93.2981 9.81797 95.1981C10.418 95.9981 10.918 96.898 11.618 97.998C13.218 95.998 14.718 93.9981 16.218 92.0981C17.518 90.2981 18.818 88.5981 20.218 86.8981C20.718 85.8981 21.018 84.8981 21.618 83.8981C22.418 82.4981 22.618 81.1981 22.018 79.6981C21.718 78.9981 21.518 78.0981 21.218 77.3981C21.318 77.3981 21.418 77.2981 21.618 77.2981C22.118 78.0981 22.518 78.8981 23.318 80.0981C23.818 78.1981 24.118 76.6981 24.518 75.1981C24.918 73.5981 24.518 72.3981 23.418 71.1981C21.318 69.0981 19.318 66.8981 18.118 63.6981C16.018 68.0981 13.118 71.3981 8.61798 73.6981C9.51798 74.4981 10.018 75.1981 10.718 75.6981C12.418 76.9981 14.018 78.1981 15.718 79.3981C17.818 80.8981 19.118 82.7981 19.718 85.2981C19.718 85.8981 20.018 86.3981 20.218 86.8981ZM-11.882 -10.502C-11.482 -9.10195 -9.48202 -5.50191 -7.88202 -3.7019C-7.98202 -4.50191 -7.98203 -5.10195 -8.18203 -5.50195C-9.38203 -7.20195 -10.682 -8.80196 -11.882 -10.502C-12.182 -11.202 -12.382 -12.0019 -12.682 -12.8019C-12.582 -12.8019 -12.482 -12.9019 -12.382 -12.9019C-10.782 -10.7019 -9.18203 -8.50191 -7.48203 -6.2019C-6.98203 -7.3019 -6.58202 -8.20195 -6.28202 -9.00195C-7.28202 -10.702 -8.28202 -12.402 -9.28202 -14.002C-9.18203 -14.102 -9.08203 -14.1019 -8.98203 -14.2019C-7.98203 -12.8019 -6.98202 -11.502 -5.88202 -10.002C-5.28202 -11.102 -5.98202 -11.502 -6.38202 -12.002C-9.68202 -15.902 -12.282 -20.1019 -13.282 -25.2019C-13.482 -26.1019 -13.882 -26.9019 -14.082 -27.8019C-15.282 -31.5019 -17.482 -34.702 -19.382 -38.0019C-20.082 -39.202 -20.782 -40.7019 -20.882 -42.1019C-21.082 -46.1019 -22.882 -49.402 -25.382 -52.5019C-26.282 -53.6019 -27.282 -54.6019 -27.482 -56.3019C-26.982 -55.8019 -26.582 -55.5019 -26.082 -55.1019C-26.282 -59.4019 -27.382 -63.1019 -29.182 -66.6019C-30.982 -70.1019 -31.982 -73.9019 -31.982 -77.9019C-31.982 -78.4019 -32.182 -79.0019 -32.282 -79.8019C-33.482 -78.5019 -33.782 -77.4019 -33.382 -75.9019C-32.582 -73.0019 -32.182 -70.1019 -31.582 -67.1019C-33.482 -69.9019 -33.982 -73.1019 -34.482 -76.7019C-36.282 -74.4019 -37.682 -72.2019 -40.382 -71.6019C-39.882 -69.2019 -38.982 -67.1019 -37.582 -65.4019C-36.082 -63.4019 -34.982 -61.3019 -34.282 -58.9019C-33.582 -56.5019 -32.482 -54.4019 -30.982 -52.4019C-28.082 -48.7019 -26.482 -44.6019 -25.382 -40.1019C-24.382 -35.8019 -22.782 -31.7019 -20.582 -27.9019C-18.782 -24.8019 -17.182 -21.602 -15.682 -18.502C-14.882 -16.902 -14.482 -15.2019 -13.782 -13.6019C-13.182 -12.4019 -12.482 -11.502 -11.882 -10.502ZM100.518 88.498C100.118 88.698 99.718 88.7981 99.418 89.0981C97.318 91.1981 95.318 93.2981 93.318 95.5981C92.518 96.4981 92.118 97.7981 91.518 98.8981C94.218 96.9981 96.418 94.6981 99.218 93.1981C98.818 93.7981 98.318 94.2981 97.818 94.6981C95.718 96.6981 93.518 98.6981 91.418 100.698C90.118 101.898 89.718 103.398 90.318 105.198C94.718 100.198 97.218 98.198 98.718 97.998C96.518 100.198 94.118 102.498 91.718 104.898C90.518 106.198 89.718 107.598 91.118 109.398C92.218 108.898 92.518 107.498 94.118 107.198C93.418 107.998 92.918 108.698 92.318 109.298C91.518 109.998 91.518 110.698 92.018 111.698C92.918 113.298 94.118 114.598 95.818 115.498C99.718 117.598 103.818 118.298 108.218 117.698C112.918 116.998 117.618 116.298 122.218 115.398C130.218 113.898 135.718 109.098 139.018 101.698C139.918 99.5981 140.318 97.3981 140.318 95.1981C140.318 93.9981 140.218 92.6981 139.518 91.6981C138.518 91.8981 137.718 91.9981 137.118 92.0981C136.218 93.1981 135.418 94.0981 134.618 95.0981C134.418 94.9981 134.318 94.8981 134.118 94.7981C134.418 94.4981 134.718 94.0981 135.018 93.7981C135.918 92.5981 136.518 91.4981 135.318 90.0981C134.418 88.9981 134.718 87.6981 135.618 86.5981C135.918 86.1981 136.318 85.8981 136.518 85.7981C135.918 84.2981 134.818 84.198 133.918 83.998C131.418 83.5981 128.818 83.1981 126.318 82.8981C125.918 82.7981 125.418 82.6981 125.018 82.6981C125.018 82.5981 125.018 82.3981 125.118 82.2981C127.718 82.4981 130.318 82.698 133.418 82.998C130.918 81.698 128.618 81.3981 126.318 81.3981C120.418 81.4981 114.718 82.7981 108.918 83.7981C107.818 83.9981 106.818 84.498 105.818 84.998C103.818 85.698 101.818 86.698 100.518 88.498ZM97.718 7.89807C97.918 6.89807 98.018 6.39807 98.218 5.39807C96.718 6.49807 95.618 7.19808 94.518 8.09808C92.118 9.89809 90.818 12.2981 90.418 15.2981C89.918 18.8981 88.818 22.3981 87.918 25.8981C87.818 26.4981 87.418 26.998 87.218 27.498C87.118 27.498 86.918 27.3981 86.818 27.3981C88.218 22.6981 89.518 17.998 89.818 12.998C88.018 15.098 86.318 17.1981 84.818 19.3981C81.118 24.7981 76.418 29.0981 70.718 32.1981C67.818 33.7981 64.918 35.4981 62.118 37.3981C60.218 38.6981 58.618 40.498 56.918 41.998C56.818 41.998 56.818 41.8981 56.718 41.8981C57.318 40.9981 57.818 40.0981 58.418 39.1981C55.418 41.2981 52.018 41.1981 48.718 40.6981C45.818 40.2981 42.918 39.898 40.018 39.498C39.418 39.398 38.818 39.2981 38.218 39.0981C34.118 38.0981 30.318 36.2981 26.718 34.1981C26.118 33.8981 25.618 33.5981 25.018 33.2981C24.918 33.3981 24.818 33.4981 24.718 33.5981C25.818 35.1981 26.818 36.7981 28.018 38.3981C28.318 38.7981 28.918 39.0981 29.418 39.2981C37.518 42.4981 45.018 46.6981 52.318 51.3981C54.218 52.5981 56.118 53.8981 58.218 55.1981C58.018 54.2981 57.918 53.7981 57.818 53.1981C58.518 53.7981 59.118 54.5981 59.618 55.2981C60.518 56.7981 61.818 57.7981 63.218 58.6981C69.318 62.7981 76.018 65.0981 83.218 66.3981C83.818 66.4981 84.518 66.5981 85.318 66.6981C84.718 65.8981 84.318 65.2981 83.818 64.7981C86.018 66.5981 88.418 67.7981 91.518 67.2981C89.918 66.2981 88.418 65.3981 87.318 64.0981C89.318 64.9981 91.218 65.998 93.118 66.998C93.818 67.298 94.518 67.6981 95.218 67.6981C97.818 67.9981 100.518 68.1981 103.118 68.2981C104.918 68.2981 106.818 68.1981 108.718 67.1981C107.218 66.9981 106.018 66.7981 104.818 66.5981C105.118 66.2981 105.318 66.2981 105.518 66.2981C108.118 66.4981 110.818 66.5981 113.118 65.498C117.118 63.698 120.618 61.1981 123.518 57.8981C125.118 56.0981 126.218 53.9981 127.418 51.6981C126.018 52.1981 124.918 52.5981 123.718 53.0981C123.818 52.7981 123.818 52.6981 123.818 52.6981C124.318 52.3981 124.918 52.0981 125.518 51.7981C128.918 50.2981 130.718 47.2981 132.218 44.0981C132.418 43.5981 132.618 42.998 132.618 42.498C132.718 41.398 132.018 40.898 131.018 41.498C129.718 42.298 128.518 43.2981 127.218 44.0981C126.618 44.4981 126.018 44.7981 125.418 45.0981C126.918 43.4981 128.618 41.9981 130.418 40.8981C132.018 39.8981 133.018 38.5981 133.518 36.7981C134.918 31.7981 136.218 26.6981 137.618 21.6981C138.418 18.8981 138.318 16.0981 137.818 13.1981C137.018 9.19806 136.518 5.19808 136.618 1.09808C136.718 -0.901917 136.318 -2.80194 135.218 -4.80194C135.018 -3.90194 134.918 -3.30192 134.718 -2.40192C134.318 -5.40192 133.818 -8.10191 133.618 -10.9019C133.318 -13.7019 133.318 -16.5019 133.118 -19.4019C133.018 -19.4019 132.818 -19.4019 132.718 -19.4019C133.118 -16.2019 132.318 -13.2019 131.318 -10.2019C130.618 -8.00191 130.418 -5.70192 130.518 -3.40192C130.718 0.0980835 130.518 3.59807 129.318 6.89807C127.418 12.1981 126.318 17.5981 125.318 23.0981C124.518 27.5981 122.618 31.698 119.918 35.498C119.718 35.798 119.418 36.1981 119.018 36.7981C123.618 34.5981 126.418 31.4981 127.418 26.8981C127.718 25.3981 128.218 23.6981 129.118 22.3981C131.318 18.8981 133.518 15.4981 135.018 11.6981C135.018 12.6981 134.918 13.7981 134.518 14.6981C133.718 16.5981 132.818 18.5981 131.718 20.2981C130.118 22.6981 128.918 25.0981 128.318 27.8981C128.018 29.0981 127.518 30.2981 127.018 31.3981C125.218 34.8981 121.918 36.5981 118.618 38.1981C117.718 38.5981 116.918 39.0981 116.118 39.6981C113.118 42.3981 109.818 44.7981 106.218 46.6981C105.818 46.8981 105.518 47.1981 105.118 47.3981C110.918 50.0981 116.818 50.8981 123.018 49.5981C122.518 49.9981 122.018 50.398 121.418 50.498C117.218 51.498 113.018 51.6981 108.818 50.0981C107.418 49.5981 106.018 49.0981 104.618 48.6981C103.718 48.3981 102.918 48.3981 102.018 48.7981C97.118 50.8981 91.918 51.9981 86.618 52.3981C85.618 52.4981 84.718 52.498 83.718 52.498C84.018 52.898 84.418 52.9981 84.718 53.0981C86.018 53.2981 87.318 53.5981 88.618 53.7981C91.318 54.1981 93.918 55.0981 96.218 56.5981C97.218 57.2981 98.218 57.898 99.218 58.498C101.218 59.798 103.418 60.6981 105.818 60.7981C108.018 60.8981 110.218 61.0981 112.418 61.1981C112.418 61.1981 112.418 61.398 112.318 61.498C112.018 61.5981 111.718 61.7981 111.318 61.7981C107.018 62.3981 102.818 61.9981 99.018 59.6981C98.018 59.0981 97.018 58.4981 96.018 57.7981C93.718 56.2981 91.218 55.2981 88.418 54.8981C87.218 54.6981 85.918 54.4981 84.718 54.1981C83.918 53.9981 83.018 53.7981 82.418 53.2981C81.418 52.3981 80.218 52.198 78.918 51.998C76.018 51.5981 73.118 51.0981 70.218 50.5981C68.618 50.3981 67.118 50.0981 65.318 49.8981C66.018 51.5981 67.318 52.3981 68.618 53.0981C71.718 54.8981 74.218 57.4981 76.618 60.0981C76.918 60.3981 77.018 60.7981 77.218 61.1981C76.618 60.9981 76.118 60.6981 75.718 60.2981C72.918 57.6981 70.118 55.0981 66.818 52.998C65.918 52.398 65.218 51.4981 64.618 50.5981C64.118 49.8981 63.618 49.4981 62.818 49.2981C60.618 48.7981 58.418 48.2981 56.318 47.5981C47.118 44.1981 37.918 40.6981 28.718 37.1981C28.318 37.0981 28.018 36.7981 27.618 36.5981C28.518 36.4981 29.318 36.5981 30.118 36.8981C35.018 38.6981 39.818 40.3981 44.718 42.1981C50.518 44.2981 56.318 46.6981 62.418 48.0981C63.918 48.3981 65.018 48.0981 66.018 47.0981C66.618 46.4981 67.118 45.698 67.718 44.998C68.718 43.698 69.618 42.1981 70.918 41.1981C74.018 38.8981 76.418 36.098 78.618 32.998C78.818 32.698 79.218 32.3981 79.518 32.0981C79.418 32.9981 79.118 33.798 78.718 34.498C77.018 36.898 75.218 39.198 72.918 40.998C71.818 41.898 70.718 42.7981 69.918 43.7981C68.618 45.3981 67.418 47.0981 66.118 48.7981C70.818 49.4981 75.518 50.298 80.318 50.998C80.918 51.0981 81.618 50.8981 82.118 50.6981C84.918 49.2981 87.218 47.2981 88.618 44.3981C89.418 42.7981 90.118 41.1981 90.718 39.5981C92.118 35.9981 93.518 32.2981 95.918 29.0981C98.218 26.0981 99.318 22.5981 99.818 18.8981C100.118 16.9981 100.618 15.0981 101.218 13.1981C101.418 12.3981 102.018 11.698 102.418 10.998C102.718 11.398 102.718 11.5981 102.718 11.6981C101.618 14.4981 101.118 17.2981 100.818 20.1981C100.418 23.6981 99.018 26.8981 97.018 29.7981C95.518 31.9981 94.318 34.3981 93.118 36.6981C92.218 38.3981 91.618 40.2981 90.918 42.0981C89.518 45.3981 87.618 48.1981 84.518 50.1981C84.318 50.2981 84.218 50.4981 83.918 50.8981C84.418 50.9981 84.718 50.998 84.918 50.998C90.218 50.998 95.318 49.7981 100.318 48.0981C102.318 47.3981 103.518 45.9981 104.518 44.1981C105.818 41.6981 105.718 39.0981 105.318 36.3981C104.618 31.4981 105.418 26.7981 106.718 22.0981C106.918 21.5981 107.218 21.0981 107.418 20.5981C107.618 20.8981 107.618 21.0981 107.618 21.2981C106.718 26.2981 105.618 31.2981 106.418 36.3981C106.918 39.4981 106.818 42.4981 104.918 45.2981C104.918 45.2981 105.018 45.4981 105.118 45.6981C105.518 45.4981 106.018 45.2981 106.418 45.0981C108.718 43.4981 111.018 41.8981 113.318 40.2981C116.318 38.1981 117.918 35.1981 118.218 31.6981C118.418 29.5981 118.218 27.3981 118.018 25.1981C117.618 21.4981 117.318 17.8981 118.118 14.1981C119.018 10.0981 119.818 5.99807 120.618 1.89807C120.718 1.59807 120.918 1.29805 121.018 0.998047C121.318 1.49805 121.318 1.89809 121.318 2.2981C121.218 6.1981 120.618 9.89806 119.618 13.6981C118.718 16.8981 118.618 20.198 119.018 23.498C119.318 25.698 119.518 27.8981 119.618 30.1981C119.618 31.5981 119.318 32.9981 119.018 34.7981C119.418 34.2981 119.618 34.0981 119.818 33.8981C122.418 30.2981 123.918 26.1981 124.718 21.7981C125.618 16.8981 126.618 12.0981 128.218 7.39807C129.318 4.09807 130.018 0.698082 129.718 -2.90192C129.418 -6.30192 130.018 -9.60191 131.218 -12.7019C131.618 -13.8019 131.818 -14.902 132.118 -16.002C130.218 -13.102 127.518 -11.1019 125.118 -8.7019C121.918 -5.60191 118.918 -2.40195 117.718 1.99805C117.718 2.19804 117.518 2.29805 117.418 2.49805C117.318 2.49805 117.218 2.49807 117.218 2.39807C117.518 1.19807 117.818 -0.00195312 118.318 -1.50195C116.718 -0.501953 115.418 0.198059 114.318 1.19806C113.318 2.09806 112.618 3.39809 111.818 4.59808C111.118 5.79808 110.518 6.99806 109.918 8.19806C109.818 8.09806 109.618 8.09805 109.518 7.99805C110.118 6.69804 110.618 5.49809 111.218 4.2981C111.818 3.0981 112.618 1.99809 113.518 0.598083C110.918 1.19808 108.718 1.6981 106.618 2.2981C106.018 2.49809 105.418 2.99807 104.918 3.39807C104.018 4.29807 103.218 5.19806 102.318 6.19806C102.218 6.09806 102.118 6.09805 102.118 5.99805C102.618 5.19804 103.118 4.29807 103.618 3.39807C100.518 3.69807 99.318 5.69807 97.718 7.89807ZM19.718 19.7981C22.518 23.5981 25.418 27.1981 29.418 29.2981C34.318 31.8981 39.518 33.7981 44.918 34.7981C47.218 35.1981 49.518 35.0981 51.718 34.3981C54.418 33.4981 57.118 32.4981 59.718 31.3981C61.518 30.6981 63.118 29.498 64.418 27.998C67.018 25.098 67.218 22.0981 65.118 18.8981C63.218 16.0981 61.018 13.5981 58.518 11.3981C58.218 11.0981 57.918 10.798 57.618 10.498C60.918 12.098 63.018 14.9981 65.518 17.5981C65.018 15.0981 64.218 12.7981 62.918 10.5981C60.718 6.89809 57.618 4.0981 54.118 1.7981C50.018 -1.00191 45.518 -3.00191 40.418 -3.7019C39.218 -3.8019 38.418 -3.60195 37.718 -2.50195C39.518 -2.10195 41.318 -1.80192 43.018 -1.40192C45.718 -0.801918 46.518 -0.301926 47.818 0.898071C47.218 0.698074 46.818 0.49807 46.518 0.398071C43.518 -0.301926 40.518 -1.00195 37.518 -1.50195C35.418 -1.80196 32.718 -0.901901 31.618 0.298096C36.018 0.398094 40.318 0.898094 44.318 2.7981C40.218 1.99809 36.018 1.09806 31.618 1.19806C31.318 7.29806 28.418 12.0981 24.318 16.3981C25.418 17.6981 26.418 18.7981 27.318 19.8981C27.218 19.9981 27.118 20.0981 27.018 20.1981C25.918 19.1981 24.718 18.1981 23.518 17.0981C23.018 17.4981 22.518 17.7981 21.918 18.2981C23.418 19.9981 24.818 21.5981 26.218 23.1981C23.918 22.4981 22.718 20.3981 21.018 18.8981C20.618 19.1981 20.218 19.4981 19.718 19.7981ZM6.81797 -16.502C5.71798 -16.302 4.71798 -16.1019 3.81797 -15.8019C0.117973 -14.9019 -2.68203 -12.802 -4.58203 -9.50195C-9.58203 -0.801956 -7.38202 11.3981 0.41798 17.6981C2.41798 19.2981 4.71798 20.4981 7.11798 20.8981C10.218 21.3981 13.418 21.098 16.418 19.998C22.118 17.898 26.118 13.8981 28.718 8.59808C31.918 2.09808 31.218 -4.2019 26.318 -9.7019C21.118 -15.6019 14.418 -17.702 6.81797 -16.502ZM1.61798 73.8981C3.21798 73.5981 4.71797 73.5981 6.01797 73.1981C12.218 71.2981 16.018 66.9981 17.618 60.8981C19.418 54.0981 17.518 47.898 13.218 42.498C10.618 39.198 7.41797 36.4981 3.21797 35.1981C1.01797 34.5981 -1.18202 34.3981 -3.38202 35.2981C-7.58202 36.8981 -11.082 39.5981 -12.882 43.6981C-16.482 51.4981 -16.282 59.2981 -11.482 66.5981C-9.48203 69.6981 -6.48203 71.798 -2.78202 72.998C-2.48203 71.698 -1.58203 71.398 -0.582027 71.498C0.817974 71.398 1.51798 72.1981 1.61798 73.8981ZM66.318 99.6981C65.318 98.7981 65.318 98.798 64.718 98.998C59.418 100.398 55.018 103.098 52.118 107.998C47.618 115.798 48.218 123.598 52.318 131.298C54.318 135.098 57.518 137.798 61.518 139.398C65.418 140.998 69.018 140.098 71.618 136.798C72.518 135.698 73.218 134.498 73.818 133.298C76.418 127.498 77.418 121.298 76.918 114.898C76.718 112.198 75.918 109.598 75.218 106.898C74.918 105.798 74.318 104.698 72.918 104.598C73.118 106.898 74.618 108.998 73.818 111.298C73.118 108.898 72.318 106.498 71.618 103.998C71.418 103.298 71.118 102.698 70.118 102.698C70.318 104.198 70.618 105.698 70.818 107.098C71.118 109.598 71.018 110.098 70.618 110.898C70.218 108.298 69.818 105.398 69.218 102.498C68.818 100.598 67.718 99.9981 65.818 100.598C65.018 100.898 64.118 101.198 63.318 101.498C63.218 101.398 63.218 101.298 63.118 101.098C64.218 100.798 65.218 100.298 66.318 99.6981ZM90.918 68.7981C86.818 68.1981 83.018 67.5981 79.218 66.998C78.418 68.298 77.718 69.3981 77.018 70.5981C76.918 70.5981 76.818 70.4981 76.718 70.3981C77.218 69.1981 77.718 67.8981 78.218 66.6981C77.318 65.8981 76.818 66.4981 76.318 67.1981C75.518 68.2981 74.818 69.4981 74.118 70.6981C74.018 70.5981 73.918 70.5981 73.718 70.498C74.418 68.998 75.218 67.4981 76.018 65.8981C75.218 65.6981 74.518 65.5981 74.018 65.498C72.018 67.898 71.618 70.4981 71.718 73.2981C71.818 78.4981 71.918 83.5981 72.218 88.7981C72.318 90.8981 72.918 93.0981 73.518 95.0981C74.018 96.7981 75.518 97.798 77.518 98.498C77.218 96.798 77.018 95.5981 76.818 94.2981C76.918 94.2981 77.018 94.2981 77.118 94.1981C77.518 95.6981 78.018 97.1981 78.518 98.7981C81.618 99.7981 84.818 100.098 87.918 98.8981C88.418 97.3981 88.918 95.8981 89.518 94.3981C89.618 94.3981 89.718 94.398 89.818 94.498C89.618 95.698 89.518 96.9981 89.218 98.5981C92.118 96.2981 93.118 93.3981 94.118 90.2981C94.318 90.7981 94.418 91.1981 94.618 91.5981C96.018 90.3981 97.318 89.3981 98.518 88.2981C98.918 87.8981 99.318 87.498 99.518 86.998C102.018 81.398 102.018 75.4981 100.718 69.5981C100.118 69.5981 99.718 69.498 99.018 69.498C99.118 71.398 99.618 73.1981 98.618 75.1981C98.418 73.0981 98.218 71.1981 98.018 69.3981C96.418 69.2981 95.018 69.1981 93.618 69.0981C93.518 70.7981 93.318 72.1981 93.218 73.6981C92.718 69.3981 92.718 69.398 91.718 68.998C91.718 69.698 91.618 70.3981 91.618 71.0981C91.518 71.6981 91.418 72.1981 91.318 72.7981C91.218 72.7981 91.118 72.7981 90.918 72.7981C91.018 71.3981 91.018 70.0981 90.918 68.7981ZM72.218 95.998C71.918 94.198 71.518 92.5981 71.418 90.7981C71.118 87.4981 70.818 84.0981 70.718 80.7981C70.518 75.4981 70.318 70.0981 72.518 64.998C72.218 64.798 72.018 64.6981 71.718 64.5981C66.718 62.7981 62.318 59.7981 58.018 56.6981C49.518 50.4981 40.518 45.198 30.918 40.998C30.518 40.798 30.118 40.6981 29.618 40.5981C30.718 42.2981 31.618 43.8981 32.618 45.3981C35.218 49.6981 37.818 53.9981 40.418 58.1981C40.518 58.3981 40.618 58.4981 40.818 58.6981C43.618 62.2981 46.518 65.998 49.418 69.498C54.618 75.898 59.818 82.2981 64.918 88.6981C66.218 90.2981 67.418 92.0981 68.618 93.6981C69.418 95.0981 70.618 95.898 72.218 95.998ZM-33.682 22.5981C-31.982 22.4981 -31.182 22.898 -30.782 23.998C-30.182 25.398 -31.282 25.8981 -32.282 26.5981C-28.982 31.2981 -24.682 33.9981 -18.982 33.8981C-14.082 33.7981 -9.68203 32.1981 -5.78202 29.1981C-2.98203 26.9981 -1.18202 24.1981 -0.382023 20.6981C-0.0820236 19.2981 -0.182026 18.098 -1.78202 17.498C-2.88202 27.898 -15.682 33.798 -22.582 30.498C-21.482 30.498 -20.482 30.498 -19.582 30.498C-14.882 30.798 -10.882 29.0981 -7.28202 26.0981C-5.48203 24.5981 -4.18203 22.6981 -3.28202 20.5981C-1.98203 17.7981 -3.08202 15.5981 -4.88202 13.5981C-6.18202 12.0981 -7.88202 12.798 -9.38202 12.998C-10.682 13.198 -11.982 13.5981 -13.282 13.8981C-13.682 13.9981 -14.082 14.0981 -14.482 14.1981C-11.982 12.3981 -9.08203 12.0981 -6.08203 11.7981C-6.48203 10.8981 -6.88203 10.298 -6.98203 9.49805C-7.38203 7.99805 -8.38202 7.29808 -9.78202 7.09808C-11.482 6.79808 -13.082 6.5981 -14.782 6.2981C-14.582 6.0981 -14.482 5.89807 -14.282 5.89807C-12.182 6.09807 -10.182 6.29805 -7.98203 6.49805C-7.98203 6.29805 -7.98203 5.99809 -8.08203 5.59808C-8.18203 5.19808 -8.28202 4.79807 -8.38202 4.39807C-9.18202 4.19807 -9.88203 3.99807 -10.682 3.89807C-15.782 2.89807 -20.682 3.19804 -25.382 5.49805C-32.982 8.99805 -35.582 16.5981 -33.682 22.5981ZM-11.282 -6.60193C-11.382 -6.90193 -11.482 -7.20192 -11.582 -7.40192C-12.782 -10.0019 -14.082 -12.5019 -15.282 -15.1019C-15.682 -16.0019 -16.082 -16.9019 -16.782 -17.6019C-18.982 -19.8019 -21.182 -22.1019 -23.582 -24.1019C-26.182 -26.2019 -29.182 -27.7019 -32.682 -28.1019C-36.982 -28.7019 -40.382 -27.0019 -42.482 -23.2019C-44.582 -19.4019 -44.582 -15.4019 -43.282 -11.4019C-41.282 -5.60191 -37.482 -1.10191 -32.682 2.59808C-31.482 3.59808 -29.882 4.09806 -28.382 4.69806C-27.582 5.09806 -26.882 5.09808 -26.382 4.09808C-27.582 3.39809 -28.782 2.69808 -30.082 2.09808C-28.682 2.29808 -27.382 2.89806 -26.082 3.19806C-25.282 3.39806 -24.482 3.39809 -23.682 3.2981C-21.382 2.99809 -19.182 2.59808 -16.882 2.09808C-16.382 1.99809 -15.782 1.79807 -15.482 1.39807C-14.882 0.598068 -14.382 -0.301903 -14.182 -1.2019C-13.882 -2.10191 -13.982 -3.10195 -13.882 -4.00195C-15.182 -4.60195 -13.282 -5.70192 -14.182 -6.40192C-14.582 -6.70192 -14.982 -7.00191 -15.382 -7.2019C-15.282 -7.4019 -14.882 -7.70192 -14.882 -7.90192C-15.182 -9.00191 -15.682 -10.1019 -16.082 -11.1019C-15.482 -10.6019 -14.882 -10.1019 -14.582 -9.40192C-14.182 -7.90192 -13.082 -7.00193 -11.282 -6.60193ZM20.918 -28.2019C18.218 -25.0019 15.218 -22.0019 13.418 -17.9019C15.418 -17.3019 17.118 -16.9019 18.818 -16.4019C19.418 -17.0019 20.018 -17.6019 20.518 -18.2019C20.618 -18.1019 20.618 -18.102 20.718 -18.002C20.318 -17.402 20.018 -16.702 19.618 -16.002C24.318 -13.702 27.918 -10.4019 30.218 -5.60193C31.618 -6.20193 32.918 -6.70194 34.218 -7.30194C34.318 -7.20194 34.318 -7.10195 34.418 -7.00195C33.218 -6.30196 31.918 -5.60191 30.718 -4.90192C30.718 -3.90192 31.318 -3.70193 31.918 -4.10193C33.418 -4.90193 34.818 -5.70193 36.218 -6.60193C37.018 -7.10193 37.818 -7.80192 38.618 -8.40192C38.318 -7.50191 37.918 -6.80194 37.218 -6.30194C35.618 -5.20194 34.018 -4.10191 32.318 -3.2019C31.318 -2.7019 31.118 -2.20192 31.718 -1.40192C31.918 -1.40192 32.118 -1.40192 32.218 -1.40192C40.318 -4.60191 45.918 -9.90194 47.418 -18.8019C48.718 -26.8019 44.818 -32.4019 39.318 -34.7019C34.618 -36.7019 29.618 -36.5019 24.818 -34.4019C18.518 -31.7019 14.218 -26.8019 11.118 -20.8019C10.718 -20.0019 10.418 -19.002 10.018 -18.002C11.118 -18.002 11.918 -18.0019 12.618 -17.9019C14.318 -21.8019 17.918 -26.4019 20.918 -28.2019ZM22.518 40.3981C22.618 40.3981 22.618 40.2981 22.718 40.2981C23.118 40.8981 23.418 41.398 23.818 41.998C25.518 44.898 27.118 47.8981 28.818 50.6981C30.718 53.7981 33.018 56.5981 34.918 59.6981C37.718 64.4981 41.118 68.8981 44.918 73.0981C50.718 79.3981 56.418 85.7981 61.518 92.7981C63.718 95.7981 66.418 98.398 69.418 100.498C73.618 103.498 77.918 106.398 82.118 109.398C84.218 110.998 86.618 111.998 89.018 112.798C89.918 113.098 90.818 113.398 92.018 113.198C91.518 112.398 91.218 111.798 90.918 111.398C89.618 111.198 88.318 111.498 87.118 110.398C88.318 110.398 89.318 110.398 90.518 110.398C90.118 109.098 89.718 107.998 89.418 106.898C83.718 106.398 82.418 105.298 82.218 100.798C81.618 100.698 81.018 100.598 80.518 100.498C79.718 101.098 79.818 102.298 78.618 102.598C78.918 101.798 79.118 101.098 79.318 100.298C77.018 99.5981 74.918 98.7981 73.418 97.0981C73.218 96.8981 72.918 96.8981 72.618 96.8981C70.018 96.9981 68.318 95.4981 66.918 93.5981C65.518 91.6981 64.118 89.7981 62.718 87.7981C61.218 85.6981 59.718 83.7981 57.018 83.1981C56.918 83.1981 56.918 83.0981 56.718 82.8981C57.318 82.7981 57.918 82.6981 58.418 82.5981C57.718 81.0981 56.718 80.4981 55.318 80.2981C55.218 80.2981 55.018 80.0981 54.918 79.8981C55.318 79.6981 55.618 79.5981 56.018 79.498C55.118 77.698 53.218 77.9981 51.718 76.8981C52.518 76.7981 53.118 76.7981 53.918 76.6981C53.218 75.8981 52.718 75.198 52.118 74.498C49.218 70.898 46.318 67.2981 43.618 63.5981C42.418 61.9981 41.118 60.3981 39.218 59.5981C39.118 59.5981 39.118 59.3981 39.018 59.1981C39.318 59.0981 39.518 58.8981 39.818 58.7981C39.418 56.9981 37.918 56.4981 36.318 55.7981C37.018 55.5981 37.318 55.5981 37.818 55.498C37.718 55.198 37.618 54.9981 37.518 54.8981C34.918 50.6981 32.418 46.5981 29.818 42.498C28.818 40.998 27.718 39.598 26.218 38.498C25.118 37.698 24.418 36.3981 23.718 35.1981C23.218 34.4981 22.918 33.5981 22.518 32.7981C20.518 29.0981 18.418 25.2981 16.418 21.5981C16.318 21.3981 16.118 21.2981 15.918 21.0981C15.418 21.3981 14.918 21.5981 14.318 21.8981C15.518 24.2981 16.618 26.4981 17.818 28.6981C15.818 26.7981 14.718 24.3981 13.418 21.8981C11.518 21.8981 9.51797 21.8981 7.81797 21.8981C7.11797 23.8981 6.61798 25.6981 5.91798 27.3981C5.21798 29.0981 5.21798 30.9981 3.91798 32.3981C4.21798 30.2981 4.61797 28.1981 5.51797 26.1981C6.01797 24.9981 6.31798 23.6981 6.61798 22.3981C6.71798 22.0981 6.31797 21.798 6.21797 21.498C5.81797 23.898 5.11797 26.098 3.81797 27.998C3.31797 28.698 2.81797 29.3981 2.51797 30.1981C2.21797 31.0981 2.01797 31.9981 1.81797 32.8981C3.51797 31.5981 3.31798 34.5981 4.61798 33.6981C5.51798 31.2981 6.41797 28.598 7.31797 25.998C7.61797 25.298 7.91797 24.598 8.31797 23.998C9.01797 23.098 9.91798 23.1981 10.618 24.0981C11.018 24.6981 11.418 25.398 11.818 25.998C15.018 30.898 18.318 35.7981 21.518 40.5981C21.918 41.1981 22.318 41.6981 22.718 42.1981C22.818 42.1981 22.918 42.0981 23.018 42.0981C22.818 41.6981 22.618 41.0981 22.518 40.3981ZM-4.18203 -34.4019C-4.28202 -34.5019 -4.38203 -34.5019 -4.58203 -34.6019C-3.38203 -36.3019 -2.18203 -37.9019 -0.982029 -39.7019C-4.08203 -38.7019 -6.58203 -36.2019 -7.98203 -32.7019C-9.78203 -28.1019 -10.182 -23.402 -9.38202 -18.502C-9.18202 -17.502 -8.78202 -16.7019 -7.78202 -16.2019C-7.58202 -18.2019 -7.78202 -20.0019 -6.88202 -22.1019C-6.88202 -19.6019 -6.78202 -17.502 -6.78202 -15.502C-6.78202 -14.102 -6.08203 -13.2019 -5.08203 -12.2019C-4.58203 -14.2019 -4.78202 -16.3019 -3.38202 -18.4019C-3.68202 -16.3019 -3.88203 -14.6019 -4.18203 -12.6019C-3.18203 -13.4019 -2.48203 -14.2019 -1.68203 -14.6019C0.517975 -15.8019 2.61798 -17.1019 3.41798 -19.7019C3.11798 -18.8019 2.91798 -17.9019 2.61798 -16.9019C3.81798 -16.9019 4.51797 -17.4019 4.81797 -18.4019C5.41797 -20.2019 6.01797 -22.0019 6.81797 -24.2019C6.91797 -21.7019 5.91797 -19.8019 5.51797 -17.8019C7.11797 -17.3019 7.51797 -18.5019 8.21797 -19.7019C8.41797 -19.0019 8.51798 -18.6019 8.61798 -18.1019C8.81798 -18.2019 9.01797 -18.2019 9.01797 -18.2019C10.418 -21.1019 11.818 -24.1019 13.218 -27.0019C13.318 -27.3019 13.618 -27.6019 13.818 -27.7019C15.218 -28.1019 15.218 -29.1019 14.918 -30.2019C13.418 -35.3019 9.91797 -38.6019 4.81797 -40.5019C3.81797 -39.5019 2.81798 -38.5019 1.91798 -37.6019C1.81798 -37.6019 1.71798 -37.7019 1.61798 -37.7019C2.11798 -38.6019 2.61797 -39.5019 3.21797 -40.4019C1.91797 -40.8019 1.01797 -40.4019 0.217968 -39.4019C-1.38203 -37.6019 -2.78202 -36.0019 -4.18203 -34.4019ZM-12.382 105.698C-12.282 105.698 -12.082 105.698 -11.982 105.798C-10.382 102.798 -8.08203 100.398 -5.68203 97.998C-5.18203 97.498 -4.78202 96.8981 -4.28202 96.3981C-3.38202 95.4981 -2.98202 94.298 -2.88202 92.998C-2.58202 89.398 -1.78203 85.7981 -0.582027 82.3981C-0.382027 81.8981 -0.382023 81.398 -0.282024 80.998C-2.88202 82.198 -5.48203 83.298 -7.98203 84.498C-10.482 85.5981 -12.882 86.7981 -14.882 88.6981C-17.282 90.9981 -16.882 90.2981 -15.982 93.0981C-15.982 93.1981 -15.782 93.2981 -15.682 93.3981C-15.082 92.7981 -14.382 92.0981 -13.782 91.5981C-13.182 91.0981 -12.482 90.6981 -11.882 90.1981C-12.782 91.6981 -13.982 92.8981 -14.982 94.1981C-15.282 94.5981 -15.582 95.3981 -15.482 95.8981C-14.482 99.1981 -13.382 102.498 -12.382 105.698ZM2.41798 75.1981C2.11798 75.0981 1.91797 74.998 1.71797 74.998C-1.28203 74.998 -4.08203 74.0981 -6.58203 72.5981C-6.88203 72.3981 -7.38202 72.0981 -7.78202 72.1981C-10.382 72.5981 -13.082 72.1981 -15.682 73.2981C-16.782 76.7981 -17.682 80.1981 -17.482 84.1981C-15.882 83.1981 -14.882 81.5981 -12.782 81.0981C-14.082 82.2981 -15.182 83.1981 -16.182 84.1981C-17.882 85.7981 -17.982 87.0981 -16.682 89.3981C-14.582 86.9981 -11.882 85.3981 -8.98203 84.0981C-6.98203 83.1981 -4.88202 82.2981 -2.88202 81.3981C-0.182022 79.9981 1.41798 77.9981 2.41798 75.1981ZM0.817974 82.7981C0.617973 82.7981 0.417969 82.6981 0.217968 82.6981C-0.282032 84.7981 -0.882023 86.7981 -1.28202 88.8981C-2.28202 93.4981 -1.48203 97.8981 0.517971 102.098C1.51797 104.198 2.21797 106.398 3.01797 108.498C3.11797 108.798 3.31797 109.198 3.51797 109.698C6.11797 105.898 8.51797 102.398 11.018 98.5981C9.21797 96.1981 7.41797 93.798 5.51797 91.498C3.31797 88.898 1.31797 86.2981 0.817974 82.7981ZM-3.88202 97.2981C-6.08202 99.8981 -8.38203 102.598 -10.582 105.198C-12.182 106.998 -11.582 108.698 -10.582 110.798C-9.78203 109.098 -9.68203 107.298 -8.28202 105.698C-8.78202 107.798 -9.18203 109.498 -9.58203 111.198C-9.88203 112.598 -9.98203 113.998 -9.48203 115.498C-8.78203 117.798 -8.28202 120.198 -7.68203 122.598C-7.28202 124.198 -6.88203 125.698 -6.48203 127.698C-4.08203 117.498 -3.08202 107.598 -3.88202 97.2981ZM11.618 38.3981C13.318 37.4981 15.618 37.7981 17.818 36.6981C16.218 34.4981 14.718 32.598 13.418 30.498C12.118 28.498 10.918 26.2981 9.31797 23.7981C7.81797 27.6981 6.61797 31.0981 5.31797 34.3981C7.51797 35.6981 9.41798 36.9981 11.618 38.3981ZM-5.38202 126.898C-2.88202 121.998 -0.282024 116.998 2.31797 111.898C2.61797 111.298 2.91798 110.298 2.61798 109.798C1.11798 105.998 -0.482029 102.198 -1.98203 98.3981C-1.98203 98.3981 -2.08202 98.3981 -2.28202 98.2981C-2.48203 103.198 -2.38203 107.998 -2.98203 112.798C-3.48203 117.498 -4.58202 122.298 -5.38202 126.898ZM18.418 48.1981C19.618 52.6981 19.918 57.0981 18.818 61.498C18.618 62.398 18.918 63.3981 19.318 64.2981C20.518 66.9981 22.618 68.9981 24.718 71.3981C25.218 68.7981 25.118 66.3981 24.618 64.2981C24.118 62.0981 23.018 60.0981 22.018 57.6981C22.718 58.2981 23.218 58.798 24.018 59.498C23.518 55.698 20.918 53.1981 19.818 50.0981C19.518 49.3981 18.818 48.8981 18.418 48.1981ZM83.418 101.198C82.818 104.498 85.218 106.498 89.118 105.898C89.318 103.798 89.618 101.698 89.818 99.5981C87.718 100.198 85.618 100.698 83.418 101.198ZM-40.382 -72.5019C-39.682 -72.8019 -39.382 -72.8019 -39.182 -73.0019C-36.582 -75.0019 -34.882 -77.7019 -33.382 -80.5019C-33.182 -80.9019 -33.082 -81.4019 -33.082 -81.9019C-33.082 -82.4019 -33.382 -82.8019 -33.482 -83.4019C-35.182 -81.7019 -36.682 -80.2019 -37.982 -78.6019C-38.882 -77.4019 -39.582 -75.8019 -40.182 -74.4019C-40.382 -74.0019 -40.282 -73.4019 -40.382 -72.5019ZM22.318 53.8981C22.518 50.0981 20.018 47.0981 19.518 43.498C19.818 43.998 20.218 44.5981 20.518 45.0981C20.218 43.2981 21.218 41.1981 19.418 39.5981C18.418 41.4981 17.418 43.2981 16.418 45.2981C19.618 47.5981 20.918 50.6981 22.318 53.8981ZM-13.582 65.8981C-13.982 66.9981 -14.382 68.0981 -14.782 69.2981C-13.782 69.1981 -13.082 69.1981 -12.082 69.0981C-13.382 70.1981 -15.682 69.7981 -15.282 72.0981C-13.082 71.7981 -10.982 71.5981 -8.88202 71.3981C-10.382 69.4981 -11.982 67.7981 -13.582 65.8981ZM18.518 37.6981C17.418 38.1981 16.318 38.398 15.618 38.998C14.718 39.798 13.418 38.2981 12.818 39.7981C13.918 41.0981 14.918 42.4981 16.018 43.7981C18.818 39.1981 18.818 39.1981 18.518 37.6981ZM-8.48203 3.09808C-8.88203 0.79808 -7.58203 -1.60194 -9.58203 -3.30194C-10.382 -1.50194 -11.182 0.398094 -11.982 2.2981C-10.982 2.49809 -9.88203 2.79808 -8.48203 3.09808ZM-11.482 -3.7019C-12.182 -3.50191 -12.682 -3.50194 -12.782 -3.30194C-13.382 -1.60194 -13.982 0.198097 -14.582 2.2981C-13.982 1.99809 -13.582 1.79805 -13.282 1.49805C-12.082 0.0980453 -11.382 -1.60191 -11.182 -3.40192C-10.882 -5.40192 -10.982 -5.50194 -13.082 -6.30194C-13.482 -5.10194 -12.682 -4.4019 -11.482 -3.7019ZM139.618 90.6981C138.818 89.0981 138.118 87.6981 137.418 86.1981C136.018 87.3981 135.818 87.9981 136.218 89.0981C136.718 90.3981 137.418 90.7981 139.618 90.6981ZM0.817974 72.998C-0.682026 71.698 -0.682026 71.6981 -1.78202 72.5981C-1.18203 73.4981 -0.382027 73.5981 0.817974 72.998ZM-32.582 23.5981C-32.982 24.1981 -33.282 24.7981 -32.582 25.3981C-32.482 25.4981 -31.982 25.3981 -31.882 25.2981C-31.482 24.4981 -31.782 23.9981 -32.582 23.5981Z" fill="#8F6B61" fill-opacity="0.2"/>
<path d="M358.83 -13.2398C362.23 -8.33981 365.43 -3.63977 368.73 1.06023C370.63 3.76023 372.63 6.46021 374.63 9.16021C376.33 11.4602 378.03 13.7602 379.83 15.9602C382.23 18.8602 384.13 22.1602 385.83 25.5602C386.33 26.5602 386.83 27.5602 387.33 28.5602C389.73 32.8602 392.13 37.0602 394.53 41.3602C395.33 42.6602 396.23 43.8602 397.33 45.5602C397.43 44.6602 397.53 44.1602 397.43 43.7602C396.93 39.7602 396.33 35.7602 395.73 31.7602C394.83 25.4602 394.43 19.2602 395.83 13.0602C397.23 6.96024 400.33 1.86021 404.33 -2.83979C407.93 -6.93979 411.63 -10.9398 415.03 -15.1398C418.03 -18.8398 420.73 -22.7398 423.43 -26.6398C424.63 -28.3398 425.43 -30.3398 426.53 -32.1398C428.13 -34.8398 429.73 -37.5398 431.33 -40.2398C431.83 -41.1398 432.13 -42.1398 432.63 -43.2398C433.33 -42.2398 433.33 -41.1398 433.13 -40.1398C432.83 -37.5398 433.23 -35.0398 433.63 -32.4398C435.13 -23.4398 437.33 -14.5398 439.33 -5.63978C440.33 -1.23978 441.03 3.26022 440.63 7.86022C440.53 9.26022 440.43 10.6602 440.03 11.9602C438.63 16.6602 437.33 21.3602 434.93 25.6602C434.43 26.4602 434.63 27.0602 434.93 27.8602C436.83 33.5602 436.43 39.2602 434.33 44.8602C431.83 51.7602 425.13 56.3602 417.73 56.5602C417.63 56.5602 417.43 56.5602 417.13 56.6602C416.83 58.8602 415.63 60.6602 414.33 62.5602C413.23 64.1602 412.53 66.0602 412.23 68.1602C413.43 68.7602 414.63 69.4602 415.93 70.1602C417.53 62.7602 422.83 59.1602 429.43 57.1602C434.13 55.7602 438.73 55.6602 443.33 57.8602C453.63 62.9602 455.63 76.9602 446.93 84.3602C446.33 84.8602 445.63 85.4602 444.93 85.9602C445.13 86.1602 445.13 86.3602 445.33 86.4602C452.33 90.1602 456.53 96.0602 458.73 103.36C460.13 107.96 459.83 112.66 457.03 116.86C454.23 120.96 450.23 122.56 445.43 121.46C441.73 120.66 438.73 118.76 436.03 116.26C434.53 114.86 433.13 113.46 431.43 111.66C431.63 112.36 431.73 112.86 431.83 113.16C432.83 115.26 433.83 117.26 434.83 119.36C436.63 123.06 437.73 127.06 438.33 131.16C439.03 135.56 440.33 139.76 442.73 143.46C444.23 145.86 445.13 148.46 445.93 151.16C446.53 153.06 447.43 154.86 448.23 156.76C449.03 158.86 450.03 160.96 450.63 163.26C451.63 166.66 450.13 169.36 447.83 171.76C446.43 173.16 445.03 174.46 443.53 175.76C442.43 176.76 441.23 176.46 440.83 174.96C440.33 173.26 439.93 171.56 439.93 169.86C439.93 165.46 439.13 161.26 437.43 157.26C436.33 154.56 435.83 151.66 435.73 148.66C435.63 146.56 435.33 144.46 434.13 142.46C432.43 139.56 431.23 136.46 431.53 132.96C431.63 131.66 430.93 130.16 430.23 128.86C428.33 125.36 426.63 121.76 425.73 117.86C425.43 116.66 425.13 115.46 424.63 114.26C424.43 115.46 424.23 116.66 423.93 117.76C423.03 121.46 421.73 124.96 418.83 127.66C413.73 132.46 406.73 132.26 401.83 127.26C399.43 124.86 397.73 121.96 397.03 118.36C396.43 118.76 395.93 119.06 395.43 119.46C389.43 124.06 382.73 125.26 375.43 123.26C370.13 121.76 365.73 116.56 365.23 111.16C364.53 104.16 367.03 98.4602 371.93 93.6602C372.63 93.0602 373.33 92.4602 374.13 91.7602C372.73 91.2602 371.33 90.7602 370.03 90.2602C362.33 87.2602 356.23 82.4602 352.33 75.0602C350.63 71.8602 349.73 68.2602 349.33 64.6602C348.73 60.1602 350.73 56.5602 354.53 54.4602C359.73 51.6602 365.23 49.6602 371.33 50.2602C373.83 50.4602 376.23 51.4602 378.53 52.2602C380.83 53.1602 382.93 54.3602 385.13 55.3602C390.43 57.7602 394.13 61.8602 397.13 66.6602C397.43 67.0602 397.53 67.5602 397.83 67.9602C397.93 68.1602 398.43 68.0602 399.03 68.0602C396.93 63.1602 395.63 58.0602 391.23 54.9602C388.73 53.1602 386.03 51.7602 383.33 50.2602C380.93 48.9602 378.33 48.2602 375.63 47.8602C372.93 47.3602 370.23 46.6602 367.43 46.1602C365.23 45.7602 363.13 46.0602 361.13 47.0602C355.23 49.9602 349.33 52.7602 343.43 55.6602C340.03 57.3602 337.23 59.9602 334.73 62.8602C332.03 66.0602 329.23 69.1602 326.33 72.1602C321.63 76.9602 315.73 79.4602 309.13 80.5602C307.03 80.8602 305.03 81.1602 302.93 81.5602C300.23 81.9602 297.83 82.9602 295.83 84.8602C293.13 87.3602 290.33 89.7602 287.43 92.1602C285.33 93.9602 283.63 95.9602 282.93 98.5602C282.63 99.6602 282.53 100.76 282.33 101.86C282.23 102.26 282.23 102.66 282.13 103.26C280.83 102.16 280.63 100.86 280.63 99.7602C280.53 97.3602 280.63 95.0602 280.53 92.6602C280.43 90.7602 280.53 88.8602 279.93 87.0602C278.63 83.0602 277.83 78.9602 278.43 74.7602C278.63 72.9602 278.63 71.0602 278.33 69.3602C277.53 63.9602 278.23 58.7602 279.93 53.6602C280.53 51.9602 281.23 50.2602 281.83 48.5602C282.53 46.8602 283.13 45.1602 283.83 43.4602C284.43 42.0602 285.13 40.6602 285.93 39.0602C284.93 37.4602 285.63 35.7602 286.63 34.1602C287.23 33.2602 287.93 32.3602 288.63 31.4602C289.93 29.7602 291.33 28.1602 292.33 26.4602C295.53 21.1602 300.33 17.8602 305.83 15.3602C309.93 13.4602 314.23 12.3602 318.93 12.7602C318.83 9.86018 318.43 7.06022 318.73 4.36022C319.03 1.66022 320.03 -0.839802 320.73 -3.5398C320.73 -3.5398 320.53 -3.6398 320.43 -3.5398C316.53 -1.1398 312.13 -0.339802 307.63 -0.0398026C304.33 0.160198 301.13 0.360199 297.83 0.460197C295.33 0.560196 292.83 0.160187 290.43 -0.739815C287.53 -1.83981 285.33 -3.63979 283.93 -6.33979C280.23 -13.1398 280.93 -19.5398 285.43 -25.7398C289.93 -31.8398 296.03 -34.8398 303.33 -35.6398C307.33 -36.0398 311.43 -36.4398 315.43 -36.6398C320.03 -36.8398 324.63 -36.3398 328.43 -33.6398C330.63 -32.1398 332.93 -31.0398 335.43 -30.2398C338.43 -29.3398 340.93 -27.6398 343.23 -25.4398C344.23 -24.4398 345.43 -23.6398 346.83 -22.5398C346.73 -23.8398 346.73 -24.7398 346.53 -25.6398C345.23 -34.0398 346.83 -41.9398 350.73 -49.3398C352.13 -51.9398 354.03 -54.0398 356.73 -55.2398C359.53 -56.5398 362.33 -56.0398 365.03 -54.7398C370.63 -52.0398 373.93 -47.3398 375.53 -41.5398C377.23 -35.6398 377.03 -29.8398 374.23 -24.2398C371.03 -18.1398 366.23 -14.1398 359.33 -12.9398C359.43 -13.4398 359.23 -13.3398 358.83 -13.2398ZM402.13 1.26019C402.53 1.86018 403.13 2.46024 403.33 3.06023C403.93 5.36023 405.23 6.9602 407.03 8.4602C409.33 10.5602 412.13 12.0602 413.53 15.0602C414.93 14.8602 416.23 14.5602 417.63 14.3602C417.93 13.7602 418.33 13.1602 418.73 12.6602C420.13 10.8602 420.33 8.76023 420.13 6.56023C419.83 3.86023 418.43 1.76023 416.93 -0.439766C415.63 -2.33977 414.33 -4.23978 413.03 -6.13978C412.43 -7.03978 412.03 -7.9398 411.43 -9.0398C409.73 -7.1398 408.03 -5.3398 406.43 -3.5398C404.93 -1.9398 403.53 -0.339813 402.13 1.26019C401.63 2.26019 401.13 3.26021 400.53 4.16021C399.63 5.46021 399.33 6.76019 399.83 8.26019C400.13 9.06019 400.23 9.86021 400.43 10.6602C400.33 10.6602 400.23 10.7602 400.03 10.7602C399.63 9.96018 399.23 9.06022 398.53 7.86022C397.93 9.76022 397.43 11.2602 396.93 12.6602C396.43 14.1602 396.63 15.4602 397.73 16.6602C399.63 18.9602 401.43 21.2602 402.43 24.5602C404.83 20.3602 408.03 17.2602 412.63 15.3602C411.83 14.4602 411.33 13.7602 410.63 13.1602C409.13 11.7602 407.53 10.3602 405.93 9.06023C403.93 7.46024 402.83 5.36022 402.43 2.86022C402.43 2.26022 402.23 1.76019 402.13 1.26019ZM426.43 100.86C426.23 99.3602 424.43 95.6602 422.93 93.7602C423.03 94.5602 422.83 95.1602 423.13 95.5602C424.23 97.3602 425.33 99.0602 426.43 100.86C426.63 101.66 426.83 102.36 427.03 103.16C426.93 103.16 426.83 103.26 426.73 103.26C425.33 100.96 423.93 98.6602 422.43 96.1602C421.83 97.1602 421.43 98.0602 420.93 98.8602C421.83 100.66 422.63 102.36 423.53 104.06C423.43 104.16 423.33 104.16 423.13 104.26C422.23 102.86 421.33 101.36 420.33 99.7602C419.73 100.76 420.33 101.26 420.63 101.76C423.63 105.86 425.83 110.26 426.53 115.46C426.63 116.36 426.93 117.26 427.13 118.06C428.03 121.86 429.93 125.16 431.63 128.66C432.23 129.96 432.83 131.46 432.73 132.86C432.63 136.86 434.13 140.36 436.33 143.56C437.13 144.66 438.03 145.76 438.13 147.56C437.63 147.06 437.33 146.76 436.83 146.26C436.73 150.56 437.43 154.26 438.93 157.96C440.43 161.66 441.23 165.46 440.93 169.36C440.93 169.86 441.03 170.46 441.03 171.26C442.33 170.06 442.73 168.96 442.43 167.46C441.93 164.56 441.63 161.56 441.33 158.56C442.93 161.46 443.23 164.76 443.53 168.36C445.53 166.16 447.03 164.06 449.83 163.66C449.53 161.16 448.73 159.06 447.53 157.26C446.23 155.16 445.23 152.96 444.73 150.56C444.23 148.16 443.23 145.86 441.93 143.86C439.33 139.96 438.03 135.66 437.33 131.16C436.63 126.76 435.43 122.66 433.43 118.66C431.93 115.46 430.53 112.16 429.23 108.86C428.63 107.26 428.33 105.46 427.73 103.86C427.63 102.86 426.93 101.86 426.43 100.86ZM322.13 -6.5398C322.53 -6.7398 322.93 -6.7398 323.23 -7.0398C325.43 -9.0398 327.73 -10.9398 329.73 -13.0398C330.63 -13.9398 331.13 -15.1398 331.73 -16.1398C328.93 -14.4398 326.53 -12.3398 323.63 -11.0398C324.03 -11.6398 324.63 -12.0398 325.13 -12.4398C327.43 -14.2398 329.73 -16.1398 331.93 -17.9398C333.33 -19.0398 333.83 -20.5398 333.43 -22.3398C328.63 -17.7398 326.03 -15.8398 324.53 -15.8398C326.93 -17.8398 329.53 -19.9398 332.03 -22.1398C333.33 -23.3398 334.23 -24.7398 333.03 -26.5398C331.93 -26.1398 331.43 -24.7398 329.93 -24.5398C330.73 -25.3398 331.33 -25.9398 331.93 -26.4398C332.73 -27.1398 332.93 -27.8398 332.43 -28.8398C331.63 -30.5398 330.53 -31.9398 328.93 -32.9398C325.23 -35.3398 321.13 -36.3398 316.73 -36.0398C312.03 -35.7398 307.23 -35.3398 302.53 -34.8398C294.43 -33.9398 288.53 -29.6398 284.73 -22.5398C283.63 -20.5398 283.03 -18.3398 282.93 -16.1398C282.83 -14.9398 282.83 -13.6398 283.43 -12.5398C284.43 -12.6398 285.23 -12.6398 285.83 -12.7398C286.83 -13.7398 287.73 -14.6398 288.53 -15.5398C288.63 -15.4398 288.83 -15.2398 288.93 -15.1398C288.63 -14.8398 288.23 -14.5398 287.93 -14.2398C286.93 -13.1398 286.33 -12.1398 287.33 -10.5398C288.13 -9.4398 287.73 -8.1398 286.83 -7.0398C286.53 -6.7398 286.03 -6.43982 285.83 -6.23981C286.33 -4.73981 287.33 -4.43982 288.23 -4.23981C290.73 -3.63982 293.23 -3.0398 295.73 -2.5398C296.13 -2.4398 296.63 -2.33981 297.03 -2.23981C297.03 -2.13982 296.93 -1.93979 296.93 -1.83979C294.33 -2.23979 291.73 -2.63978 288.63 -3.13978C291.03 -1.63978 293.33 -1.1398 295.63 -1.0398C301.53 -0.639801 307.33 -1.53978 313.13 -2.13978C314.23 -2.23978 315.33 -2.6398 316.33 -3.0398C318.63 -4.0398 320.63 -4.9398 322.13 -6.5398ZM318.73 73.9602C318.43 74.9602 318.33 75.4602 318.03 76.3602C319.63 75.4602 320.83 74.7602 321.93 73.9602C324.43 72.3602 325.93 70.0602 326.63 67.0602C327.43 63.5602 328.83 60.1602 329.93 56.7602C330.13 56.2602 330.53 55.7602 330.73 55.2602C330.83 55.2602 331.03 55.3602 331.13 55.3602C329.43 59.9602 327.73 64.5602 327.03 69.4602C328.93 67.5602 330.83 65.5602 332.43 63.4602C336.53 58.3602 341.53 54.4602 347.53 51.8602C350.63 50.5602 353.63 49.0602 356.43 47.3602C358.43 46.1602 360.13 44.5602 362.03 43.1602C362.13 43.1602 362.13 43.2602 362.23 43.2602C361.63 44.0602 360.93 44.9602 360.33 45.7602C363.53 43.8602 366.83 44.2602 370.13 44.9602C373.03 45.5602 375.83 46.1602 378.73 46.7602C379.33 46.8602 379.93 47.0602 380.53 47.2602C384.53 48.5602 388.13 50.6602 391.63 53.0602C392.13 53.4602 392.73 53.7602 393.23 54.0602C393.33 53.9602 393.43 53.8602 393.53 53.7602C392.53 52.0602 391.63 50.3602 390.63 48.7602C390.33 48.3602 389.83 48.0602 389.33 47.7602C381.53 43.9602 374.33 39.1602 367.43 33.8602C365.63 32.4602 363.83 31.1602 361.93 29.6602C362.03 30.5602 362.13 31.0602 362.23 31.6602C361.53 30.9602 361.03 30.1602 360.63 29.3602C359.83 27.8602 358.63 26.7602 357.33 25.6602C351.63 21.0602 345.03 18.2602 338.03 16.4602C337.43 16.2602 336.73 16.1602 335.93 16.0602C336.43 16.8602 336.83 17.4602 337.23 18.0602C335.13 16.0602 332.93 14.7602 329.73 14.9602C331.23 16.1602 332.63 17.0602 333.73 18.4602C331.83 17.4602 330.03 16.2602 328.13 15.1602C327.53 14.7602 326.73 14.3602 326.03 14.2602C323.43 13.7602 320.83 13.3602 318.13 13.0602C316.33 12.8602 314.43 12.9602 312.43 13.7602C313.93 14.1602 315.13 14.3602 316.23 14.6602C315.93 14.9602 315.73 14.9602 315.53 14.8602C312.93 14.4602 310.33 14.1602 307.83 15.0602C303.73 16.5602 300.03 18.7602 296.83 21.8602C295.13 23.5602 293.83 25.4602 292.43 27.7602C293.83 27.3602 294.93 27.0602 296.23 26.6602C296.13 26.9602 296.13 27.0602 296.03 27.0602C295.43 27.2602 294.93 27.5602 294.33 27.7602C290.83 28.9602 288.83 31.8602 287.13 34.9602C286.83 35.4602 286.63 35.9602 286.63 36.5602C286.43 37.6602 287.13 38.1602 288.13 37.6602C289.53 36.9602 290.73 36.0602 292.13 35.3602C292.73 35.0602 293.43 34.7602 294.03 34.5602C292.33 36.0602 290.63 37.3602 288.73 38.3602C287.03 39.2602 285.93 40.4602 285.33 42.1602C283.53 47.0602 281.83 52.0602 280.03 56.9602C279.03 59.7602 278.93 62.5602 279.23 65.4602C279.63 69.4602 279.93 73.5602 279.53 77.5602C279.33 79.4602 279.53 81.4602 280.53 83.5602C280.83 82.6602 281.03 82.0602 281.23 81.1602C281.43 84.1602 281.63 86.9602 281.73 89.6602C281.73 92.4602 281.63 95.2602 281.53 98.1602C281.63 98.1602 281.83 98.1602 281.93 98.1602C281.83 94.9602 282.83 91.9602 284.03 89.0602C284.93 86.9602 285.33 84.6602 285.33 82.3602C285.43 78.8602 285.93 75.4602 287.33 72.1602C289.63 67.0602 291.23 61.6602 292.63 56.2602C293.83 51.7602 295.93 47.8602 298.93 44.3602C299.23 44.0602 299.43 43.6602 299.93 43.0602C295.23 44.8602 292.13 47.7602 290.73 52.2602C290.23 53.7602 289.63 55.3602 288.73 56.5602C286.33 59.8602 283.73 63.0602 282.03 66.8602C282.13 65.8602 282.33 64.7602 282.83 63.8602C283.83 62.0602 284.83 60.1602 286.13 58.4602C287.83 56.2602 289.33 53.8602 290.13 51.1602C290.53 49.9602 291.13 48.8602 291.73 47.7602C293.83 44.3602 297.23 42.9602 300.73 41.5602C301.63 41.2602 302.53 40.8602 303.33 40.2602C306.53 37.7602 310.03 35.6602 313.73 34.0602C314.13 33.8602 314.53 33.6602 314.93 33.4602C309.33 30.2602 303.53 29.0602 297.33 29.9602C297.83 29.5602 298.43 29.2602 299.03 29.1602C303.33 28.4602 307.53 28.6602 311.53 30.5602C312.83 31.1602 314.23 31.7602 315.53 32.3602C316.43 32.7602 317.23 32.7602 318.13 32.4602C323.23 30.7602 328.43 30.0602 333.83 30.0602C334.83 30.0602 335.73 30.1602 336.73 30.1602C336.43 29.7602 336.13 29.5602 335.73 29.4602C334.43 29.1602 333.13 28.7602 331.93 28.4602C329.23 27.8602 326.73 26.7602 324.53 25.0602C323.63 24.3602 322.63 23.6602 321.63 22.9602C319.73 21.5602 317.63 20.4602 315.23 20.1602C313.03 19.8602 310.83 19.5602 308.73 19.2602C308.73 19.2602 308.73 19.0602 308.83 18.9602C309.13 18.8602 309.53 18.7602 309.83 18.7602C314.23 18.4602 318.33 19.1602 321.93 21.8602C322.93 22.5602 323.83 23.2602 324.83 23.9602C327.03 25.6602 329.43 26.7602 332.13 27.4602C333.33 27.7602 334.53 28.0602 335.73 28.4602C336.53 28.7602 337.43 28.9602 337.93 29.5602C338.93 30.5602 340.03 30.7602 341.23 31.0602C344.13 31.6602 346.93 32.4602 349.73 33.1602C351.23 33.5602 352.83 33.8602 354.53 34.2602C353.93 32.4602 352.73 31.6602 351.53 30.8602C348.53 28.7602 346.33 26.0602 344.13 23.2602C343.93 22.9602 343.73 22.5602 343.53 22.1602C344.13 22.4602 344.53 22.7602 344.93 23.1602C347.53 25.9602 350.13 28.7602 353.23 31.0602C354.13 31.6602 354.73 32.6602 355.23 33.6602C355.63 34.4602 356.13 34.8602 356.93 35.0602C359.03 35.7602 361.23 36.3602 363.23 37.2602C372.13 41.3602 381.03 45.5602 389.93 49.7602C390.33 49.9602 390.63 50.2602 390.93 50.4602C390.03 50.4602 389.23 50.2602 388.43 49.9602C383.73 47.8602 379.03 45.6602 374.33 43.5602C368.73 40.9602 363.13 38.1602 357.23 36.3602C355.73 35.8602 354.63 36.1602 353.53 37.0602C352.83 37.6602 352.33 38.3602 351.73 39.0602C350.63 40.2602 349.63 41.7602 348.23 42.5602C345.03 44.6602 342.33 47.2602 339.93 50.1602C339.63 50.4602 339.33 50.7602 338.93 51.0602C339.03 50.1602 339.43 49.3602 339.93 48.7602C341.73 46.4602 343.73 44.3602 346.23 42.6602C347.43 41.8602 348.53 41.0602 349.53 40.0602C350.93 38.5602 352.23 36.9602 353.63 35.3602C349.03 34.2602 344.33 33.1602 339.63 32.0602C339.03 31.9602 338.33 32.0602 337.83 32.2602C334.93 33.4602 332.53 35.2602 330.83 37.9602C329.93 39.4602 329.13 40.9602 328.33 42.5602C326.63 46.0602 325.03 49.6602 322.33 52.6602C319.83 55.5602 318.43 58.8602 317.63 62.5602C317.23 64.4602 316.53 66.2602 315.83 68.0602C315.53 68.8602 314.93 69.4602 314.43 70.1602C314.13 69.7602 314.13 69.5602 314.23 69.3602C315.53 66.6602 316.33 63.8602 316.83 60.9602C317.43 57.4602 319.13 54.4602 321.33 51.6602C322.93 49.5602 324.33 47.3602 325.73 45.0602C326.73 43.3602 327.53 41.5602 328.43 39.8602C330.03 36.6602 332.23 33.9602 335.43 32.2602C335.63 32.1602 335.73 31.9602 336.13 31.6602C335.63 31.5602 335.33 31.4602 335.13 31.4602C329.83 31.0602 324.73 31.8602 319.63 33.1602C317.53 33.6602 316.23 34.9602 315.23 36.6602C313.73 39.0602 313.63 41.6602 313.83 44.3602C314.13 49.2602 313.03 53.9602 311.33 58.4602C311.13 58.9602 310.83 59.4602 310.53 59.9602C310.33 59.6602 310.33 59.4602 310.43 59.2602C311.73 54.3602 313.23 49.4602 312.83 44.2602C312.63 41.1602 312.93 38.0602 314.93 35.4602C314.93 35.4602 314.83 35.2602 314.73 35.0602C314.33 35.2602 313.83 35.3602 313.43 35.5602C311.03 36.9602 308.63 38.3602 306.23 39.7602C303.03 41.6602 301.33 44.4602 300.73 47.9602C300.33 50.0602 300.33 52.2602 300.43 54.4602C300.53 58.1602 300.63 61.8602 299.43 65.4602C298.23 69.4602 297.13 73.5602 296.03 77.5602C295.93 77.8602 295.73 78.1602 295.53 78.4602C295.33 77.9602 295.33 77.5602 295.33 77.1602C295.73 73.3602 296.63 69.5602 297.93 65.9602C299.03 62.8602 299.43 59.5602 299.33 56.2602C299.23 54.0602 299.13 51.7602 299.33 49.5602C299.43 48.1602 299.83 46.7602 300.23 45.0602C299.73 45.5602 299.53 45.7602 299.33 45.9602C296.43 49.3602 294.63 53.3602 293.53 57.6602C292.33 62.4602 290.83 67.1602 288.93 71.7602C287.53 74.9602 286.63 78.3602 286.63 81.8602C286.63 85.2602 285.83 88.4602 284.33 91.5602C283.83 92.5602 283.53 93.7602 283.13 94.8602C285.23 92.0602 288.13 90.2602 290.63 88.1602C294.03 85.3602 297.33 82.3602 298.93 78.0602C299.03 77.8602 299.13 77.7602 299.23 77.6602C299.33 77.6602 299.43 77.7602 299.43 77.7602C299.03 78.9602 298.63 80.0602 298.03 81.6602C299.73 80.7602 301.13 80.1602 302.23 79.2602C303.33 78.3602 304.13 77.2602 304.93 76.0602C305.73 74.9602 306.43 73.7602 307.13 72.5602C307.23 72.6602 307.33 72.7602 307.53 72.7602C306.83 73.9602 306.23 75.1602 305.53 76.3602C304.83 77.4602 303.93 78.5602 302.93 79.8602C305.53 79.4602 307.83 79.1602 309.93 78.7602C310.53 78.6602 311.23 78.1602 311.73 77.7602C312.73 76.9602 313.63 76.0602 314.53 75.1602C314.63 75.2602 314.73 75.2602 314.73 75.3602C314.13 76.1602 313.63 76.9602 313.03 77.8602C315.53 77.9602 316.83 76.0602 318.73 73.9602ZM397.33 68.1602C394.83 64.1602 392.23 60.3602 388.43 57.9602C383.73 55.0602 378.73 52.6602 373.33 51.2602C371.03 50.6602 368.73 50.5602 366.43 51.1602C363.63 51.8602 360.93 52.6602 358.23 53.4602C356.33 54.0602 354.73 55.1602 353.23 56.4602C350.43 59.1602 349.93 62.1602 351.83 65.5602C353.43 68.4602 355.43 71.1602 357.83 73.5602C358.13 73.8602 358.43 74.1602 358.63 74.4602C355.43 72.5602 353.53 69.5602 351.33 66.8602C351.63 69.3602 352.33 71.7602 353.43 74.0602C355.33 77.8602 358.23 80.9602 361.53 83.5602C365.43 86.6602 369.73 89.0602 374.73 90.0602C375.83 90.2602 376.73 90.1602 377.53 89.0602C375.73 88.5602 374.03 88.0602 372.33 87.5602C369.73 86.7602 368.93 86.2602 367.73 84.8602C368.33 85.1602 368.63 85.3602 369.03 85.4602C371.93 86.3602 374.83 87.3602 377.83 88.0602C379.83 88.5602 382.63 87.7602 383.83 86.6602C379.43 86.1602 375.23 85.4602 371.43 83.1602C375.53 84.2602 379.53 85.5602 383.93 85.6602C384.63 79.5602 388.03 75.0602 392.33 71.0602C391.33 69.6602 390.43 68.5602 389.63 67.3602C389.73 67.2602 389.83 67.1602 389.93 67.0602C390.93 68.1602 392.03 69.2602 393.13 70.4602C393.63 70.1602 394.13 69.8602 394.83 69.3602C393.53 67.5602 392.23 65.8602 390.93 64.1602C393.23 65.0602 394.23 67.2602 395.83 68.8602C396.43 68.6602 396.83 68.4602 397.33 68.1602ZM407.33 105.46C408.43 105.26 409.43 105.16 410.43 105.06C414.23 104.46 417.13 102.56 419.33 99.3602C424.93 91.1602 423.73 78.6602 416.43 71.8602C414.53 70.1602 412.33 68.7602 409.93 68.1602C406.93 67.3602 403.73 67.4602 400.63 68.2602C394.83 69.8602 390.53 73.5602 387.53 78.6602C383.83 84.9602 384.03 91.2602 388.43 97.0602C393.23 103.36 399.73 105.96 407.33 105.46ZM419.53 15.6602C417.83 15.7602 416.43 15.7602 415.13 16.0602C408.83 17.4602 404.63 21.4602 402.53 27.4602C400.23 34.1602 401.63 40.4602 405.43 46.1602C407.83 49.6602 410.73 52.6602 414.83 54.1602C417.03 54.9602 419.13 55.2602 421.33 54.6602C425.63 53.3602 429.33 50.9602 431.43 47.0602C435.63 39.5602 436.03 31.7602 431.83 24.0602C430.03 20.7602 427.23 18.5602 423.73 16.9602C423.33 18.1602 422.43 18.4602 421.33 18.2602C420.13 18.2602 419.63 17.3602 419.53 15.6602ZM357.03 -15.1398C357.93 -14.1398 357.93 -14.1398 358.53 -14.3398C363.93 -15.3398 368.53 -17.7398 371.73 -22.3398C376.83 -29.7398 376.83 -37.5398 373.33 -45.5398C371.63 -49.5398 368.63 -52.4398 364.73 -54.3398C360.93 -56.2398 357.33 -55.6398 354.43 -52.5398C353.53 -51.5398 352.63 -50.3398 351.93 -49.1398C348.83 -43.5398 347.33 -37.4398 347.43 -31.0398C347.43 -28.3398 348.03 -25.6398 348.43 -22.9398C348.63 -21.8398 349.13 -20.7398 350.63 -20.4398C350.63 -22.7398 349.33 -24.9398 350.23 -27.1398C350.73 -24.6398 351.33 -22.2398 351.93 -19.7398C352.13 -19.0398 352.33 -18.4398 353.33 -18.3398C353.23 -19.9398 353.03 -21.3398 352.93 -22.8398C352.83 -25.3398 353.03 -25.8398 353.43 -26.5398C353.63 -23.9398 353.83 -20.9398 354.13 -18.0398C354.33 -16.0398 355.43 -15.4398 357.33 -15.9398C358.23 -16.1398 359.03 -16.3398 359.93 -16.6398C359.93 -16.5398 360.03 -16.4398 360.03 -16.2398C359.33 -16.0398 358.23 -15.5398 357.03 -15.1398ZM330.13 13.7602C334.13 14.6602 337.93 15.5602 341.73 16.4602C342.63 15.2602 343.43 14.1602 344.23 13.0602C344.33 13.1602 344.43 13.1602 344.53 13.2602C343.93 14.4602 343.33 15.6602 342.73 16.8602C343.53 17.7602 344.13 17.1602 344.63 16.5602C345.43 15.4602 346.33 14.3602 347.13 13.2602C347.23 13.3602 347.33 13.3602 347.43 13.4602C346.53 14.8602 345.73 16.2602 344.73 17.8602C345.53 18.0602 346.13 18.2602 346.73 18.4602C348.93 16.2602 349.53 13.6602 349.63 10.8602C349.93 5.76022 350.23 0.560196 350.33 -4.5398C350.33 -6.6398 350.03 -8.83977 349.53 -10.9398C349.13 -12.6398 347.73 -13.7398 345.83 -14.6398C345.93 -12.9398 346.03 -11.7398 346.13 -10.4398C346.03 -10.4398 345.93 -10.4398 345.83 -10.4398C345.53 -12.0398 345.13 -13.5398 344.83 -15.1398C341.83 -16.3398 338.73 -16.9398 335.43 -15.9398C334.83 -14.4398 334.13 -13.0398 333.53 -11.5398C333.43 -11.5398 333.33 -11.6398 333.23 -11.6398C333.53 -12.8398 333.73 -14.0398 334.13 -15.6398C331.03 -13.6398 329.83 -10.7398 328.53 -7.73981C328.33 -8.23981 328.23 -8.6398 328.13 -9.0398C326.73 -7.9398 325.33 -7.0398 324.03 -6.0398C323.63 -5.7398 323.23 -5.23979 322.93 -4.83979C320.03 0.560211 319.53 6.3602 320.33 12.4602C320.83 12.5602 321.33 12.6602 321.93 12.7602C322.03 10.8602 321.63 8.96021 322.73 7.16021C322.83 9.26021 322.83 11.1602 322.93 13.0602C324.53 13.2602 325.93 13.4602 327.23 13.6602C327.53 12.0602 327.73 10.5602 327.93 9.06023C328.13 13.3602 328.13 13.3602 329.03 13.8602C329.13 13.1602 329.23 12.4602 329.33 11.7602C329.43 11.1602 329.63 10.6602 329.73 10.0602C329.83 10.0602 329.93 10.1602 330.13 10.1602C330.23 11.2602 330.13 12.4602 330.13 13.7602ZM350.83 -11.8398C350.93 -10.0398 351.23 -8.33978 351.23 -6.63978C351.33 -3.33978 351.33 0.0602226 351.13 3.36022C350.93 8.66022 350.73 14.0602 348.13 18.9602C348.43 19.1602 348.63 19.2602 348.93 19.4602C353.83 21.6602 357.93 24.9602 362.03 28.4602C370.03 35.2602 378.53 41.2602 387.83 46.2602C388.23 46.4602 388.63 46.5602 389.13 46.7602C388.23 44.9602 387.33 43.3602 386.53 41.7602C384.23 37.2602 382.03 32.8602 379.73 28.3602C379.63 28.1602 379.53 27.9602 379.43 27.8602C376.83 24.0602 374.33 20.1602 371.73 16.3602C367.13 9.56022 362.43 2.7602 357.73 -4.0398C356.53 -5.7398 355.53 -7.63979 354.43 -9.33979C353.63 -10.7398 352.43 -11.6398 350.83 -11.8398ZM450.73 69.5602C449.03 69.5602 448.33 69.0602 447.93 67.9602C447.53 66.5602 448.63 66.0602 449.63 65.5602C446.73 60.5602 442.63 57.6602 436.93 57.2602C432.03 56.9602 427.53 58.1602 423.43 60.8602C420.43 62.8602 418.43 65.4602 417.43 68.8602C417.03 70.2602 417.03 71.4602 418.53 72.1602C420.43 61.9602 433.63 57.0602 440.33 60.8602C439.23 60.7602 438.23 60.7602 437.33 60.5602C432.63 59.8602 428.53 61.2602 424.73 63.9602C422.83 65.3602 421.43 67.1602 420.23 69.1602C418.73 71.8602 419.63 74.0602 421.23 76.2602C422.43 77.8602 424.13 77.2602 425.63 77.2602C426.93 77.1602 428.23 76.8602 429.53 76.6602C429.93 76.5602 430.33 76.5602 430.73 76.4602C428.13 78.0602 425.23 78.1602 422.23 78.1602C422.53 79.0602 422.83 79.7602 422.93 80.4602C423.13 81.9602 424.13 82.7602 425.53 83.0602C427.13 83.4602 428.83 83.8602 430.53 84.2602C430.33 84.3602 430.13 84.6602 430.03 84.6602C428.03 84.3602 425.93 83.9602 423.83 83.5602C423.83 83.7602 423.83 84.0602 423.83 84.4602C423.83 84.8602 423.93 85.2602 424.03 85.6602C424.83 85.9602 425.53 86.1602 426.23 86.3602C431.23 87.7602 436.13 87.8602 441.03 85.9602C449.03 83.0602 452.13 75.7602 450.73 69.5602ZM426.23 96.9602C426.33 97.2602 426.43 97.5602 426.53 97.7602C427.53 100.46 428.63 103.06 429.63 105.76C430.03 106.66 430.33 107.66 430.93 108.36C432.93 110.76 434.93 113.16 437.23 115.36C439.73 117.66 442.53 119.36 445.93 120.06C450.23 120.96 453.63 119.56 456.03 115.96C458.43 112.36 458.73 108.36 457.73 104.26C456.23 98.3602 452.73 93.5602 448.23 89.5602C447.03 88.5602 445.53 87.8602 444.13 87.0602C443.43 86.6602 442.73 86.5602 442.13 87.4602C443.33 88.2602 444.43 88.9602 445.63 89.7602C444.23 89.4602 443.03 88.7602 441.73 88.2602C441.03 87.9602 440.13 87.9602 439.33 88.0602C437.03 88.2602 434.73 88.4602 432.53 88.7602C432.03 88.8602 431.43 88.9602 431.13 89.3602C430.53 90.0602 429.93 90.9602 429.63 91.8602C429.33 92.7602 429.23 93.7602 429.13 94.6602C430.33 95.3602 428.43 96.2602 429.23 97.0602C429.63 97.3602 430.03 97.6602 430.33 97.9602C430.23 98.0602 429.73 98.4602 429.83 98.6602C430.13 99.7602 430.43 100.86 430.83 101.96C430.23 101.46 429.73 100.86 429.53 100.16C428.93 98.3602 427.93 97.4602 426.23 96.9602ZM392.43 115.96C395.33 112.96 398.53 110.16 400.73 106.26C398.73 105.56 397.13 104.96 395.43 104.36C394.73 104.96 394.13 105.46 393.53 106.06C393.43 105.96 393.43 105.96 393.33 105.86C393.73 105.26 394.13 104.66 394.63 103.96C390.13 101.26 386.83 97.6602 384.83 92.7602C383.43 93.2602 382.03 93.6602 380.73 94.0602C380.73 93.9602 380.63 93.8602 380.63 93.7602C381.93 93.1602 383.23 92.5602 384.53 91.9602C384.63 90.9602 384.03 90.7602 383.33 91.0602C381.83 91.7602 380.33 92.4602 378.83 93.2602C377.93 93.7602 377.13 94.3602 376.33 94.9602C376.73 94.1602 377.23 93.3602 377.93 92.9602C379.63 91.9602 381.33 90.9602 383.03 90.2602C384.13 89.8602 384.33 89.3602 383.83 88.4602C383.63 88.4602 383.43 88.3602 383.33 88.4602C375.03 90.9602 369.03 95.8602 366.83 104.66C364.83 112.56 368.43 118.46 373.63 121.06C378.23 123.36 383.23 123.56 388.03 121.86C394.53 119.66 399.13 115.06 402.73 109.46C403.23 108.66 403.53 107.76 404.03 106.76C402.93 106.66 402.13 106.56 401.43 106.46C399.53 110.06 395.53 114.36 392.43 115.96ZM396.23 47.3602C396.13 47.3602 396.13 47.4602 396.03 47.4602C395.73 46.8602 395.43 46.2602 395.13 45.6602C393.73 42.6602 392.33 39.5602 390.73 36.5602C389.03 33.3602 386.93 30.3602 385.33 27.0602C382.83 21.9602 379.83 17.3602 376.33 12.9602C371.03 6.1602 365.83 -0.639767 361.33 -7.93977C359.33 -11.1398 356.93 -13.8398 354.03 -16.2398C350.03 -19.5398 346.03 -22.7398 342.13 -26.1398C340.13 -27.8398 337.83 -29.0398 335.43 -30.0398C334.53 -30.4398 333.63 -30.7398 332.53 -30.6398C332.93 -29.8398 333.23 -29.2398 333.43 -28.7398C334.73 -28.4398 336.03 -28.6398 337.13 -27.4398C335.93 -27.5398 334.93 -27.6398 333.73 -27.7398C334.03 -26.3398 334.33 -25.2398 334.63 -24.1398C340.23 -23.2398 341.43 -21.9398 341.33 -17.5398C341.93 -17.4398 342.53 -17.2398 342.93 -17.1398C343.83 -17.6398 343.73 -18.9398 344.93 -19.0398C344.63 -18.2398 344.33 -17.5398 344.03 -16.8398C346.23 -15.9398 348.23 -15.0398 349.73 -13.2398C349.83 -13.0398 350.23 -12.9398 350.43 -12.9398C353.03 -12.8398 354.63 -11.2398 355.93 -9.23981C357.23 -7.23981 358.43 -5.23978 359.63 -3.13978C360.93 -0.939777 362.33 1.06022 364.93 1.86022C365.03 1.86022 365.03 1.96021 365.23 2.16021C364.63 2.26021 364.03 2.26019 363.53 2.26019C364.03 3.76019 365.13 4.56018 366.53 4.76019C366.63 4.76019 366.73 5.06021 366.93 5.16021C366.53 5.26021 366.13 5.3602 365.83 5.4602C366.53 7.3602 368.53 7.16022 369.93 8.36022C369.13 8.36022 368.53 8.36022 367.73 8.36022C368.33 9.26022 368.83 9.96021 369.33 10.6602C371.93 14.4602 374.53 18.2602 376.93 22.1602C378.03 23.8602 379.13 25.5602 381.03 26.4602C381.13 26.4602 381.13 26.6602 381.23 26.8602C380.93 26.9602 380.73 27.0602 380.43 27.1602C380.63 28.9602 382.13 29.5602 383.63 30.3602C382.93 30.4602 382.53 30.5602 382.13 30.5602C382.23 30.8602 382.23 31.0602 382.33 31.2602C384.53 35.5602 386.73 39.9602 389.03 44.2602C389.83 45.8602 390.83 47.3602 392.33 48.5602C393.33 49.4602 393.93 50.7602 394.63 51.9602C395.03 52.7602 395.23 53.6602 395.63 54.4602C397.33 58.3602 399.13 62.2602 400.83 66.1602C400.93 66.3602 401.13 66.4602 401.33 66.6602C401.83 66.4602 402.43 66.2602 403.03 66.0602C402.03 63.5602 401.03 61.3602 400.13 59.0602C402.03 61.0602 402.93 63.6602 404.03 66.1602C405.93 66.2602 407.83 66.4602 409.53 66.5602C410.33 64.6602 411.03 62.8602 411.93 61.1602C412.73 59.5602 412.83 57.6602 414.33 56.3602C413.83 58.4602 413.33 60.4602 412.23 62.4602C411.63 63.6602 411.23 64.8602 410.83 66.1602C410.73 66.4602 411.03 66.7602 411.13 67.1602C411.73 64.7602 412.53 62.6602 414.03 60.8602C414.53 60.1602 415.13 59.5602 415.43 58.7602C415.83 57.9602 416.03 56.9602 416.33 56.0602C414.53 57.1602 414.93 54.2602 413.53 55.0602C412.53 57.3602 411.43 59.9602 410.23 62.4602C409.93 63.1602 409.53 63.8602 409.03 64.3602C408.23 65.1602 407.33 65.0602 406.83 64.0602C406.43 63.3602 406.13 62.6602 405.73 62.0602C402.93 56.9602 400.03 51.8602 397.13 46.7602C396.83 46.1602 396.43 45.5602 396.13 45.0602C396.03 45.0602 395.93 45.1602 395.83 45.1602C395.93 46.1602 396.13 46.7602 396.23 47.3602ZM416.93 124.06C417.03 124.16 417.13 124.16 417.23 124.26C415.93 125.86 414.63 127.36 413.23 129.06C416.33 128.26 419.13 125.96 420.83 122.56C423.03 118.16 423.73 113.46 423.33 108.56C423.23 107.56 422.93 106.76 421.93 106.06C421.63 107.96 421.63 109.86 420.53 111.86C420.73 109.36 420.73 107.26 420.93 105.26C421.03 103.86 420.43 102.86 419.53 101.86C418.83 103.86 418.83 105.96 417.33 107.96C417.73 105.86 418.13 104.26 418.53 102.26C417.43 103.06 416.73 103.66 415.83 104.06C413.53 105.16 411.33 106.16 410.33 108.76C410.63 107.86 411.03 106.96 411.33 105.96C410.13 105.86 409.43 106.36 409.03 107.26C408.33 108.96 407.53 110.66 406.63 112.86C406.73 110.36 407.83 108.56 408.43 106.56C406.83 105.86 406.33 107.16 405.63 108.16C405.53 107.46 405.43 107.06 405.33 106.56C405.03 106.66 404.93 106.66 404.93 106.66C403.33 109.46 401.73 112.36 400.03 115.16C399.83 115.46 399.63 115.76 399.33 115.86C397.83 116.16 397.83 117.16 398.13 118.26C399.23 123.46 402.43 126.96 407.33 129.26C408.43 128.36 409.43 127.46 410.43 126.56C410.53 126.66 410.63 126.66 410.73 126.76C410.13 127.66 409.53 128.46 408.93 129.36C410.23 129.86 411.13 129.56 412.03 128.66C413.93 127.06 415.43 125.56 416.93 124.06ZM435.93 -14.9398C435.83 -14.9398 435.63 -15.0398 435.53 -15.0398C433.73 -12.1398 431.23 -9.93982 428.73 -7.73981C428.23 -7.23981 427.73 -6.73981 427.23 -6.23981C426.23 -5.33981 425.73 -4.23977 425.53 -2.93977C424.93 0.660233 423.83 4.0602 422.43 7.4602C422.23 7.9602 422.13 8.46018 422.03 8.76019C424.73 7.76019 427.33 6.86022 429.93 5.86022C432.53 4.96022 435.03 3.96021 437.13 2.16021C439.73 0.0602112 439.23 0.760223 438.63 -2.13978C438.63 -2.23978 438.43 -2.33977 438.33 -2.43977C437.63 -1.83977 436.93 -1.23981 436.23 -0.739815C435.63 -0.239815 434.83 0.0601959 434.13 0.460197C435.13 -0.939804 436.43 -2.13979 437.53 -3.33979C437.93 -3.73979 438.23 -4.43977 438.13 -4.93977C437.53 -8.33977 436.73 -11.6398 435.93 -14.9398ZM418.83 14.3602C419.13 14.4602 419.33 14.6602 419.53 14.6602C422.53 14.9602 425.23 16.0602 427.63 17.7602C427.93 17.9602 428.43 18.2602 428.73 18.2602C431.33 18.0602 434.03 18.6602 436.63 17.7602C438.03 14.3602 439.13 10.9602 439.23 7.06023C437.53 7.96024 436.43 9.46018 434.23 9.76019C435.63 8.66019 436.73 7.8602 437.83 6.9602C439.63 5.4602 439.93 4.26022 438.73 1.86022C436.43 4.16022 433.63 5.46024 430.63 6.56023C428.53 7.36023 426.43 8.06019 424.33 8.76019C421.83 9.66019 420.03 11.6602 418.83 14.3602ZM421.03 6.86022C421.23 6.86022 421.43 6.9602 421.63 6.9602C422.33 4.9602 423.03 2.9602 423.63 0.960197C425.03 -3.5398 424.53 -7.93979 422.83 -12.3398C422.03 -14.4398 421.53 -16.7398 420.83 -18.9398C420.73 -19.2398 420.63 -19.6398 420.43 -20.1398C417.63 -16.6398 414.93 -13.2398 412.03 -9.63978C413.73 -7.13978 415.23 -4.53978 417.03 -2.13978C419.03 0.560223 420.83 3.36022 421.03 6.86022ZM426.93 -7.23981C429.33 -9.73981 431.83 -12.2398 434.23 -14.6398C435.93 -16.3398 435.53 -18.0398 434.63 -20.2398C433.63 -18.5398 433.43 -16.8398 431.93 -15.3398C432.63 -17.4398 433.13 -19.0398 433.63 -20.7398C434.03 -22.1398 434.23 -23.5398 433.83 -25.0398C433.23 -27.4398 433.03 -29.8398 432.63 -32.2398C432.33 -33.8398 432.13 -35.4398 431.83 -37.4398C428.63 -27.3398 426.83 -17.5398 426.93 -7.23981ZM406.83 50.2602C405.03 51.0602 402.73 50.5602 400.53 51.5602C401.93 53.8602 403.23 55.9602 404.43 58.0602C405.63 60.1602 406.63 62.4602 407.93 65.0602C409.73 61.2602 411.23 58.0602 412.73 54.8602C410.73 53.2602 408.93 51.8602 406.83 50.2602ZM430.63 -36.5398C427.73 -31.8398 424.73 -27.0398 421.83 -22.1398C421.43 -21.5398 421.13 -20.6398 421.33 -20.0398C422.53 -16.1398 423.83 -12.2398 425.03 -8.33979C425.03 -8.33979 425.13 -8.23981 425.33 -8.23981C425.93 -13.0398 426.23 -17.9398 427.13 -22.6398C428.03 -27.4398 429.53 -32.1398 430.63 -36.5398ZM400.83 39.9602C399.93 35.3602 400.03 31.0602 401.53 26.6602C401.83 25.8602 401.63 24.7602 401.33 23.8602C400.33 21.0602 398.43 18.8602 396.43 16.3602C395.73 18.9602 395.73 21.2602 395.93 23.4602C396.23 25.6602 397.23 27.7602 398.03 30.1602C397.43 29.4602 396.93 28.9602 396.23 28.2602C396.43 32.0602 398.83 34.7602 399.63 37.9602C399.83 38.6602 400.43 39.2602 400.83 39.9602ZM340.23 -17.9398C341.13 -21.1398 338.83 -23.3398 334.93 -23.0398C334.53 -20.9398 334.13 -18.8398 333.73 -16.8398C335.83 -17.2398 337.93 -17.5398 340.23 -17.9398ZM450.03 164.86C449.33 165.06 449.03 165.06 448.83 165.26C446.13 167.06 444.23 169.56 442.53 172.36C442.23 172.76 442.13 173.26 442.13 173.76C442.13 174.26 442.33 174.66 442.43 175.26C444.23 173.66 445.83 172.36 447.23 170.86C448.23 169.66 449.03 168.26 449.73 166.86C450.03 166.36 449.93 165.76 450.03 164.86ZM397.43 34.0602C396.93 37.8602 399.23 40.9602 399.43 44.5602C399.13 43.9602 398.83 43.4602 398.63 42.8602C398.73 44.6602 397.63 46.6602 399.23 48.4602C400.43 46.5602 401.53 44.8602 402.73 43.0602C399.63 40.5602 398.53 37.2602 397.43 34.0602ZM434.13 24.8602C434.63 23.7602 435.03 22.7602 435.53 21.5602C434.53 21.5602 433.83 21.5602 432.83 21.5602C434.13 20.5602 436.43 21.1602 436.23 18.8602C434.03 18.9602 431.93 19.0602 429.83 19.0602C431.23 20.9602 432.63 22.8602 434.13 24.8602ZM399.93 50.3602C401.03 49.9602 402.13 49.8602 402.93 49.2602C403.93 48.5602 405.03 50.1602 405.83 48.7602C404.83 47.3602 403.93 45.9602 402.93 44.4602C399.73 48.9602 399.73 48.9602 399.93 50.3602ZM424.13 87.0602C424.33 89.4602 422.93 91.6602 424.63 93.5602C425.53 91.7602 426.53 90.0602 427.53 88.1602C426.53 87.8602 425.53 87.4602 424.13 87.0602ZM426.63 94.0602C427.33 93.8602 427.83 93.8602 427.93 93.7602C428.73 92.0602 429.33 90.3602 430.23 88.3602C429.63 88.6602 429.13 88.7602 428.83 89.0602C427.53 90.3602 426.73 91.9602 426.33 93.7602C425.93 95.7602 425.93 95.8602 428.03 96.8602C428.53 95.5602 427.73 94.8602 426.63 94.0602ZM283.33 -11.7398C284.03 -10.0398 284.53 -8.6398 285.13 -7.0398C286.63 -8.1398 286.93 -8.73979 286.53 -9.83979C286.23 -11.2398 285.43 -11.7398 283.33 -11.7398ZM420.33 16.5602C421.73 17.9602 421.73 17.9602 422.93 17.1602C422.33 16.2602 421.53 16.0602 420.33 16.5602ZM449.73 68.4602C450.23 67.9602 450.53 67.3602 449.93 66.6602C449.83 66.5602 449.33 66.5602 449.23 66.7602C448.73 67.4602 449.03 68.0602 449.73 68.4602Z" fill="#8F6B61" fill-opacity="0.2"/>
<path d="M306.13 70.5602C306.33 67.9602 306.63 65.3602 306.83 62.8602C307.23 65.4602 307.33 68.0602 306.63 70.6602C306.43 70.5602 306.33 70.5602 306.13 70.5602Z" fill="#8F6B61" fill-opacity="0.2"/>
<path d="M292.43 80.1603C292.73 77.6603 292.93 75.1603 293.23 72.7603C293.43 72.7603 293.63 72.7603 293.83 72.8603C293.83 75.3603 293.33 77.8603 292.93 80.2603C292.73 80.2603 292.63 80.1603 292.43 80.1603Z" fill="#8F6B61" fill-opacity="0.2"/>
<path d="M306.93 26.3602C305.13 26.3602 303.33 26.3602 301.53 26.3602C302.63 25.3602 304.73 25.2602 306.93 26.3602Z" fill="#8F6B61" fill-opacity="0.2"/>
<path d="M302.23 53.1602C302.03 50.7602 301.93 48.3602 303.33 46.3602C302.93 48.6602 302.63 50.8602 302.23 53.1602Z" fill="#8F6B61" fill-opacity="0.2"/>
<path d="M323.53 44.0603C323.33 45.9603 322.53 47.4603 321.33 48.7603C321.23 48.6603 321.03 48.5603 320.93 48.5603C321.73 47.0603 322.63 45.5603 323.53 44.0603Z" fill="#8F6B61" fill-opacity="0.2"/>
<path d="M335.83 47.5603C337.03 46.3603 338.13 45.2603 339.33 44.0603C338.33 46.1603 337.23 47.2603 335.83 47.5603Z" fill="#8F6B61" fill-opacity="0.2"/>
<path d="M314.73 29.7602C313.03 29.6602 311.73 28.7602 310.53 27.4602C311.93 28.0602 313.43 28.6602 314.83 29.3602C314.83 29.4602 314.83 29.6602 314.73 29.7602Z" fill="#8F6B61" fill-opacity="0.2"/>
<path d="M283.13 73.0603C282.73 74.6603 282.33 76.1603 281.83 77.8603C281.43 76.3603 281.73 75.0603 283.13 73.0603Z" fill="#8F6B61" fill-opacity="0.2"/>
<path d="M339.33 23.8603C338.03 22.8603 336.73 21.8603 335.23 20.7603C336.73 20.6603 337.63 21.2603 339.33 23.8603Z" fill="#8F6B61" fill-opacity="0.2"/>
<path d="M356.03 46.1603C357.23 44.9603 358.23 43.9603 359.23 43.0603C359.13 44.4603 358.23 45.3603 356.03 46.1603Z" fill="#8F6B61" fill-opacity="0.2"/>
<path d="M314.83 58.7603C315.43 57.3603 316.03 55.9603 316.63 54.5603C316.73 54.6603 316.93 54.6603 317.03 54.7603C316.43 56.1603 315.83 57.5603 315.33 58.9603C315.23 58.8603 315.03 58.8603 314.83 58.7603Z" fill="#8F6B61" fill-opacity="0.2"/>
<path d="M365.23 35.2603C364.73 34.3603 364.23 33.4603 363.83 32.5603C365.33 32.9603 365.33 34.0603 365.23 35.2603Z" fill="#8F6B61" fill-opacity="0.2"/>
<path d="M344.33 40.3602C343.43 40.9602 342.53 41.5602 341.63 42.1602C341.53 42.0602 341.43 41.8602 341.43 41.7602C342.03 40.7602 343.13 40.3602 344.13 39.9602C344.13 40.0602 344.23 40.2602 344.33 40.3602Z" fill="#8F6B61" fill-opacity="0.2"/>
<path d="M321.13 61.2603C320.63 62.4603 320.23 63.7603 319.73 64.9603C319.33 63.4603 320.13 62.3603 321.13 61.2603Z" fill="#8F6B61" fill-opacity="0.2"/>
<path d="M287.33 53.9603C286.63 54.8603 286.03 55.7603 285.33 56.5603C285.23 56.4603 285.03 56.3603 284.93 56.2603C285.53 55.2603 286.13 54.3603 286.93 53.5603C287.03 53.6603 287.23 53.8603 287.33 53.9603Z" fill="#8F6B61" fill-opacity="0.2"/>
<path d="M326.93 51.2603C326.23 52.1603 325.53 53.0603 324.73 54.0603C324.83 52.5603 325.13 52.1603 326.93 51.2603Z" fill="#8F6B61" fill-opacity="0.2"/>
<path d="M328.23 48.3602C328.73 47.5602 329.23 46.6602 329.93 45.6602C329.93 47.2602 329.83 47.3602 328.63 48.6602C328.43 48.5602 328.33 48.4602 328.23 48.3602Z" fill="#8F6B61" fill-opacity="0.2"/>
<path d="M302.53 21.8602C303.53 21.6602 304.63 21.3602 305.63 21.1602C305.63 21.2602 305.63 21.3601 305.73 21.4601C304.73 21.7601 303.63 22.0602 302.63 22.3602C302.63 22.1602 302.63 21.9602 302.53 21.8602Z" fill="#8F6B61" fill-opacity="0.2"/>
<path d="M322.93 57.5603C322.33 58.4603 321.93 59.1603 321.43 60.0603C321.53 58.5603 321.53 58.5603 322.93 57.5603Z" fill="#8F6B61" fill-opacity="0.2"/>
<path d="M302.53 76.0602C302.33 76.7602 302.03 77.4602 301.83 78.1602C301.33 77.1602 301.83 76.5602 302.13 75.8602C302.23 75.9602 302.43 76.0602 302.53 76.0602Z" fill="#8F6B61" fill-opacity="0.2"/>
<path d="M302.83 73.5602C303.03 72.6602 303.23 71.8602 303.43 70.9602C303.53 70.9602 303.63 70.9602 303.73 71.0602C303.53 71.9602 303.43 72.8602 303.23 73.7602C303.13 73.7602 303.03 73.6602 302.83 73.5602Z" fill="#8F6B61" fill-opacity="0.2"/>
<path d="M361.53 54.8602C364.93 53.3602 368.43 53.1602 371.93 53.4602C371.93 53.6602 371.93 53.7602 372.03 53.9602C368.53 54.2602 365.03 54.5602 361.53 54.8602Z" fill="#8F6B61" fill-opacity="0.2"/>
<path d="M386.23 60.3602C383.03 58.7602 379.73 57.1602 376.53 55.5602C376.63 55.4602 376.63 55.2602 376.73 55.1602C380.23 56.2602 383.33 58.2601 386.43 59.9601C386.33 60.1601 386.23 60.2602 386.23 60.3602Z" fill="#8F6B61" fill-opacity="0.2"/>
<path d="M353.53 64.0603C354.43 65.1603 355.33 66.2603 356.23 67.3603C354.83 66.6603 353.73 65.7603 353.53 64.0603Z" fill="#8F6B61" fill-opacity="0.2"/>
<path d="M367.13 76.0603C368.33 76.7603 369.43 77.4603 370.63 78.2603C369.13 78.1603 368.03 77.3603 366.93 76.5603C366.93 76.3603 367.03 76.2603 367.13 76.0603Z" fill="#8F6B61" fill-opacity="0.2"/>
<path d="M373.63 58.0603C372.53 57.9603 371.53 57.9603 370.23 57.8603C371.93 57.1603 371.93 57.1603 373.63 58.0603Z" fill="#8F6B61" fill-opacity="0.2"/>
<path d="M385.73 65.3602C384.93 64.6602 384.13 63.8602 383.33 63.1602C383.43 63.0602 383.53 62.9602 383.63 62.8602C384.43 63.5602 385.33 64.2602 386.13 64.9602C385.93 65.0602 385.83 65.1602 385.73 65.3602Z" fill="#8F6B61" fill-opacity="0.2"/>
<path d="M418.33 81.2602C417.93 80.5602 417.53 79.7602 417.23 79.0602C414.83 73.6602 410.43 70.9602 404.63 70.3602C400.43 69.8602 397.73 71.1602 395.03 74.8602C394.93 74.6602 394.83 74.3602 394.63 74.0602C391.73 75.8602 390.73 78.8602 389.73 81.7602C388.63 84.8602 388.83 87.8602 389.43 90.9602C388.13 89.3602 388.33 87.4602 387.83 85.2602C387.43 91.4602 389.93 95.7602 394.23 99.2602C398.73 102.86 403.73 103.26 409.13 102.06C408.83 102.26 408.63 102.46 408.33 102.56C403.43 103.66 398.63 103.76 394.43 100.46C393.43 99.6602 392.33 98.7602 391.43 97.8602C385.93 92.4602 385.53 84.3602 389.33 78.4602C392.03 74.2602 395.43 71.0602 400.33 69.6602C400.73 69.5602 401.13 69.3602 401.53 69.3602C406.83 69.5602 411.93 70.2602 415.23 75.0602C416.33 76.6602 417.23 78.4602 418.13 80.1602C418.33 80.4602 418.33 80.9602 418.33 81.2602C418.43 81.1602 418.43 81.1602 418.33 81.2602Z" fill="#8F6B61" fill-opacity="0.2"/>
<path d="M396.23 91.2602C398.23 90.1602 398.23 88.2602 398.93 86.4602C399.03 87.3602 399.13 88.2602 399.23 89.6602C399.93 88.8602 400.33 88.4602 401.03 87.5602C400.53 89.2602 401.13 90.0602 402.13 90.7602C402.63 91.1602 403.03 91.7602 403.63 92.4602C404.43 92.1602 405.23 91.8602 406.13 91.4602C405.53 92.4602 405.53 92.4602 403.93 93.2602C403.83 93.9602 403.73 94.6602 403.63 95.4602C404.33 95.6602 405.03 95.7602 406.13 96.0602C404.23 96.8602 402.23 95.8602 400.93 97.5602C401.33 97.9602 401.73 98.4602 402.33 99.1602C401.33 99.2602 400.93 98.6602 400.33 98.2602C399.93 97.9602 399.43 97.4602 398.93 97.4602C397.43 97.5602 396.53 96.7602 395.63 95.7602C395.23 95.3602 394.63 95.0602 393.83 94.4602C395.93 94.4602 395.63 93.0602 395.93 92.0602C395.23 90.9602 394.63 90.0602 394.03 89.0602C394.13 88.9602 394.23 88.9602 394.33 88.8602C394.93 89.7602 395.63 90.5602 396.23 91.2602ZM398.63 91.6602C397.63 93.0602 397.63 94.3602 398.43 95.0602C399.03 95.5602 399.83 95.6602 400.33 95.1602C400.63 94.8602 400.83 93.9602 400.63 93.5602C400.13 92.8602 399.33 92.3602 398.63 91.6602ZM401.73 95.8602C403.13 94.0602 403.03 92.9602 401.43 91.3602C400.23 90.0602 399.23 89.9602 397.93 90.8602C401.13 91.9602 402.23 92.3602 401.73 95.8602ZM396.73 93.7602C396.03 95.4602 396.13 95.5602 397.83 96.2602C397.43 95.3602 397.03 94.5602 396.73 93.7602Z" fill="#8F6B61" fill-opacity="0.2"/>
<path d="M405.63 72.1602C403.53 72.4602 401.43 72.8602 399.03 73.2602C401.13 71.5602 403.33 71.4602 405.63 72.1602Z" fill="#8F6B61" fill-opacity="0.2"/>
<path d="M394.63 83.0602C393.63 81.6602 393.73 80.6602 394.73 78.8602C394.73 79.0602 394.83 79.2602 394.83 79.4602C394.73 80.6602 394.73 81.7602 394.63 83.0602Z" fill="#8F6B61" fill-opacity="0.2"/>
<path d="M406.63 100.96C405.03 101.96 403.63 101.76 402.33 101.66C402.33 101.46 402.33 101.36 402.33 101.16C402.93 101.16 403.63 101.16 404.23 101.16C404.83 101.16 405.53 101.06 406.63 100.96Z" fill="#8F6B61" fill-opacity="0.2"/>
<path d="M413.73 86.6602C413.03 87.7602 412.03 88.3602 410.63 87.8602C411.63 87.4602 412.63 87.0602 413.73 86.6602Z" fill="#8F6B61" fill-opacity="0.2"/>
<path d="M419.43 83.1602C419.53 84.3602 419.63 85.4602 419.73 86.6602C419.63 86.6602 419.53 86.6602 419.43 86.6602C419.33 85.4602 419.23 84.3602 419.13 83.1602C419.23 83.1602 419.33 83.1602 419.43 83.1602Z" fill="#8F6B61" fill-opacity="0.2"/>
<path d="M404.13 77.2603C403.73 77.7603 403.33 78.3603 402.83 78.9603C402.73 77.6603 402.73 77.6603 404.13 77.2603Z" fill="#8F6B61" fill-opacity="0.2"/>
<path d="M411.33 100.96C412.03 100.16 412.73 99.4603 413.83 98.2603C413.43 99.9603 412.53 100.56 411.73 101.26C411.63 101.16 411.43 101.06 411.33 100.96Z" fill="#8F6B61" fill-opacity="0.2"/>
<path d="M418.23 92.2602C417.63 92.7602 416.93 93.2602 416.33 93.6602C416.23 93.5602 416.13 93.3602 416.03 93.2602C416.63 92.7602 417.33 92.3602 417.93 91.8602C418.03 92.0602 418.13 92.1602 418.23 92.2602Z" fill="#8F6B61" fill-opacity="0.2"/>
<path d="M406.93 27.0603C403.73 35.8603 406.03 43.2603 412.73 49.5603C412.43 49.1603 412.13 48.7603 411.83 48.3603C411.53 47.9603 411.33 47.5603 411.33 46.9603C411.83 47.4603 412.23 47.9603 412.73 48.4603C416.23 52.7603 420.13 52.7603 425.03 50.1603C427.13 48.9603 428.63 47.0603 430.13 45.2603C430.73 44.4603 431.33 43.6603 432.03 42.7603C432.13 43.0603 432.23 43.2603 432.13 43.3603C429.93 47.3603 427.13 50.8603 422.63 52.2603C418.43 53.5603 414.43 52.9603 411.23 49.7603C406.03 44.4603 402.63 35.4603 406.93 27.0603Z" fill="#8F6B61" fill-opacity="0.2"/>
<path d="M406.33 44.6602C404.83 43.0602 404.03 41.1602 403.93 38.9602C404.73 40.8602 405.53 42.7602 406.33 44.6602Z" fill="#8F6B61" fill-opacity="0.2"/>
<path d="M408.13 38.7603C408.83 40.6603 409.33 42.1603 409.83 43.7603C408.43 42.9603 407.93 41.4603 408.13 38.7603Z" fill="#8F6B61" fill-opacity="0.2"/>
<path d="M414.93 46.4602C415.63 47.6602 416.23 48.8602 416.93 50.0602C415.23 49.4602 414.93 47.9602 414.63 46.6602C414.63 46.5602 414.83 46.4602 414.93 46.4602Z" fill="#8F6B61" fill-opacity="0.2"/>
<path d="M431.23 30.0602C430.73 28.5602 430.23 27.1602 429.83 25.6602C431.03 26.8602 431.33 28.3602 431.23 30.0602Z" fill="#8F6B61" fill-opacity="0.2"/>
<path d="M414.83 17.4602C414.43 18.4602 414.03 19.4602 413.63 20.7602C413.33 18.8602 413.43 18.4602 414.83 17.4602Z" fill="#8F6B61" fill-opacity="0.2"/>
<path d="M405.23 27.4602C404.93 28.6602 404.63 29.8602 404.23 31.0602C403.73 29.6602 404.43 28.5602 405.23 27.4602Z" fill="#8F6B61" fill-opacity="0.2"/>
<path d="M425.03 26.6602C425.23 27.7602 425.53 28.8601 425.73 29.9601C425.63 29.9601 425.53 30.0602 425.43 30.0602C425.13 28.9602 424.83 27.8601 424.53 26.7601C424.63 26.7601 424.83 26.7602 425.03 26.6602Z" fill="#8F6B61" fill-opacity="0.2"/>
<path d="M406.53 33.9601C406.73 32.8601 406.93 31.7602 407.13 30.6602C407.33 30.6602 407.43 30.7601 407.63 30.7601C407.43 31.8601 407.33 32.9602 407.13 34.0602C406.93 33.9602 406.73 33.9601 406.53 33.9601Z" fill="#8F6B61" fill-opacity="0.2"/>
<path d="M427.13 45.5602C427.63 44.5602 428.03 43.4602 428.63 42.3602C428.73 43.7602 428.63 44.0602 427.13 45.5602Z" fill="#8F6B61" fill-opacity="0.2"/>
<path d="M422.33 38.7601C422.13 39.6601 421.83 40.4602 421.63 41.3602C421.43 41.3602 421.33 41.2601 421.13 41.2601C421.33 40.3601 421.43 39.5602 421.63 38.6602C421.83 38.6602 422.13 38.7601 422.33 38.7601Z" fill="#8F6B61" fill-opacity="0.2"/>
<path d="M419.93 46.4603C419.73 47.2603 419.53 47.9603 419.33 48.7603C419.13 48.7603 419.03 48.6603 418.83 48.6603C419.03 47.8603 419.23 47.0603 419.43 46.2603C419.53 46.3603 419.73 46.3603 419.93 46.4603Z" fill="#8F6B61" fill-opacity="0.2"/>
<path d="M411.73 40.3602C411.83 41.0602 411.83 41.8602 411.93 42.6602C410.73 41.9602 411.43 41.1602 411.73 40.3602Z" fill="#8F6B61" fill-opacity="0.2"/>
<path d="M412.73 26.2602C413.03 25.5602 413.23 24.9602 413.63 23.9602C414.03 25.2602 413.33 25.7602 413.13 26.4602C412.93 26.3602 412.83 26.3602 412.73 26.2602Z" fill="#8F6B61" fill-opacity="0.2"/>
<path d="M415.13 28.2602C414.93 28.7602 414.83 29.3602 414.63 29.8602C414.53 29.8602 414.43 29.8602 414.33 29.7602C414.43 29.1602 414.53 28.5602 414.63 27.9602C414.83 28.1602 414.93 28.2602 415.13 28.2602Z" fill="#8F6B61" fill-opacity="0.2"/>
<path d="M423.03 46.6602C422.73 47.2602 422.53 47.9602 422.23 48.5602C422.03 48.4602 421.93 48.4602 421.73 48.3602C422.03 47.7602 422.23 47.1602 422.53 46.4602C422.73 46.5602 422.83 46.6602 423.03 46.6602Z" fill="#8F6B61" fill-opacity="0.2"/>
<path d="M346.53 2.16016C346.23 0.760156 346.43 -0.639844 347.43 -1.83984C347.33 -0.439844 347.23 0.860132 347.13 2.26013C346.93 2.16013 346.73 2.16016 346.53 2.16016Z" fill="#8F6B61" fill-opacity="0.2"/>
<path d="M347.93 7.56024C347.93 8.76024 347.83 10.0602 347.83 11.2602C347.63 11.2602 347.53 11.2602 347.33 11.2602C346.83 9.96019 347.33 8.76021 347.53 7.46021C347.63 7.56021 347.73 7.56024 347.93 7.56024Z" fill="#8F6B61" fill-opacity="0.2"/>
<path d="M329.83 -1.4397C329.53 -0.439697 329.23 0.560303 328.93 1.5603C328.23 0.160303 328.83 -0.739697 329.83 -1.4397Z" fill="#8F6B61" fill-opacity="0.2"/>
<path d="M333.33 2.46021C333.13 3.46021 332.83 4.36024 332.53 5.56024C332.03 4.16024 332.03 4.16021 333.33 2.46021Z" fill="#8F6B61" fill-opacity="0.2"/>
<path d="M323.93 1.76025C323.73 2.66025 323.53 3.56028 323.33 4.66028C322.83 3.26028 322.83 3.26025 323.93 1.76025Z" fill="#8F6B61" fill-opacity="0.2"/>
<path d="M427.43 79.7603C428.33 79.6603 429.13 79.6603 430.23 79.5603C429.33 80.5603 428.43 80.4603 427.43 79.7603Z" fill="#8F6B61" fill-opacity="0.2"/>
<path d="M426.93 74.6602C427.73 74.6602 428.53 74.6602 429.53 74.6602C428.53 75.6602 427.73 75.0602 426.93 75.1602C426.93 74.9602 426.93 74.8602 426.93 74.6602Z" fill="#8F6B61" fill-opacity="0.2"/>
<path d="M371.13 114.96C371.23 114.36 371.23 113.86 371.23 113.36C371.43 112.26 371.63 111.16 372.93 110.76C374.13 110.46 375.03 111.16 375.83 111.96C376.03 112.16 376.23 112.36 376.43 112.56C377.93 114.36 378.03 115.46 377.03 116.36C375.33 117.76 373.13 117.86 371.83 116.46C371.43 116.06 371.33 115.46 371.13 114.96ZM376.53 115.26C376.43 113.86 375.33 112.26 374.03 111.76C373.23 111.46 372.73 111.66 372.43 112.16C373.93 113.26 375.23 114.26 376.53 115.26ZM375.13 116.06C374.73 114.56 374.13 114.06 372.33 113.86C371.93 115.76 372.93 116.66 375.13 116.06Z" fill="#8F6B61" fill-opacity="0.2"/>
<path d="M387.43 120.16C384.03 121.86 377.63 121.36 375.43 119.06C379.43 120.46 383.43 120.56 387.43 120.16Z" fill="#8F6B61" fill-opacity="0.2"/>
<path d="M371.43 99.4602C370.33 102.76 369.13 106.06 368.63 109.56C367.83 105.76 369.23 102.46 371.43 99.4602Z" fill="#8F6B61" fill-opacity="0.2"/>
<path d="M378.03 106.26C377.53 107.16 377.03 108.06 376.43 109.06C376.03 107.66 377.03 107.06 377.53 106.16C377.73 106.06 377.93 106.16 378.03 106.26Z" fill="#8F6B61" fill-opacity="0.2"/>
<path d="M394.33 111.06C395.23 110.06 395.83 109.36 396.63 108.46C396.43 109.86 396.23 110.06 394.33 111.06Z" fill="#8F6B61" fill-opacity="0.2"/>
<path d="M374.83 13.9602C377.63 16.9602 379.73 20.4602 381.23 24.2602C378.93 20.9602 376.73 17.5602 374.43 14.2602C374.53 14.1602 374.73 14.0602 374.83 13.9602Z" fill="#8F6B61" fill-opacity="0.2"/>
<path d="M401.63 121.86C401.03 120.16 401.23 118.46 401.73 116.66C401.93 118.46 402.03 120.16 402.13 121.86C401.93 121.86 401.73 121.86 401.63 121.86Z" fill="#8F6B61" fill-opacity="0.2"/>
<path d="M421.03 117.06C420.53 117.96 420.03 118.86 419.53 119.76C419.33 118.46 419.73 117.56 420.53 116.76C420.73 116.86 420.93 116.96 421.03 117.06Z" fill="#8F6B61" fill-opacity="0.2"/>
<path d="M429.83 114.56C428.63 112.36 427.83 109.96 427.53 107.46C427.63 107.46 427.83 107.36 427.93 107.36C428.63 109.66 429.43 112.06 430.13 114.36C430.03 114.46 429.93 114.56 429.83 114.56Z" fill="#8F6B61" fill-opacity="0.2"/>
<path d="M412.73 -2.63977C414.03 -0.93977 414.93 0.960217 415.13 3.16022C414.13 1.26022 413.23 -0.539758 412.23 -2.43976C412.43 -2.43976 412.63 -2.53977 412.73 -2.63977Z" fill="#8F6B61" fill-opacity="0.2"/>
<path d="M403.53 15.0603C402.93 14.2603 402.33 13.4603 401.63 12.5603C402.83 12.9603 403.33 13.8603 403.53 15.0603Z" fill="#8F6B61" fill-opacity="0.2"/>
</svg>
