<svg width="27" height="45" viewBox="0 0 27 45" fill="none" xmlns="http://www.w3.org/2000/svg">
<path fill-rule="evenodd" clip-rule="evenodd" d="M26.1513 18.1571H0.843195C0.377749 18.1571 0 17.7794 0 17.3139V12.5458C0 12.0803 0.377749 11.7026 0.843195 11.7026H26.1568C26.6223 11.7026 27 12.0803 27 12.5458V17.3139C27 17.7794 26.6223 18.1571 26.1568 18.1571C26.1556 18.1571 26.1527 18.1571 26.1513 18.1571ZM1.68092 16.4694H25.3081V13.3878H1.68639L1.68092 16.4694Z" fill="#543A35"/>
<path fill-rule="evenodd" clip-rule="evenodd" d="M19.6173 44.9273H7.37293C5.44396 44.9384 3.8314 43.4624 3.67377 41.5405L1.54264 17.3865C1.54264 17.3628 1.54264 17.3363 1.54264 17.3126C1.52448 16.8472 1.88836 16.4554 2.35381 16.4374C2.81925 16.4193 3.21106 16.7831 3.22903 17.2486L5.3588 41.393C5.44669 42.4397 6.32192 43.2425 7.37137 43.2411H19.6156C20.6679 43.2468 21.5473 42.4411 21.6352 41.3916L23.7649 17.2472C23.7831 16.7818 24.1761 16.4193 24.6415 16.4374C25.107 16.4556 25.4695 16.8486 25.4513 17.314V17.3878L23.3219 41.5405C23.1631 43.4652 21.5477 44.9426 19.6173 44.9273Z" fill="#543A35"/>
<path fill-rule="evenodd" clip-rule="evenodd" d="M23.7846 12.7355L22.4565 7.00282C22.3826 6.67957 22.0955 6.45085 21.7637 6.45241H5.22379C4.89214 6.45104 4.60502 6.67957 4.53099 7.00282L3.20419 12.7355C3.09969 13.1898 2.64518 13.4728 2.19224 13.3669C1.73792 13.2624 1.45491 12.8079 1.56077 12.355L2.88777 6.62234C3.13583 5.53382 4.10735 4.76153 5.22379 4.76583H21.7637C22.8815 4.76172 23.8516 5.53382 24.0997 6.62234L25.4265 12.355C25.531 12.8093 25.2495 13.2624 24.795 13.3669C24.3409 13.4714 23.8891 13.1898 23.7846 12.7355Z" fill="#543A35"/>
<path fill-rule="evenodd" clip-rule="evenodd" d="M20.2195 6.45216C19.754 6.45216 19.3763 6.07441 19.3763 5.60897V3.35947C19.3526 2.44381 18.5917 1.71898 17.6758 1.74262C16.7922 1.76488 16.0814 2.47565 16.0589 3.35947V5.60897C16.0589 6.07441 15.6812 6.45216 15.2158 6.45216C14.7503 6.45216 14.3726 6.07441 14.3726 5.60897V3.35947C14.406 1.51136 15.9295 0.0409909 17.7776 0.0730234C19.5798 0.105056 21.032 1.55745 21.064 3.35947V5.60897C21.0626 6.07441 20.6849 6.45216 20.2195 6.45216Z" fill="#543A35"/>
<path fill-rule="evenodd" clip-rule="evenodd" d="M15.6394 27.5512C13.3063 27.5512 13.1766 26.4822 11.3521 26.4822C9.52767 26.4822 9.41067 27.5512 7.06488 27.5512C4.85992 27.5512 4.57846 26.5797 3.0704 26.4904C2.60496 26.4611 2.25084 26.0598 2.28014 25.5943C2.30943 25.1289 2.71082 24.7748 3.17626 24.8041C5.17907 24.9226 5.32556 25.8578 7.07055 25.8578C8.913 25.8578 9.00656 24.7888 11.3592 24.7888C13.6784 24.7888 13.8358 25.8578 15.6464 25.8578C17.4891 25.8578 17.5811 24.7888 19.9337 24.7888C22.1135 24.7888 22.4104 25.7324 23.8516 25.8426C24.3171 25.8803 24.6655 26.2887 24.6267 26.7555C24.589 27.2209 24.1805 27.5694 23.7137 27.5305C21.7932 27.3815 21.6496 26.4768 19.9269 26.4768C19.0544 26.4768 18.6614 26.6733 18.1596 26.9227C17.5741 27.2209 16.9092 27.5512 15.6394 27.5512Z" fill="#543A35"/>
</svg>
