<svg width="35" height="24" viewBox="0 0 35 24" fill="none" xmlns="http://www.w3.org/2000/svg">
<path d="M12.1856 15.7536L11.5465 15.3602C10.1136 14.4191 9.26618 12.7989 9.15275 10.7937C9.04111 8.82095 9.65599 6.70516 10.8837 4.83572C12.6608 2.1299 15.3813 0.449036 17.9831 0.449036C19.0012 0.449036 19.9267 0.709176 20.734 1.22211L20.8659 1.30594L20.8687 1.46219C20.8698 1.51997 20.9096 7.24936 15.7476 8.50798C15.5536 8.56695 10.6641 10.1046 11.9955 15.0477L12.1856 15.7536ZM17.9833 1.02965C15.6111 1.02965 13.0149 2.6488 11.3691 5.15466C10.2091 6.92052 9.62786 8.91151 9.73246 10.7607C9.8179 12.2729 10.3551 13.5374 11.2639 14.3993C10.5028 9.53581 15.5418 7.96363 15.5955 7.94747C19.8643 6.90633 20.251 2.51499 20.2851 1.62816C19.6049 1.23093 18.8316 1.02965 17.9833 1.02965Z" fill="#543A35"/>
<path d="M15.1958 16.7239C14.178 16.7239 13.2524 16.4638 12.4452 15.9509L12.3177 15.8697L12.311 15.7187C12.3084 15.6608 12.1115 9.90608 17.4347 8.66438C17.6258 8.606 22.5152 7.0684 21.184 2.12524L20.9947 1.42313L21.6401 1.81723C24.554 3.73187 24.848 8.45111 22.2957 12.337C20.5182 15.0431 17.7977 16.7239 15.1958 16.7239ZM12.8898 15.5421C13.5708 15.9411 14.3459 16.1433 15.1958 16.1433C17.5682 16.1433 20.1643 14.5243 21.8103 12.0185C23.9949 8.69254 23.9862 4.74125 21.9153 2.77407C22.6767 7.63731 17.6376 9.2092 17.5839 9.22551C13.1741 10.2544 12.9001 14.6676 12.8898 15.5421Z" fill="#543A35"/>
<path d="M34.6897 12.9584C34.6897 12.9584 30.835 16.9384 26.4451 14.2595C26.4451 14.2595 21.4992 11.5836 18.7631 16.3216L18.7586 16.3026C18.0882 13.0384 21.1146 9.65881 25.5185 8.75388C29.8915 7.85553 33.9764 9.7359 34.6897 12.9584Z" fill="#543A35"/>
<path d="M18.9759 17.3602C18.9759 17.3602 22.7339 13.2595 27.2205 16.0591C27.2205 16.0591 32.1663 18.735 34.9025 13.997L34.907 14.0159C35.5774 17.2801 32.551 20.6598 28.1471 21.5645C23.7741 22.4632 19.6892 20.5828 18.9759 17.3602Z" fill="#543A35"/>
<path d="M2.84838 8.86272C2.84838 8.86272 7.81388 11.3199 6.60281 16.3188C6.60281 16.3188 5.56412 21.8462 10.9102 23.0067L10.8936 23.0169C7.99031 24.6513 3.8489 22.7998 1.64374 18.8812C-0.546161 14.9901 -0.00219619 10.5253 2.84838 8.86272Z" fill="#543A35"/>
<path d="M11.8341 22.4873C11.8341 22.4873 6.78298 20.1589 8.07965 15.0312C8.07965 15.0312 9.11847 9.50372 3.77228 8.34314L3.7889 8.33299C6.69215 6.69854 10.8335 8.54999 13.0387 12.4686C15.2286 16.3597 14.6845 20.8245 11.8341 22.4873Z" fill="#543A35"/>
<path d="M11.8863 15.3045L11.2472 14.9112C9.81433 13.9701 8.96689 12.3498 8.85346 10.3446C8.74183 8.37191 9.3567 6.25612 10.5844 4.38668C12.3616 1.68086 15.082 0 17.6838 0C18.7019 0 19.6274 0.260141 20.4347 0.773076L20.5666 0.856903L20.5694 1.01316C20.5705 1.07093 20.6103 6.80033 15.4483 8.05894C15.2544 8.11792 10.3649 9.65554 11.6963 14.5987L11.8863 15.3045ZM17.684 0.580611C15.3118 0.580611 12.7156 2.19977 11.0698 4.70562C9.90979 6.47148 9.32857 8.46247 9.43317 10.3117C9.51862 11.8239 10.0558 13.0883 10.9646 13.9503C10.2035 9.08677 15.2425 7.5146 15.2962 7.49843C19.565 6.45729 19.9517 2.06595 19.9858 1.17913C19.3057 0.781891 18.5323 0.580611 17.684 0.580611Z" fill="#543A35"/>
<path d="M14.8966 16.2749C13.8787 16.2749 12.9531 16.0148 12.1459 15.5018L12.0184 15.4207L12.0117 15.2697C12.0092 15.2118 11.8122 9.45704 17.1354 8.21534C17.3265 8.15697 22.2159 6.61936 20.8847 1.6762L20.6954 0.974091L21.3408 1.36819C24.2547 3.28283 24.5487 8.00207 21.9964 11.8879C20.2189 14.594 17.4984 16.2749 14.8966 16.2749ZM12.5905 15.0931C13.2715 15.4921 14.0466 15.6943 14.8966 15.6943C17.2689 15.6943 19.865 14.0753 21.511 11.5694C23.6956 8.24351 23.6869 4.29221 21.616 2.32504C22.3774 7.18827 17.3383 8.76016 17.2846 8.77647C12.8749 9.80534 12.6008 14.2185 12.5905 15.0931Z" fill="#543A35"/>
<path d="M34.3904 12.5094C34.3904 12.5094 30.5357 16.4894 26.1457 13.8105C26.1457 13.8105 21.1999 11.1346 18.4638 15.8726L18.4593 15.8536C17.7889 12.5895 20.8153 9.20982 25.2192 8.30489C29.5922 7.40654 33.677 9.28692 34.3904 12.5094Z" fill="#543A35"/>
<path d="M18.6766 16.9112C18.6766 16.9112 22.4346 12.8105 26.9212 15.61C26.9212 15.61 31.867 18.2859 34.6032 13.548L34.6077 13.5668C35.2781 16.8311 32.2517 20.2107 27.8478 21.1155C23.4748 22.0142 19.3899 20.1338 18.6766 16.9112Z" fill="#543A35"/>
<path d="M2.54909 8.41368C2.54909 8.41368 7.5146 10.8709 6.30352 15.8697C6.30352 15.8697 5.26483 21.3972 10.6109 22.5576L10.5943 22.5678C7.69102 24.2023 3.54961 22.3508 1.34445 18.4321C-0.845447 14.541 -0.301482 10.0763 2.54909 8.41368Z" fill="#543A35"/>
<path d="M11.5348 22.0383C11.5348 22.0383 6.4837 19.7099 7.78037 14.5822C7.78037 14.5822 8.81919 9.05472 3.47299 7.89414L3.48962 7.88398C6.39287 6.24953 10.5343 8.10099 12.7394 12.0196C14.9293 15.9107 14.3852 20.3755 11.5348 22.0383Z" fill="#543A35"/>
</svg>
